SplineFontDB: 3.0
FontName: Plateia-Bold
FullName: Plateia Bold
FamilyName: Plateia
Weight: Book
Version: 1.0
ItalicAngle: 0
UnderlinePosition: 0
UnderlineWidth: 0
Ascent: 1638
Descent: 410
sfntRevision: 0x00010000
LayerCount: 2
Layer: 0 1 "Warstwa t+AUIA-a"  1
Layer: 1 1 "Plan pierwszy"  0
XUID: [1021 931 1782258964 15249138]
FSType: 8
OS2Version: 3
OS2_WeightWidthSlopeOnly: 0
OS2_UseTypoMetrics: 1
CreationTime: 1402068708
ModificationTime: 1474698414
PfmFamily: 17
TTFWeight: 400
TTFWidth: 5
LineGap: 184
VLineGap: 0
Panose: 2 0 5 9 0 0 0 0 0 0
OS2TypoAscent: 1638
OS2TypoAOffset: 0
OS2TypoDescent: -410
OS2TypoDOffset: 0
OS2TypoLinegap: 184
OS2WinAscent: 2670
OS2WinAOffset: 0
OS2WinDescent: 750
OS2WinDOffset: 0
HheadAscent: 2048
HheadAOffset: 0
HheadDescent: 0
HheadDOffset: 0
OS2SubXSize: 1331
OS2SubYSize: 1433
OS2SubXOff: 0
OS2SubYOff: 286
OS2SupXSize: 1331
OS2SupYSize: 1433
OS2SupXOff: 0
OS2SupYOff: 983
OS2StrikeYSize: 102
OS2StrikeYPos: 530
OS2Vendor: 'PfEd'
OS2CodePages: 00000001.00000000
OS2UnicodeRanges: 00000001.00000000.00000000.00000000
Lookup: 258 0 0 "'kern' Kerning poziomy w +AUIA-aci+AUQA-skie w tablicy 0"  {"Podtablica 'kern' Kerning poziomy w +AUIA-aci+AUQA-skie w tablicy 0"  } ['kern' ('DFLT' <'dflt' > 'latn' <'dflt' > ) ]
DEI: 91125
ShortTable: maxp 16
  1
  0
  1265
  436
  19
  106
  5
  0
  0
  0
  0
  0
  0
  0
  3
  1
EndShort
LangName: 1033 "" "" "" "Plateia-Bold-2014:6:6" "" "Version 1.0" 
GaspTable: 1 65535 2 1
Encoding: UnicodeBmp
UnicodeInterp: none
NameList: Adobe Glyph List
DisplaySize: -24
AntiAlias: 1
FitToEm: 1
WinInfo: 50 50 15
BeginChars: 66049 1266

StartChar: .notdef
Encoding: 65536 -1 0
Width: 2180
Flags: W
LayerCount: 2
Fore
SplineSet
90 -4596 m 1,0,-1
 2090 -4596 l 1,1,-1
 2090 -2548 l 1,2,-1
 90 -2548 l 1,3,-1
 90 -4596 l 1,0,-1
1559 1015 m 1,4,5
 1232 971 1232 971 1222 1082 c 0,6,7
 1218 1131 1218 1131 1278 1201 c 1,8,9
 1130 1122 1130 1122 1141 1291 c 0,10,11
 1147 1382 1147 1382 1198 1543 c 1,12,13
 1111 1361 1111 1361 1036 1330 c 1,14,-1
 1083 1336 l 1,15,-1
 1087 1305 l 1,16,-1
 912 1280 l 1,17,-1
 927 1177 l 1,18,-1
 897 1173 l 1,19,-1
 878 1308 l 1,20,-1
 1000 1325 l 1,21,22
 968 1330 968 1330 940 1371 c 1,23,24
 903 1294 903 1294 855 1344 c 0,25,26
 823 1377 823 1377 750 1526 c 0,27,28
 726 1574 726 1574 718 1590 c 1,29,30
 809 1398 809 1398 800.5 1313.5 c 128,-1,31
 792 1229 792 1229 648 1271 c 1,32,33
 760 1192 760 1192 740 1153 c 0,34,35
 716 1106 716 1106 522 1145 c 0,36,37
 498 1150 498 1150 473 1156 c 1,38,39
 749 1075 749 1075 756 991 c 0,40,41
 762 926 762 926 593 871 c 1,42,43
 793 875 793 875 784 798 c 0,44,45
 775 729 775 729 609 615 c 0,46,47
 580 596 580 596 550 577 c 1,48,49
 626 620 626 620 676.5 644 c 128,-1,50
 727 668 727 668 768.5 680.5 c 128,-1,51
 810 693 810 693 827 682.5 c 128,-1,52
 844 672 844 672 845 641 c 128,-1,53
 846 610 846 610 823.5 552.5 c 128,-1,54
 801 495 801 495 757 409 c 1,55,56
 825 511 825 511 860.5 548.5 c 128,-1,57
 896 586 896 586 913 572 c 128,-1,58
 930 558 930 558 931 494.5 c 128,-1,59
 932 431 932 431 931 332 c 0,60,61
 931 305 931 305 931 289.5 c 128,-1,62
 931 274 931 274 930.5 248.5 c 128,-1,63
 930 223 930 223 930 201 c 1,64,65
 937 406 937 406 955 492 c 128,-1,66
 973 578 973 578 1023 585 c 1,67,68
 1019 587 1019 587 1005 596 c 1,69,70
 991 607 991 607 980 626 c 128,-1,71
 969 645 969 645 966 664 c 0,72,73
 964 681 964 681 969 705 c 0,74,75
 973 724 973 724 985 740 c 256,76,77
 997 756 997 756 1015 767 c 0,78,79
 1034 778 1034 778 1057 781 c 0,80,81
 1082 784 1082 784 1101 779 c 0,82,83
 1124 772 1124 772 1137 762 c 0,84,85
 1153 749 1153 749 1163 732 c 128,-1,86
 1173 715 1173 715 1176 694 c 0,87,88
 1179 674 1179 674 1174 653 c 0,89,90
 1170 634 1170 634 1158 618 c 0,91,92
 1147 603 1147 603 1127 591 c 0,93,94
 1108 580 1108 580 1086 577 c 0,95,96
 1084 577 1084 577 1082 576.5 c 128,-1,97
 1080 576 1080 576 1078 576 c 1,98,99
 1083 574 1083 574 1111 560 c 1,100,101
 1098 551 1098 551 1093 533 c 0,102,103
 1089 517 1089 517 1087 487 c 0,104,105
 1085 456 1085 456 1083 448 c 0,106,107
 1080 438 1080 438 1073 434 c 128,-1,108
 1066 430 1066 430 1058 430 c 0,109,110
 1032 431 1032 431 1026 471 c 0,111,112
 1021 510 1021 510 1038 540 c 1,113,-1
 1007 551 l 1,114,115
 988 512 988 512 994 467 c 0,116,117
 997 445 997 445 1011 423 c 0,118,119
 1020 410 1020 410 1030 405 c 0,120,121
 1043 398 1043 398 1056 397 c 0,122,123
 1080 395 1080 395 1094 407 c 1,124,125
 1110 419 1110 419 1114 440 c 0,126,127
 1118 458 1118 458 1119 484 c 0,128,129
 1120 511 1120 511 1124 522 c 0,130,131
 1126 529 1126 529 1134 533 c 0,132,133
 1141 536 1141 536 1147 535 c 0,134,135
 1151 534 1151 534 1159 528 c 0,136,137
 1169 519 1169 519 1172 501 c 0,138,139
 1175 484 1175 484 1171 467 c 0,140,141
 1167 451 1167 451 1159 438 c 1,142,-1
 1188 426 l 1,143,144
 1209 463 1209 463 1202 508 c 0,145,146
 1197 537 1197 537 1180 553 c 0,147,148
 1165 568 1165 568 1144 568 c 1,149,150
 1151 604 1151 604 1165 623 c 128,-1,151
 1179 642 1179 642 1198 645.5 c 128,-1,152
 1217 649 1217 649 1242 641 c 128,-1,153
 1267 633 1267 633 1295.5 616 c 128,-1,154
 1324 599 1324 599 1356.5 576 c 128,-1,155
 1389 553 1389 553 1424 527 c 0,156,157
 1438 517 1438 517 1445.5 511 c 128,-1,158
 1453 505 1453 505 1464.5 496.5 c 128,-1,159
 1476 488 1476 488 1486 481 c 1,160,161
 1348 582 1348 582 1282 668 c 0,162,163
 1191 786 1191 786 1323 788 c 0,164,165
 1342 788 1342 788 1365 786 c 1,166,167
 1109 929 1109 929 1559 1015 c 1,4,5
1385 379 m 1,168,-1
 1251 533 l 1,169,-1
 1358 359 l 1,170,-1
 1385 379 l 1,168,-1
1380 1401 m 1,171,-1
 1357 1420 l 1,172,-1
 1167 1204 l 1,173,-1
 1380 1401 l 1,171,-1
1148 884 m 0,174,175
 1148 863 1148 863 1141 845 c 0,176,177
 1130 818 1130 818 1109 803 c 0,178,179
 1100 796 1100 796 1096 795 c 1,180,-1
 1091 828 l 1,181,-1
 1095 832 l 1,182,-1
 1104 841 l 1,183,184
 1120 861 1120 861 1115 894 c 0,185,186
 1110 926 1110 926 1090 942 c 0,187,188
 1067 959 1067 959 1032 954 c 0,189,190
 998 950 998 950 981 927 c 1,191,192
 964 906 964 906 969 873 c 0,193,194
 973 843 973 843 995 826 c 0,195,196
 1006 818 1006 818 1011 816 c 1,197,-1
 1027 818 l 1,198,-1
 1020 870 l 1,199,-1
 1049 874 l 1,200,-1
 1060 790 l 1,201,-1
 953 775 l 1,202,-1
 949 806 l 1,203,-1
 969 809 l 1,204,205
 943 832 943 832 938 869 c 0,206,207
 935 888 935 888 940 909 c 128,-1,208
 945 930 945 930 956 945 c 0,209,210
 968 962 968 962 986 972 c 0,211,212
 1005 983 1005 983 1028 986 c 0,213,214
 1053 989 1053 989 1072 984 c 0,215,216
 1093 978 1093 978 1108 966 c 0,217,218
 1125 952 1125 952 1134 937 c 0,219,220
 1144 920 1144 920 1147 899 c 0,221,222
 1148 894 1148 894 1148 884 c 0,174,175
1145 678 m 0,223,224
 1145 685 1145 685 1144 689 c 0,225,226
 1139 721 1139 721 1119 737 c 0,227,228
 1098 754 1098 754 1061 749 c 0,229,230
 1026 744 1026 744 1010 722 c 1,231,232
 993 701 993 701 998 668 c 0,233,234
 1002 638 1002 638 1024 621 c 0,235,236
 1046 603 1046 603 1081 608 c 128,-1,237
 1116 613 1116 613 1133 636 c 0,238,239
 1145 652 1145 652 1145 678 c 0,223,224
1118 1095 m 0,240,241
 1118 1082 1118 1082 1115 1070 c 0,242,243
 1110 1049 1110 1049 1099 1034 c 128,-1,244
 1088 1019 1088 1019 1069 1008 c 0,245,246
 1048 996 1048 996 1027 993 c 0,247,248
 1002 990 1002 990 983 995 c 0,249,250
 960 1001 960 1001 946 1013 c 0,251,252
 931 1025 931 1025 921 1042 c 128,-1,253
 911 1059 911 1059 908 1081 c 0,254,255
 905 1100 905 1100 910 1121 c 128,-1,256
 915 1142 915 1142 926 1157 c 0,257,258
 938 1174 938 1174 956 1184 c 0,259,260
 975 1195 975 1195 998 1198 c 0,261,262
 1023 1201 1023 1201 1042 1196 c 0,263,264
 1063 1190 1063 1190 1078 1178 c 0,265,266
 1095 1164 1095 1164 1104 1149 c 0,267,268
 1114 1132 1114 1132 1117 1110 c 0,269,270
 1118 1105 1118 1105 1118 1095 c 0,240,241
1086 1095 m 2,271,-1
 1086 1106 l 1,272,273
 1082 1137 1082 1137 1060 1154 c 0,274,275
 1039 1171 1039 1171 1002 1166 c 0,276,277
 968 1162 968 1162 951 1138 c 1,278,279
 934 1117 934 1117 939 1085 c 0,280,281
 943 1055 943 1055 965 1038 c 0,282,283
 987 1020 987 1020 1022 1025 c 128,-1,284
 1057 1030 1057 1030 1074 1053 c 0,285,286
 1086 1069 1086 1069 1086 1095 c 2,271,-1
1072 1407 m 0,287,288
 1072 1414 1072 1414 1071 1418 c 2,289,-1
 1061 1492 l 1,290,-1
 856 1464 l 1,291,-1
 861 1431 l 1,292,-1
 935 1442 l 1,293,-1
 941 1400 l 2,294,295
 945 1371 945 1371 967 1354 c 128,-1,296
 989 1337 989 1337 1016 1341 c 0,297,298
 1045 1346 1045 1346 1060 1366 c 0,299,300
 1072 1382 1072 1382 1072 1407 c 0,287,288
1060 1496 m 1,301,-1
 1055 1538 l 1,302,-1
 967 1592 l 1,303,-1
 1036 1669 l 1,304,-1
 1030 1711 l 1,305,-1
 940 1611 l 1,306,-1
 825 1682 l 1,307,-1
 831 1640 l 1,308,-1
 919 1586 l 1,309,-1
 850 1509 l 1,310,-1
 856 1467 l 1,311,-1
 946 1567 l 1,312,-1
 1060 1496 l 1,301,-1
1041 1407 m 0,313,314
 1041 1395 1041 1395 1035 1386 c 0,315,316
 1027 1374 1027 1374 1012 1372 c 0,317,318
 996 1370 996 1370 986 1379 c 0,319,320
 975 1388 975 1388 972 1406 c 2,321,-1
 966 1446 l 1,322,-1
 1035 1456 l 1,323,-1
 1040 1415 l 2,324,325
 1040 1414 1040 1414 1040.5 1411 c 128,-1,326
 1041 1408 1041 1408 1041 1407 c 0,313,314
1030 1714 m 1,327,-1
 1011 1848 l 1,328,-1
 806 1819 l 1,329,-1
 825 1685 l 1,330,-1
 855 1689 l 1,331,-1
 840 1792 l 1,332,-1
 900 1800 l 1,333,-1
 913 1709 l 1,334,-1
 942 1713 l 1,335,-1
 929 1805 l 1,336,-1
 986 1813 l 1,337,-1
 1000 1710 l 1,338,-1
 1030 1714 l 1,327,-1
900 741 m 0,339,340
 900 724 900 724 889 711 c 0,341,342
 879 700 879 700 856 700 c 2,343,-1
 799 700 l 1,344,-1
 799 710 l 1,345,-1
 857 710 l 1,346,347
 873 711 873 711 882 719 c 0,348,349
 890 726 890 726 890 743 c 0,350,351
 890 754 890 754 886 761 c 0,352,353
 880 772 880 772 872 777 c 1,354,355
 862 775 862 775 855 775 c 2,356,-1
 799 775 l 1,357,-1
 799 785 l 1,358,-1
 856 785 l 2,359,360
 890 785 890 785 890 818 c 0,361,362
 890 837 890 837 874 849 c 1,363,-1
 799 849 l 1,364,-1
 799 860 l 1,365,-1
 896 860 l 1,366,-1
 896 851 l 1,367,-1
 886 849 l 1,368,369
 900 835 900 835 900 817 c 0,370,371
 900 793 900 793 880 781 c 1,372,373
 890 772 890 772 895 763 c 0,374,375
 900 753 900 753 900 741 c 0,339,340
900 1036 m 0,376,377
 900 1024 900 1024 893 1010 c 0,378,379
 887 998 887 998 875 992 c 1,380,-1
 875 1003 l 1,381,382
 889 1013 889 1013 889 1036 c 0,383,384
 889 1052 889 1052 878 1065 c 0,385,386
 868 1077 868 1077 847 1077 c 128,-1,387
 826 1077 826 1077 816 1065 c 0,388,389
 805 1052 805 1052 805 1036 c 0,390,391
 805 1014 805 1014 820 1003 c 1,392,-1
 820 992 l 1,393,394
 808 998 808 998 802 1010 c 0,395,396
 795 1024 795 1024 795 1036 c 0,397,398
 795 1057 795 1057 810 1072 c 128,-1,399
 825 1087 825 1087 847 1087 c 0,400,401
 870 1087 870 1087 885 1072 c 128,-1,402
 900 1057 900 1057 900 1036 c 0,376,377
847 876 m 0,403,404
 825 876 825 876 810 891 c 128,-1,405
 795 906 795 906 795 927 c 128,-1,406
 795 948 795 948 810 963 c 128,-1,407
 825 978 825 978 847 978 c 0,408,409
 870 978 870 978 885 963 c 128,-1,410
 900 948 900 948 900 927 c 128,-1,411
 900 906 900 906 885 891 c 128,-1,412
 870 876 870 876 847 876 c 0,403,404
878 956 m 0,413,414
 868 968 868 968 847 968 c 128,-1,415
 826 968 826 968 816 956 c 0,416,417
 805 943 805 943 805 927 c 128,-1,418
 805 911 805 911 816 898 c 0,419,420
 827 886 827 886 847 886 c 0,421,422
 868 886 868 886 878 898 c 0,423,424
 889 911 889 911 889 927 c 128,-1,425
 889 943 889 943 878 956 c 0,413,414
822 1109 m 1,426,-1
 822 1099 l 1,427,-1
 799 1099 l 1,428,-1
 799 1109 l 1,429,-1
 822 1109 l 1,426,-1
700 801 m 1,430,-1
 441 736 l 1,431,-1
 453 701 l 1,432,-1
 700 801 l 1,430,-1
664 1166 m 1,433,-1
 506 1288 l 1,434,-1
 486 1263 l 1,435,-1
 664 1166 l 1,433,-1
EndSplineSet
EndChar

StartChar: B
Encoding: 66 66 3
Width: 2032
Flags: W
LayerCount: 2
Fore
SplineSet
90 1370 m 1,0,-1
 90 0 l 1,1,-1
 1521 0 l 2,2,3
 1698 0 1698 0 1819 111 c 0,4,5
 1942 224 1942 224 1942 383 c 0,6,7
 1942 490 1942 490 1882 580 c 256,8,9
 1822 670 1822 670 1722 720 c 1,10,11
 1785 772 1785 772 1821 843 c 0,12,13
 1857 915 1857 915 1857 995 c 1,14,15
 1860 1150 1860 1150 1737 1260 c 1,16,17
 1616 1370 1616 1370 1444 1370 c 2,18,-1
 90 1370 l 1,0,-1
464 1079 m 1,19,-1
 1323 1079 l 2,20,21
 1384 1079 1384 1079 1426 1040 c 0,22,23
 1468 1002 1468 1002 1468 945 c 0,24,25
 1468 890 1468 890 1426 851 c 256,26,27
 1384 812 1384 812 1323 812 c 2,28,-1
 464 812 l 1,29,-1
 464 1079 l 1,19,-1
464 557 m 1,30,-1
 1417 557 l 1,31,32
 1477 558 1477 558 1519 519 c 0,33,34
 1562 480 1562 480 1562 424 c 1,35,36
 1565 368 1565 368 1520 329 c 1,37,38
 1478 290 1478 290 1417 290 c 2,39,-1
 464 290 l 1,40,-1
 464 557 l 1,30,-1
EndSplineSet
EndChar

StartChar: A
Encoding: 65 65 4
Width: 2172
Flags: W
LayerCount: 2
Fore
SplineSet
900 1370 m 1,0,-1
 30 0 l 1,1,-1
 432 0 l 1,2,-1
 623 300 l 1,3,-1
 1550 300 l 1,4,-1
 1739 0 l 1,5,-1
 2142 0 l 1,6,-1
 1272 1370 l 1,7,-1
 900 1370 l 1,0,-1
1087 1030 m 1,8,-1
 1365 590 l 1,9,-1
 807 590 l 1,10,-1
 1087 1030 l 1,8,-1
EndSplineSet
EndChar

StartChar: C
Encoding: 67 67 5
Width: 2102
Flags: W
LayerCount: 2
Fore
SplineSet
530 1370 m 2,0,1
 348 1370 348 1370 219 1253 c 256,2,3
 90 1136 90 1136 90 970 c 2,4,-1
 90 400 l 2,5,6
 90 234 90 234 218 117 c 0,7,8
 347 0 347 0 530 0 c 2,9,-1
 1571 0 l 2,10,11
 1755 0 1755 0 1883 117 c 0,12,13
 2012 234 2012 234 2011 400 c 1,14,-1
 2011 486 l 1,15,-1
 1637 486 l 1,16,-1
 1637 465 l 2,17,18
 1637 400 1637 400 1586 352 c 1,19,20
 1536 308 1536 308 1461 305 c 1,21,-1
 640 305 l 1,22,23
 568 306 568 306 516 351 c 1,24,25
 464 399 464 399 464 465 c 2,26,-1
 464 905 l 2,27,28
 464 974 464 974 515 1018 c 1,29,30
 568 1066 568 1066 640 1065 c 1,31,-1
 1461 1065 l 1,32,33
 1536 1068 1536 1068 1586 1019 c 1,34,35
 1637 974 1637 974 1637 905 c 2,36,-1
 1637 882 l 1,37,-1
 2011 882 l 1,38,-1
 2011 970 l 1,39,40
 2012 1136 2012 1136 1883 1253 c 0,41,42
 1755 1370 1755 1370 1571 1370 c 2,43,-1
 530 1370 l 2,0,1
EndSplineSet
EndChar

StartChar: D
Encoding: 68 68 6
Width: 2108
Flags: W
LayerCount: 2
Fore
SplineSet
90 1370 m 1,0,-1
 90 0 l 1,1,-1
 1544 0 l 2,2,3
 1668 0 1668 0 1773 53 c 1,4,5
 1882 106 1882 106 1948 199 c 1,6,7
 2018 292 2018 292 2015 400 c 1,8,-1
 2015 970 l 1,9,10
 2018 1078 2018 1078 1949 1171 c 1,11,12
 1886 1264 1886 1264 1774 1317 c 1,13,14
 1666 1370 1666 1370 1544 1370 c 2,15,-1
 90 1370 l 1,0,-1
464 1065 m 1,16,-1
 1465 1065 l 1,17,18
 1540 1068 1540 1068 1590 1019 c 1,19,20
 1641 974 1641 974 1641 905 c 2,21,-1
 1641 465 l 2,22,23
 1641 400 1641 400 1590 352 c 1,24,25
 1540 308 1540 308 1465 305 c 1,26,-1
 464 305 l 1,27,-1
 464 1065 l 1,16,-1
EndSplineSet
EndChar

StartChar: E
Encoding: 69 69 7
Width: 1872
Flags: W
LayerCount: 2
Fore
SplineSet
90 1370 m 1,0,-1
 90 0 l 1,1,-1
 1782 0 l 1,2,-1
 1782 305 l 1,3,-1
 464 305 l 1,4,-1
 464 541 l 1,5,-1
 1606 541 l 1,6,-1
 1606 841 l 1,7,-1
 464 841 l 1,8,-1
 464 1065 l 1,9,-1
 1782 1065 l 1,10,-1
 1782 1370 l 1,11,-1
 90 1370 l 1,0,-1
EndSplineSet
EndChar

StartChar: F
Encoding: 70 70 8
Width: 1832
Flags: W
LayerCount: 2
Fore
SplineSet
90 1370 m 1,0,-1
 90 0 l 1,1,-1
 464 0 l 1,2,-1
 464 499 l 1,3,-1
 1566 499 l 1,4,-1
 1566 798 l 1,5,-1
 464 798 l 1,6,-1
 464 1065 l 1,7,-1
 1742 1065 l 1,8,-1
 1742 1370 l 1,9,-1
 90 1370 l 1,0,-1
EndSplineSet
EndChar

StartChar: G
Encoding: 71 71 9
Width: 2131
Flags: W
LayerCount: 2
Fore
SplineSet
530 1370 m 2,0,1
 347 1370 347 1370 218 1253 c 0,2,3
 90 1136 90 1136 90 970 c 2,4,-1
 90 400 l 2,5,6
 90 234 90 234 218 117 c 0,7,8
 347 0 347 0 530 0 c 2,9,-1
 2041 0 l 1,10,-1
 2041 807 l 1,11,-1
 1200 807 l 1,12,-1
 1200 518 l 1,13,-1
 1667 518 l 1,14,-1
 1667 305 l 1,15,-1
 640 305 l 1,16,17
 566 306 566 306 515 351 c 1,18,19
 464 399 464 399 464 465 c 2,20,-1
 464 905 l 2,21,22
 464 974 464 974 515 1018 c 1,23,24
 566 1066 566 1066 640 1065 c 1,25,-1
 1993 1065 l 1,26,-1
 1993 1370 l 1,27,-1
 530 1370 l 2,0,1
EndSplineSet
EndChar

StartChar: H
Encoding: 72 72 10
Width: 2035
Flags: W
LayerCount: 2
Fore
SplineSet
90 1370 m 1,0,-1
 90 0 l 1,1,-1
 464 0 l 1,2,-1
 464 552 l 1,3,-1
 1571 552 l 1,4,-1
 1571 0 l 1,5,-1
 1945 0 l 1,6,-1
 1945 1370 l 1,7,-1
 1571 1370 l 1,8,-1
 1571 857 l 1,9,-1
 464 857 l 1,10,-1
 464 1370 l 1,11,-1
 90 1370 l 1,0,-1
EndSplineSet
EndChar

StartChar: I
Encoding: 73 73 11
Width: 554
Flags: W
LayerCount: 2
Fore
SplineSet
90 1370 m 1,0,-1
 90 0 l 1,1,-1
 464 0 l 1,2,-1
 464 1370 l 1,3,-1
 90 1370 l 1,0,-1
EndSplineSet
EndChar

StartChar: J
Encoding: 74 74 12
Width: 1230
Flags: W
LayerCount: 2
Fore
SplineSet
1140 1370 m 1,0,-1
 1140 400 l 2,1,2
 1140 234 1140 234 1012 117 c 0,3,4
 883 0 883 0 700 0 c 2,5,-1
 90 0 l 1,6,-1
 90 305 l 1,7,-1
 590 305 l 1,8,9
 664 306 664 306 714 351 c 0,10,11
 766 399 766 399 766 465 c 2,12,-1
 766 1370 l 1,13,-1
 1140 1370 l 1,0,-1
EndSplineSet
EndChar

StartChar: K
Encoding: 75 75 13
Width: 2098
Flags: W
LayerCount: 2
Fore
SplineSet
90 1370 m 1,0,-1
 90 0 l 1,1,-1
 464 0 l 1,2,-1
 464 670 l 1,3,-1
 1453 0 l 1,4,-1
 2068 0 l 1,5,-1
 945 727 l 1,6,-1
 1992 1370 l 1,7,-1
 1377 1370 l 1,8,-1
 464 782 l 1,9,-1
 464 1370 l 1,10,-1
 90 1370 l 1,0,-1
EndSplineSet
EndChar

StartChar: L
Encoding: 76 76 14
Width: 1801
Flags: W
LayerCount: 2
Fore
SplineSet
90 0 m 1,0,-1
 90 1370 l 1,1,-1
 464 1370 l 1,2,-1
 464 305 l 1,3,-1
 1711 305 l 1,4,-1
 1711 0 l 1,5,-1
 90 0 l 1,0,-1
EndSplineSet
EndChar

StartChar: M
Encoding: 77 77 15
Width: 2365
Flags: W
LayerCount: 2
Fore
SplineSet
2275 1370 m 1,0,-1
 2275 0 l 1,1,-1
 1901 0 l 1,2,-1
 1901 868 l 1,3,-1
 1343 123 l 1,4,-1
 1022 123 l 1,5,-1
 464 868 l 1,6,-1
 464 0 l 1,7,-1
 90 0 l 1,8,-1
 90 1370 l 1,9,-1
 478 1370 l 1,10,-1
 1182 410 l 1,11,-1
 1886 1370 l 1,12,-1
 2275 1370 l 1,0,-1
EndSplineSet
EndChar

StartChar: N
Encoding: 78 78 16
Width: 2113
Flags: W
LayerCount: 2
Fore
SplineSet
90 1370 m 1,0,-1
 90 0 l 1,1,-1
 464 0 l 1,2,-1
 464 961 l 1,3,-1
 1648 0 l 1,4,-1
 2023 0 l 1,5,-1
 2023 1370 l 1,6,-1
 1648 1370 l 1,7,-1
 1648 408 l 1,8,-1
 464 1370 l 1,9,-1
 90 1370 l 1,0,-1
EndSplineSet
EndChar

StartChar: O
Encoding: 79 79 17
Width: 2132
Flags: W
LayerCount: 2
Fore
SplineSet
530 1370 m 2,0,1
 347 1370 347 1370 218 1253 c 0,2,3
 90 1136 90 1136 90 970 c 2,4,-1
 90 400 l 2,5,6
 90 234 90 234 218 117 c 0,7,8
 347 0 347 0 530 0 c 2,9,-1
 1601 0 l 2,10,11
 1785 0 1785 0 1913 117 c 0,12,13
 2042 234 2042 234 2041 400 c 1,14,-1
 2041 970 l 1,15,16
 2042 1136 2042 1136 1913 1253 c 0,17,18
 1785 1370 1785 1370 1601 1370 c 2,19,-1
 530 1370 l 2,0,1
640 1065 m 1,20,-1
 1491 1065 l 1,21,22
 1566 1068 1566 1068 1616 1019 c 1,23,24
 1667 974 1667 974 1667 905 c 2,25,-1
 1667 465 l 2,26,27
 1667 400 1667 400 1616 352 c 1,28,29
 1566 308 1566 308 1491 305 c 1,30,-1
 640 305 l 1,31,32
 566 306 566 306 515 351 c 1,33,34
 464 399 464 399 464 465 c 2,35,-1
 464 905 l 2,36,37
 464 974 464 974 515 1018 c 1,38,39
 566 1066 566 1066 640 1065 c 1,20,-1
EndSplineSet
EndChar

StartChar: P
Encoding: 80 80 18
Width: 2050
Flags: W
LayerCount: 2
Fore
SplineSet
90 1370 m 1,0,-1
 90 0 l 1,1,-1
 464 0 l 1,2,-1
 464 428 l 1,3,-1
 1442 428 l 2,4,5
 1584 428 1584 428 1702 490 c 0,6,7
 1822 553 1822 553 1890 661 c 1,8,9
 1960 770 1960 770 1960 898 c 0,10,11
 1960 1027 1960 1027 1891 1135 c 0,12,13
 1822 1244 1822 1244 1702 1307 c 0,14,15
 1584 1370 1584 1370 1442 1370 c 2,16,-1
 90 1370 l 1,0,-1
464 1065 m 1,17,-1
 1407 1065 l 1,18,19
 1488 1066 1488 1066 1539 1018 c 1,20,21
 1591 973 1591 973 1591 898 c 0,22,23
 1591 826 1591 826 1539 778 c 1,24,25
 1488 734 1488 734 1407 731 c 1,26,-1
 464 731 l 1,27,-1
 464 1065 l 1,17,-1
EndSplineSet
EndChar

StartChar: Q
Encoding: 81 81 19
Width: 2132
Flags: W
LayerCount: 2
Fore
SplineSet
530 1370 m 2,0,1
 347 1370 347 1370 218 1253 c 0,2,3
 90 1136 90 1136 90 970 c 2,4,-1
 90 400 l 2,5,6
 90 234 90 234 218 117 c 0,7,8
 347 0 347 0 530 0 c 2,9,-1
 1105 0 l 1,10,-1
 1274 -267 l 1,11,-1
 1677 -267 l 1,12,-1
 1508 0 l 1,13,-1
 1601 0 l 2,14,15
 1785 0 1785 0 1913 117 c 0,16,17
 2042 234 2042 234 2041 400 c 1,18,-1
 2041 970 l 1,19,20
 2042 1136 2042 1136 1913 1253 c 0,21,22
 1785 1370 1785 1370 1601 1370 c 2,23,-1
 530 1370 l 2,0,1
640 1065 m 1,24,-1
 1491 1065 l 1,25,26
 1566 1068 1566 1068 1616 1019 c 1,27,28
 1667 974 1667 974 1667 905 c 2,29,-1
 1667 465 l 2,30,31
 1667 400 1667 400 1616 352 c 1,32,33
 1566 308 1566 308 1491 305 c 1,34,-1
 640 305 l 1,35,36
 566 306 566 306 515 351 c 1,37,38
 464 399 464 399 464 465 c 2,39,-1
 464 905 l 2,40,41
 464 974 464 974 515 1018 c 1,42,43
 566 1066 566 1066 640 1065 c 1,24,-1
EndSplineSet
EndChar

StartChar: R
Encoding: 82 82 20
Width: 2026
Flags: W
LayerCount: 2
Fore
SplineSet
90 1370 m 1,0,-1
 90 0 l 1,1,-1
 464 0 l 1,2,-1
 464 497 l 1,3,-1
 1089 497 l 1,4,-1
 1501 0 l 1,5,-1
 1936 0 l 1,6,-1
 1490 502 l 1,7,8
 1672 523 1672 523 1794 643 c 1,9,10
 1916 766 1916 766 1916 933 c 0,11,12
 1916 1114 1916 1114 1775 1242 c 256,13,14
 1634 1370 1634 1370 1435 1370 c 2,15,-1
 90 1370 l 1,0,-1
464 1065 m 1,16,-1
 1399 1065 l 1,17,18
 1465 1068 1465 1068 1504 1028 c 1,19,20
 1546 992 1546 992 1545 932 c 1,21,22
 1546 875 1546 875 1504 836 c 1,23,24
 1465 798 1465 798 1399 798 c 2,25,-1
 464 799 l 1,26,-1
 464 1065 l 1,16,-1
EndSplineSet
EndChar

StartChar: S
Encoding: 83 83 21
Width: 2022
Flags: W
LayerCount: 2
Fore
SplineSet
545 1370 m 1,0,1
 356 1364 356 1364 225 1245 c 1,2,3
 93 1128 93 1128 93 956 c 0,4,5
 93 786 93 786 225 664 c 1,6,7
 357 544 357 544 545 543 c 1,8,-1
 1428 543 l 2,9,10
 1482 543 1482 543 1521 507 c 0,11,12
 1560 472 1560 472 1560 421 c 0,13,14
 1560 372 1560 372 1522 336 c 1,15,16
 1484 304 1484 304 1428 301 c 1,17,-1
 572 301 l 2,18,19
 518 301 518 301 479 337 c 256,20,21
 440 373 440 373 440 423 c 2,22,-1
 440 425 l 1,23,-1
 90 425 l 1,24,25
 90 248 90 248 226 124 c 1,26,27
 364 0 364 0 556 0 c 2,28,-1
 1463 0 l 2,29,30
 1658 0 1658 0 1792 124 c 1,31,32
 1930 248 1930 248 1929 425 c 1,33,34
 1932 602 1932 602 1793 726 c 1,35,36
 1658 852 1658 852 1463 851 c 1,37,38
 1326 854 1326 854 1038 851 c 1,39,40
 750 850 750 850 612 850 c 0,41,42
 564 850 564 850 531 881 c 256,43,44
 498 912 498 912 497 956 c 0,45,46
 497 1000 497 1000 530 1030 c 1,47,48
 564 1064 564 1064 612 1061 c 1,49,-1
 1391 1061 l 1,50,51
 1442 1064 1442 1064 1474 1031 c 1,52,53
 1508 1001 1508 1001 1508 956 c 1,54,55
 1510 956 1510 956 1507 950 c 1,56,-1
 1507 950 l 1,57,-1
 1871 950 l 1,58,-1
 1871 956 l 2,59,60
 1871 1128 1871 1128 1739 1249 c 0,61,62
 1608 1370 1608 1370 1419 1370 c 2,63,-1
 545 1370 l 1,0,1
EndSplineSet
EndChar

StartChar: T
Encoding: 84 84 22
Width: 1973
Flags: W
LayerCount: 2
Fore
SplineSet
90 1370 m 1,0,-1
 90 1065 l 1,1,-1
 799 1065 l 1,2,-1
 799 0 l 1,3,-1
 1173 0 l 1,4,-1
 1173 1065 l 1,5,-1
 1883 1065 l 1,6,-1
 1883 1370 l 1,7,-1
 90 1370 l 1,0,-1
EndSplineSet
EndChar

StartChar: U
Encoding: 85 85 23
Width: 2044
Flags: W
LayerCount: 2
Fore
SplineSet
90 1370 m 1,0,-1
 90 400 l 2,1,2
 90 234 90 234 218 117 c 0,3,4
 347 0 347 0 530 0 c 2,5,-1
 1513 0 l 2,6,7
 1697 0 1697 0 1825 117 c 0,8,9
 1954 234 1954 234 1953 400 c 1,10,-1
 1953 1370 l 1,11,-1
 1579 1370 l 1,12,-1
 1579 465 l 2,13,14
 1579 400 1579 400 1528 352 c 1,15,16
 1478 308 1478 308 1403 305 c 1,17,-1
 640 305 l 1,18,19
 566 306 566 306 515 351 c 1,20,21
 464 399 464 399 464 465 c 2,22,-1
 464 1370 l 1,23,-1
 90 1370 l 1,0,-1
EndSplineSet
EndChar

StartChar: V
Encoding: 86 86 24
Width: 2156
Flags: W
LayerCount: 2
Fore
SplineSet
861 0 m 1,0,-1
 30 1370 l 1,1,-1
 463 1370 l 1,2,-1
 1079 340 l 1,3,-1
 1693 1370 l 1,4,-1
 2126 1370 l 1,5,-1
 1295 0 l 1,6,-1
 861 0 l 1,0,-1
EndSplineSet
EndChar

StartChar: W
Encoding: 87 87 25
Width: 2881
Flags: W
LayerCount: 2
Fore
SplineSet
40 1370 m 1,0,-1
 649 0 l 1,1,-1
 1022 0 l 1,2,-1
 1441 906 l 1,3,-1
 1860 0 l 1,4,-1
 2233 0 l 1,5,-1
 2841 1370 l 1,6,-1
 2436 1370 l 1,7,-1
 2031 453 l 1,8,-1
 1628 1360 l 1,9,-1
 1254 1360 l 1,10,-1
 850 453 l 1,11,-1
 445 1370 l 1,12,-1
 40 1370 l 1,0,-1
EndSplineSet
EndChar

StartChar: X
Encoding: 88 88 26
Width: 2497
Flags: W
LayerCount: 2
Fore
SplineSet
105 1370 m 1,0,-1
 956 713 l 1,1,-1
 30 0 l 1,2,-1
 604 0 l 1,3,-1
 1247 519 l 1,4,-1
 1893 0 l 1,5,-1
 2467 0 l 1,6,-1
 1541 713 l 1,7,-1
 2393 1370 l 1,8,-1
 1817 1370 l 1,9,-1
 1247 907 l 1,10,-1
 680 1370 l 1,11,-1
 105 1370 l 1,0,-1
EndSplineSet
EndChar

StartChar: Y
Encoding: 89 89 27
Width: 2326
Flags: W
LayerCount: 2
Fore
SplineSet
30 1370 m 1,0,-1
 976 496 l 1,1,-1
 976 0 l 1,2,-1
 1350 0 l 1,3,-1
 1350 496 l 1,4,-1
 2296 1370 l 1,5,-1
 1744 1370 l 1,6,-1
 1163 793 l 1,7,-1
 582 1370 l 1,8,-1
 30 1370 l 1,0,-1
EndSplineSet
EndChar

StartChar: Z
Encoding: 90 90 28
Width: 2050
Flags: W
LayerCount: 2
Fore
SplineSet
137 1370 m 1,0,-1
 137 1065 l 1,1,-1
 1303 1065 l 1,2,-1
 90 248 l 1,3,-1
 90 0 l 1,4,-1
 1960 0 l 1,5,-1
 1960 305 l 1,6,-1
 705 305 l 1,7,-1
 1912 1121 l 1,8,-1
 1912 1370 l 1,9,-1
 137 1370 l 1,0,-1
EndSplineSet
EndChar

StartChar: zero
Encoding: 48 48 29
Width: 1836
Flags: W
LayerCount: 2
Fore
SplineSet
530 1370 m 2,0,1
 347 1370 347 1370 218 1253 c 0,2,3
 90 1136 90 1136 90 970 c 2,4,-1
 90 400 l 2,5,6
 90 234 90 234 218 117 c 0,7,8
 347 0 347 0 530 0 c 2,9,-1
 1306 0 l 2,10,11
 1490 0 1490 0 1618 117 c 256,12,13
 1746 234 1746 234 1746 400 c 2,14,-1
 1746 970 l 2,15,16
 1746 1136 1746 1136 1618 1253 c 256,17,18
 1490 1370 1490 1370 1306 1370 c 2,19,-1
 530 1370 l 2,0,1
640 1065 m 1,20,-1
 1196 1065 l 1,21,22
 1270 1068 1270 1068 1321 1019 c 1,23,24
 1372 974 1372 974 1372 905 c 2,25,-1
 1372 465 l 2,26,27
 1372 400 1372 400 1321 352 c 1,28,29
 1270 308 1270 308 1196 305 c 1,30,-1
 640 305 l 1,31,32
 566 306 566 306 515 351 c 1,33,34
 464 399 464 399 464 465 c 2,35,-1
 464 905 l 2,36,37
 464 974 464 974 515 1018 c 1,38,39
 566 1066 566 1066 640 1065 c 1,20,-1
EndSplineSet
EndChar

StartChar: one
Encoding: 49 49 30
Width: 834
Flags: W
LayerCount: 2
Fore
SplineSet
744 1370 m 1,0,-1
 744 0 l 1,1,-1
 370 0 l 1,2,-1
 370 999 l 1,3,-1
 90 889 l 1,4,-1
 90 1210 l 1,5,-1
 501 1370 l 1,6,-1
 744 1370 l 1,0,-1
EndSplineSet
EndChar

StartChar: two
Encoding: 50 50 31
Width: 1736
Flags: W
LayerCount: 2
Fore
SplineSet
554 1370 m 1,0,1
 366 1373 366 1373 234 1250 c 1,2,3
 102 1130 102 1130 102 957 c 2,4,-1
 102 951 l 1,5,-1
 476 951 l 1,6,7
 479 952 479 952 476 954 c 1,8,9
 476 957 476 957 475 957 c 1,10,11
 476 1002 476 1002 509 1031 c 0,12,13
 543 1062 543 1062 591 1062 c 2,14,-1
 1140 1062 l 2,15,16
 1197 1062 1197 1062 1233 1027 c 1,17,18
 1272 994 1272 994 1272 942 c 0,19,20
 1272 892 1272 892 1234 857 c 256,21,22
 1196 822 1196 822 1140 822 c 2,23,-1
 555 822 l 1,24,25
 363 824 363 824 227 698 c 0,26,27
 92 574 92 574 90 397 c 1,28,-1
 90 0 l 1,29,-1
 1646 0 l 1,30,-1
 1646 302 l 1,31,-1
 463 302 l 1,32,-1
 463 395 l 1,33,34
 464 446 464 446 502 479 c 1,35,36
 541 515 541 515 595 515 c 2,37,-1
 1175 515 l 1,38,39
 1370 516 1370 516 1508 639 c 1,40,41
 1646 765 1646 765 1646 942 c 0,42,43
 1646 1120 1646 1120 1509 1245 c 0,44,45
 1371 1370 1371 1370 1175 1370 c 2,46,-1
 554 1370 l 1,0,1
EndSplineSet
EndChar

StartChar: three
Encoding: 51 51 32
Width: 1804
Flags: W
LayerCount: 2
Fore
SplineSet
569 1370 m 1,0,1
 393 1372 393 1372 270 1258 c 1,2,3
 147 1146 147 1146 147 986 c 1,4,-1
 521 986 l 1,5,6
 536 1020 536 1020 568 1041 c 1,7,8
 602 1062 602 1062 642 1062 c 2,9,-1
 1153 1062 l 2,10,11
 1208 1062 1208 1062 1246 1027 c 0,12,13
 1285 992 1285 992 1285 941 c 1,14,15
 1286 892 1286 892 1247 856 c 1,16,17
 1208 824 1208 824 1153 821 c 1,18,-1
 725 821 l 1,19,-1
 725 562 l 1,20,-1
 1203 562 l 2,21,22
 1263 562 1263 562 1302 525 c 1,23,24
 1344 489 1344 489 1343 435 c 1,25,26
 1344 384 1344 384 1302 345 c 1,27,28
 1263 307 1263 307 1203 307 c 2,29,-1
 587 307 l 2,30,31
 504 307 504 307 464 373 c 1,32,-1
 90 373 l 1,33,34
 90 220 90 220 206 109 c 1,35,36
 324 0 324 0 486 0 c 2,37,-1
 1318 0 l 2,38,39
 1482 0 1482 0 1598 109 c 1,40,41
 1714 220 1714 220 1714 373 c 0,42,43
 1714 474 1714 474 1660 561 c 256,44,45
 1606 648 1606 648 1515 698 c 1,46,47
 1582 752 1582 752 1620 827 c 256,48,49
 1658 902 1658 902 1658 986 c 0,50,51
 1658 1146 1658 1146 1534 1257 c 1,52,53
 1410 1370 1410 1370 1236 1370 c 2,54,-1
 569 1370 l 1,0,1
EndSplineSet
EndChar

StartChar: four
Encoding: 52 52 33
Width: 1866
Flags: W
LayerCount: 2
Fore
SplineSet
739 1370 m 1,0,-1
 90 426 l 1,1,-1
 90 192 l 1,2,-1
 1175 192 l 1,3,-1
 1175 0 l 1,4,-1
 1549 0 l 1,5,-1
 1549 192 l 1,6,-1
 1776 192 l 1,7,-1
 1776 497 l 1,8,-1
 1549 497 l 1,9,-1
 1549 942 l 1,10,-1
 1175 942 l 1,11,-1
 1175 497 l 1,12,-1
 598 497 l 1,13,-1
 1195 1370 l 1,14,-1
 739 1370 l 1,0,-1
EndSplineSet
EndChar

StartChar: five
Encoding: 53 53 34
Width: 1696
Flags: W
LayerCount: 2
Fore
SplineSet
95 1370 m 1,0,-1
 95 573 l 1,1,-1
 1087 573 l 1,2,3
 1148 574 1148 574 1190 535 c 1,4,5
 1236 496 1236 496 1233 441 c 1,6,7
 1236 385 1236 385 1190 346 c 1,8,9
 1148 307 1148 307 1087 307 c 2,10,-1
 90 307 l 1,11,-1
 90 0 l 1,12,-1
 1121 0 l 2,13,14
 1322 0 1322 0 1464 129 c 256,15,16
 1606 258 1606 258 1606 441 c 256,17,18
 1606 624 1606 624 1464 753 c 256,19,20
 1322 882 1322 882 1121 882 c 2,21,-1
 469 882 l 1,22,-1
 469 1065 l 1,23,24
 673 1065 673 1065 1035 1065 c 0,25,26
 1398 1066 1398 1066 1517 1066 c 1,27,-1
 1517 1370 l 1,28,-1
 95 1370 l 1,0,-1
EndSplineSet
EndChar

StartChar: six
Encoding: 54 54 35
Width: 1808
Flags: W
LayerCount: 2
Fore
SplineSet
555 1368 m 1,0,1
 362 1371 362 1371 226 1248 c 1,2,3
 90 1128 90 1128 90 968 c 2,4,-1
 90 416 l 2,5,6
 90 245 90 245 223 122 c 1,7,8
 358 0 358 0 548 0 c 2,9,-1
 1258 0 l 2,10,11
 1450 0 1450 0 1582 122 c 0,12,13
 1716 245 1716 245 1716 416 c 1,14,15
 1718 588 1718 588 1583 710 c 1,16,17
 1450 832 1450 832 1258 832 c 2,18,-1
 464 832 l 1,19,-1
 464 970 l 2,20,21
 464 1010 464 1010 494 1037 c 1,22,23
 527 1065 527 1065 569 1065 c 0,24,25
 1240 1063 1240 1063 1608 1063 c 1,26,-1
 1608 1368 l 1,27,-1
 555 1368 l 1,0,1
462 528 m 1,28,-1
 1219 528 l 2,29,30
 1276 528 1276 528 1308 497 c 1,31,32
 1342 467 1342 467 1342 416 c 0,33,34
 1342 366 1342 366 1309 335 c 256,35,36
 1276 304 1276 304 1219 304 c 2,37,-1
 586 304 l 2,38,39
 530 304 530 304 496 334 c 1,40,41
 462 367 462 367 462 415 c 2,42,-1
 462 528 l 1,28,-1
EndSplineSet
EndChar

StartChar: seven
Encoding: 55 55 36
Width: 1770
Flags: W
LayerCount: 2
Fore
SplineSet
90 1370 m 1,0,-1
 90 1065 l 1,1,-1
 1158 1065 l 1,2,-1
 320 0 l 1,3,-1
 790 0 l 1,4,-1
 1680 1136 l 1,5,-1
 1680 1370 l 1,6,-1
 90 1370 l 1,0,-1
EndSplineSet
EndChar

StartChar: eight
Encoding: 56 56 37
Width: 1804
Flags: W
LayerCount: 2
Fore
SplineSet
568 1370 m 1,0,1
 394 1372 394 1372 270 1258 c 1,2,3
 146 1146 146 1146 146 986 c 0,4,5
 146 902 146 902 184 827 c 0,6,7
 223 752 223 752 289 698 c 1,8,9
 198 648 198 648 144 562 c 0,10,11
 90 475 90 475 90 373 c 0,12,13
 90 220 90 220 206 109 c 1,14,15
 322 0 322 0 486 0 c 2,16,-1
 1318 0 l 2,17,18
 1483 0 1483 0 1597 109 c 0,19,20
 1714 220 1714 220 1714 373 c 0,21,22
 1714 474 1714 474 1660 561 c 256,23,24
 1606 648 1606 648 1514 698 c 1,25,26
 1583 752 1583 752 1619 827 c 1,27,28
 1658 902 1658 902 1657 986 c 1,29,30
 1658 1146 1658 1146 1534 1257 c 1,31,32
 1412 1370 1412 1370 1235 1370 c 2,33,-1
 568 1370 l 1,0,1
652 1062 m 2,34,-1
 1151 1062 l 2,35,36
 1206 1062 1206 1062 1244 1027 c 0,37,38
 1283 992 1283 992 1283 941 c 1,39,40
 1284 892 1284 892 1245 856 c 1,41,42
 1206 824 1206 824 1151 821 c 1,43,-1
 652 821 l 1,44,45
 598 824 598 824 559 856 c 1,46,47
 520 892 520 892 520 941 c 0,48,49
 520 992 520 992 558 1026 c 0,50,51
 598 1062 598 1062 652 1062 c 2,34,-1
603 562 m 2,52,-1
 1201 562 l 2,53,54
 1261 562 1261 562 1300 525 c 1,55,56
 1342 489 1342 489 1341 435 c 1,57,58
 1342 384 1342 384 1300 345 c 1,59,60
 1261 307 1261 307 1201 307 c 2,61,-1
 603 307 l 1,62,63
 546 306 546 306 504 344 c 1,64,65
 466 384 466 384 463 435 c 1,66,67
 464 489 464 489 503 525 c 1,68,69
 546 562 546 562 603 562 c 2,52,-1
EndSplineSet
EndChar

StartChar: nine
Encoding: 57 57 38
Width: 1808
Flags: W
LayerCount: 2
Fore
SplineSet
1251 0 m 2,0,1
 1446 0 1446 0 1580 120 c 0,2,3
 1716 242 1716 242 1716 400 c 2,4,-1
 1716 952 l 1,5,6
 1718 1124 1718 1124 1583 1246 c 1,7,8
 1450 1368 1450 1368 1258 1368 c 2,9,-1
 548 1368 l 2,10,11
 359 1368 359 1368 224 1246 c 0,12,13
 90 1124 90 1124 90 952 c 0,14,15
 90 781 90 781 223 658 c 1,16,17
 358 536 358 536 548 536 c 2,18,-1
 1342 536 l 1,19,-1
 1342 398 l 1,20,21
 1345 359 1345 359 1312 331 c 1,22,23
 1282 304 1282 304 1237 303 c 1,24,25
 568 306 568 306 198 305 c 1,26,-1
 198 0 l 1,27,-1
 1251 0 l 2,0,1
1344 840 m 1,28,-1
 587 840 l 2,29,30
 532 840 532 840 498 871 c 256,31,32
 464 902 464 902 464 952 c 0,33,34
 464 1003 464 1003 497 1033 c 0,35,36
 531 1064 531 1064 587 1064 c 2,37,-1
 1220 1064 l 1,38,39
 1277 1067 1277 1067 1310 1034 c 1,40,41
 1344 1004 1344 1004 1344 953 c 2,42,-1
 1344 840 l 1,28,-1
EndSplineSet
EndChar

StartChar: Alpha
Encoding: 913 913 39
Width: 2292
Flags: W
LayerCount: 2
Fore
SplineSet
960 1370 m 1,0,-1
 90 0 l 1,1,-1
 492 0 l 1,2,-1
 683 300 l 1,3,-1
 1610 300 l 1,4,-1
 1799 0 l 1,5,-1
 2202 0 l 1,6,-1
 1332 1370 l 1,7,-1
 960 1370 l 1,0,-1
1147 1030 m 1,8,-1
 1425 590 l 1,9,-1
 867 590 l 1,10,-1
 1147 1030 l 1,8,-1
EndSplineSet
EndChar

StartChar: Acyrillic
Encoding: 1040 1040 40
Width: 2292
Flags: W
LayerCount: 2
Fore
SplineSet
960 1370 m 1,0,-1
 90 0 l 1,1,-1
 492 0 l 1,2,-1
 683 300 l 1,3,-1
 1610 300 l 1,4,-1
 1799 0 l 1,5,-1
 2202 0 l 1,6,-1
 1332 1370 l 1,7,-1
 960 1370 l 1,0,-1
1147 1030 m 1,8,-1
 1425 590 l 1,9,-1
 867 590 l 1,10,-1
 1147 1030 l 1,8,-1
EndSplineSet
EndChar

StartChar: afii10019
Encoding: 1042 1042 41
Width: 2033
Flags: W
LayerCount: 2
Fore
SplineSet
90 1370 m 1,0,-1
 90 0 l 1,1,-1
 1522 0 l 2,2,3
 1698 0 1698 0 1820 111 c 0,4,5
 1943 224 1943 224 1943 383 c 0,6,7
 1943 490 1943 490 1883 580 c 256,8,9
 1823 670 1823 670 1723 720 c 1,10,11
 1786 772 1786 772 1821 843 c 0,12,13
 1857 915 1857 915 1857 995 c 1,14,15
 1860 1150 1860 1150 1737 1260 c 1,16,17
 1616 1370 1616 1370 1445 1370 c 2,18,-1
 90 1370 l 1,0,-1
464 1079 m 1,19,-1
 1324 1079 l 2,20,21
 1384 1079 1384 1079 1426 1040 c 1,22,23
 1472 1002 1472 1002 1469 945 c 1,24,25
 1472 890 1472 890 1427 851 c 1,26,27
 1384 812 1384 812 1324 812 c 2,28,-1
 464 812 l 1,29,-1
 464 1079 l 1,19,-1
464 557 m 1,30,-1
 1417 557 l 1,31,32
 1478 558 1478 558 1520 519 c 256,33,34
 1562 480 1562 480 1562 424 c 256,35,36
 1562 368 1562 368 1520 329 c 256,37,38
 1478 290 1478 290 1417 290 c 2,39,-1
 464 290 l 1,40,-1
 464 557 l 1,30,-1
EndSplineSet
EndChar

StartChar: Beta
Encoding: 914 914 42
Width: 2033
Flags: W
LayerCount: 2
Fore
SplineSet
90 1370 m 1,0,-1
 90 0 l 1,1,-1
 1522 0 l 2,2,3
 1698 0 1698 0 1820 111 c 0,4,5
 1943 224 1943 224 1943 383 c 0,6,7
 1943 490 1943 490 1883 580 c 256,8,9
 1823 670 1823 670 1723 720 c 1,10,11
 1786 772 1786 772 1821 843 c 0,12,13
 1857 915 1857 915 1857 995 c 1,14,15
 1860 1150 1860 1150 1737 1260 c 1,16,17
 1616 1370 1616 1370 1445 1370 c 2,18,-1
 90 1370 l 1,0,-1
465 1079 m 1,19,-1
 1324 1079 l 2,20,21
 1384 1079 1384 1079 1426 1040 c 1,22,23
 1472 1002 1472 1002 1469 945 c 1,24,25
 1472 890 1472 890 1427 851 c 1,26,27
 1384 812 1384 812 1324 812 c 2,28,-1
 465 812 l 1,29,-1
 465 1079 l 1,19,-1
465 557 m 1,30,-1
 1417 557 l 1,31,32
 1478 558 1478 558 1520 519 c 256,33,34
 1562 480 1562 480 1562 424 c 256,35,36
 1562 368 1562 368 1520 329 c 256,37,38
 1478 290 1478 290 1417 290 c 2,39,-1
 465 290 l 1,40,-1
 465 557 l 1,30,-1
EndSplineSet
EndChar

StartChar: Gamma
Encoding: 915 915 43
Width: 1801
Flags: W
LayerCount: 2
Fore
SplineSet
90 1370 m 1,0,-1
 90 0 l 1,1,-1
 464 0 l 1,2,-1
 464 1065 l 1,3,-1
 1711 1065 l 1,4,-1
 1711 1370 l 1,5,-1
 90 1370 l 1,0,-1
EndSplineSet
EndChar

StartChar: afii10020
Encoding: 1043 1043 44
Width: 1802
Flags: W
LayerCount: 2
Fore
SplineSet
90 1370 m 1,0,-1
 90 0 l 1,1,-1
 464 0 l 1,2,-1
 464 1065 l 1,3,-1
 1712 1065 l 1,4,-1
 1712 1370 l 1,5,-1
 90 1370 l 1,0,-1
EndSplineSet
EndChar

StartChar: Epsilon
Encoding: 917 917 45
Width: 1872
Flags: W
LayerCount: 2
Fore
SplineSet
90 1370 m 1,0,-1
 90 0 l 1,1,-1
 1782 0 l 1,2,-1
 1782 305 l 1,3,-1
 465 305 l 1,4,-1
 465 541 l 1,5,-1
 1606 541 l 1,6,-1
 1606 841 l 1,7,-1
 465 841 l 1,8,-1
 465 1065 l 1,9,-1
 1782 1065 l 1,10,-1
 1782 1370 l 1,11,-1
 90 1370 l 1,0,-1
EndSplineSet
EndChar

StartChar: afii10022
Encoding: 1045 1045 46
Width: 1871
Flags: W
LayerCount: 2
Fore
SplineSet
90 1370 m 1,0,-1
 90 0 l 1,1,-1
 1781 0 l 1,2,-1
 1781 305 l 1,3,-1
 464 305 l 1,4,-1
 464 541 l 1,5,-1
 1605 541 l 1,6,-1
 1605 841 l 1,7,-1
 464 841 l 1,8,-1
 464 1065 l 1,9,-1
 1781 1065 l 1,10,-1
 1781 1370 l 1,11,-1
 90 1370 l 1,0,-1
EndSplineSet
EndChar

StartChar: Eta
Encoding: 919 919 47
Width: 2035
Flags: W
LayerCount: 2
Fore
SplineSet
90 1370 m 1,0,-1
 90 0 l 1,1,-1
 464 0 l 1,2,-1
 464 552 l 1,3,-1
 1571 552 l 1,4,-1
 1571 0 l 1,5,-1
 1945 0 l 1,6,-1
 1945 1370 l 1,7,-1
 1571 1370 l 1,8,-1
 1571 857 l 1,9,-1
 464 857 l 1,10,-1
 464 1370 l 1,11,-1
 90 1370 l 1,0,-1
90 1370 m 1,12,-1
 90 0 l 1,13,-1
 464 0 l 1,14,-1
 464 552 l 1,15,-1
 1571 552 l 1,16,-1
 1571 0 l 1,17,-1
 1945 0 l 1,18,-1
 1945 1370 l 1,19,-1
 1571 1370 l 1,20,-1
 1571 857 l 1,21,-1
 464 857 l 1,22,-1
 464 1370 l 1,23,-1
 90 1370 l 1,12,-1
EndSplineSet
EndChar

StartChar: afii10031
Encoding: 1053 1053 48
Width: 2035
Flags: W
LayerCount: 2
Fore
SplineSet
90 1370 m 1,0,-1
 90 0 l 1,1,-1
 464 0 l 1,2,-1
 464 552 l 1,3,-1
 1571 552 l 1,4,-1
 1571 0 l 1,5,-1
 1945 0 l 1,6,-1
 1945 1370 l 1,7,-1
 1571 1370 l 1,8,-1
 1571 857 l 1,9,-1
 464 857 l 1,10,-1
 464 1370 l 1,11,-1
 90 1370 l 1,0,-1
EndSplineSet
EndChar

StartChar: Zeta
Encoding: 918 918 49
Width: 2050
Flags: W
LayerCount: 2
Fore
SplineSet
137 1370 m 1,0,-1
 137 1065 l 1,1,-1
 1303 1065 l 1,2,-1
 90 248 l 1,3,-1
 90 0 l 1,4,-1
 1960 0 l 1,5,-1
 1960 305 l 1,6,-1
 705 305 l 1,7,-1
 1912 1121 l 1,8,-1
 1912 1370 l 1,9,-1
 137 1370 l 1,0,-1
EndSplineSet
EndChar

StartChar: Iota
Encoding: 921 921 50
Width: 554
Flags: W
LayerCount: 2
Fore
SplineSet
90 1370 m 1,0,-1
 90 0 l 1,1,-1
 464 0 l 1,2,-1
 464 1370 l 1,3,-1
 90 1370 l 1,0,-1
EndSplineSet
EndChar

StartChar: Kappa
Encoding: 922 922 51
Width: 2158
Flags: W
LayerCount: 2
Fore
SplineSet
90 1370 m 1,0,-1
 90 0 l 1,1,-1
 464 0 l 1,2,-1
 464 670 l 1,3,-1
 1453 0 l 1,4,-1
 2068 0 l 1,5,-1
 945 727 l 1,6,-1
 1992 1370 l 1,7,-1
 1377 1370 l 1,8,-1
 464 782 l 1,9,-1
 464 1370 l 1,10,-1
 90 1370 l 1,0,-1
EndSplineSet
EndChar

StartChar: Mu
Encoding: 924 924 52
Width: 2364
Flags: W
LayerCount: 2
Fore
SplineSet
2274 1370 m 1,0,-1
 2274 0 l 1,1,-1
 1900 0 l 1,2,-1
 1900 868 l 1,3,-1
 1342 123 l 1,4,-1
 1021 123 l 1,5,-1
 464 868 l 1,6,-1
 464 0 l 1,7,-1
 90 0 l 1,8,-1
 90 1370 l 1,9,-1
 478 1370 l 1,10,-1
 1182 410 l 1,11,-1
 1886 1370 l 1,12,-1
 2274 1370 l 1,0,-1
EndSplineSet
EndChar

StartChar: afii10030
Encoding: 1052 1052 53
Width: 2364
Flags: W
LayerCount: 2
Fore
SplineSet
2274 1370 m 1,0,-1
 2274 0 l 1,1,-1
 1900 0 l 1,2,-1
 1900 868 l 1,3,-1
 1342 123 l 1,4,-1
 1021 123 l 1,5,-1
 464 868 l 1,6,-1
 464 0 l 1,7,-1
 90 0 l 1,8,-1
 90 1370 l 1,9,-1
 478 1370 l 1,10,-1
 1182 410 l 1,11,-1
 1886 1370 l 1,12,-1
 2274 1370 l 1,0,-1
EndSplineSet
EndChar

StartChar: Nu
Encoding: 925 925 54
Width: 2114
Flags: W
LayerCount: 2
Fore
SplineSet
90 1370 m 1,0,-1
 90 0 l 1,1,-1
 464 0 l 1,2,-1
 464 961 l 1,3,-1
 1649 0 l 1,4,-1
 2024 0 l 1,5,-1
 2024 1370 l 1,6,-1
 1649 1370 l 1,7,-1
 1649 408 l 1,8,-1
 464 1370 l 1,9,-1
 90 1370 l 1,0,-1
EndSplineSet
EndChar

StartChar: afii10026
Encoding: 1048 1048 55
Width: 2114
Flags: W
LayerCount: 2
Fore
SplineSet
90 0 m 1,0,-1
 90 1370 l 1,1,-1
 464 1370 l 1,2,-1
 464 409 l 1,3,-1
 1649 1370 l 1,4,-1
 2024 1370 l 1,5,-1
 2024 0 l 1,6,-1
 1649 0 l 1,7,-1
 1649 962 l 1,8,-1
 464 0 l 1,9,-1
 90 0 l 1,0,-1
EndSplineSet
EndChar

StartChar: Omicron
Encoding: 927 927 56
Width: 2132
Flags: W
LayerCount: 2
Fore
SplineSet
530 1370 m 2,0,1
 348 1370 348 1370 219 1253 c 256,2,3
 90 1136 90 1136 90 970 c 2,4,-1
 90 400 l 2,5,6
 90 234 90 234 218 117 c 0,7,8
 347 0 347 0 530 0 c 2,9,-1
 1602 0 l 2,10,11
 1784 0 1784 0 1913 117 c 256,12,13
 2042 234 2042 234 2042 400 c 2,14,-1
 2042 970 l 2,15,16
 2042 1136 2042 1136 1914 1253 c 0,17,18
 1785 1370 1785 1370 1602 1370 c 2,19,-1
 530 1370 l 2,0,1
640 1065 m 1,20,-1
 1492 1065 l 1,21,22
 1566 1068 1566 1068 1616 1019 c 1,23,24
 1668 974 1668 974 1668 905 c 2,25,-1
 1668 465 l 2,26,27
 1668 400 1668 400 1617 352 c 1,28,29
 1566 308 1566 308 1492 305 c 1,30,-1
 640 305 l 1,31,32
 568 306 568 306 516 351 c 1,33,34
 464 399 464 399 464 465 c 2,35,-1
 464 905 l 2,36,37
 464 974 464 974 515 1018 c 1,38,39
 568 1066 568 1066 640 1065 c 1,20,-1
EndSplineSet
EndChar

StartChar: Rho
Encoding: 929 929 57
Width: 2050
Flags: W
LayerCount: 2
Fore
SplineSet
90 1370 m 1,0,-1
 90 0 l 1,1,-1
 464 0 l 1,2,-1
 464 428 l 1,3,-1
 1442 428 l 2,4,5
 1582 428 1582 428 1702 490 c 0,6,7
 1822 553 1822 553 1891 661 c 0,8,9
 1960 770 1960 770 1960 898 c 0,10,11
 1960 1027 1960 1027 1891 1135 c 0,12,13
 1822 1244 1822 1244 1703 1307 c 0,14,15
 1583 1370 1583 1370 1442 1370 c 2,16,-1
 90 1370 l 1,0,-1
464 1065 m 1,17,-1
 1407 1065 l 1,18,19
 1488 1066 1488 1066 1539 1018 c 1,20,21
 1592 973 1592 973 1592 898 c 1,22,23
 1594 826 1594 826 1540 778 c 1,24,25
 1488 734 1488 734 1407 731 c 1,26,-1
 464 731 l 1,27,-1
 464 1065 l 1,17,-1
EndSplineSet
EndChar

StartChar: afii10034
Encoding: 1056 1056 58
Width: 2050
Flags: W
LayerCount: 2
Fore
SplineSet
90 1370 m 1,0,-1
 90 0 l 1,1,-1
 464 0 l 1,2,-1
 464 428 l 1,3,-1
 1442 428 l 2,4,5
 1584 428 1584 428 1702 490 c 0,6,7
 1822 553 1822 553 1890 661 c 1,8,9
 1960 770 1960 770 1960 898 c 0,10,11
 1960 1027 1960 1027 1891 1135 c 0,12,13
 1822 1244 1822 1244 1702 1307 c 0,14,15
 1584 1370 1584 1370 1442 1370 c 2,16,-1
 90 1370 l 1,0,-1
464 1065 m 1,17,-1
 1407 1065 l 1,18,19
 1488 1066 1488 1066 1539 1018 c 1,20,21
 1592 973 1592 973 1592 898 c 1,22,23
 1594 826 1594 826 1540 778 c 1,24,25
 1488 734 1488 734 1407 731 c 1,26,-1
 464 731 l 1,27,-1
 464 1065 l 1,17,-1
EndSplineSet
EndChar

StartChar: Tau
Encoding: 932 932 59
Width: 1973
Flags: W
LayerCount: 2
Fore
SplineSet
90 1370 m 1,0,-1
 90 1065 l 1,1,-1
 800 1065 l 1,2,-1
 800 0 l 1,3,-1
 1174 0 l 1,4,-1
 1174 1065 l 1,5,-1
 1883 1065 l 1,6,-1
 1883 1370 l 1,7,-1
 90 1370 l 1,0,-1
EndSplineSet
EndChar

StartChar: afii10036
Encoding: 1058 1058 60
Width: 1973
Flags: W
LayerCount: 2
Fore
SplineSet
90 1370 m 1,0,-1
 90 1065 l 1,1,-1
 800 1065 l 1,2,-1
 800 0 l 1,3,-1
 1174 0 l 1,4,-1
 1174 1065 l 1,5,-1
 1883 1065 l 1,6,-1
 1883 1370 l 1,7,-1
 90 1370 l 1,0,-1
EndSplineSet
EndChar

StartChar: Upsilon
Encoding: 933 933 61
Width: 2446
Flags: W
LayerCount: 2
Fore
SplineSet
90 1370 m 1,0,-1
 1036 496 l 1,1,-1
 1036 0 l 1,2,-1
 1410 0 l 1,3,-1
 1410 496 l 1,4,-1
 2356 1370 l 1,5,-1
 1804 1370 l 1,6,-1
 1223 793 l 1,7,-1
 642 1370 l 1,8,-1
 90 1370 l 1,0,-1
EndSplineSet
EndChar

StartChar: Chi
Encoding: 935 935 62
Width: 2618
Flags: W
LayerCount: 2
Fore
SplineSet
165 1370 m 1,0,-1
 1017 713 l 1,1,-1
 90 0 l 1,2,-1
 665 0 l 1,3,-1
 1308 519 l 1,4,-1
 1954 0 l 1,5,-1
 2528 0 l 1,6,-1
 1602 713 l 1,7,-1
 2453 1370 l 1,8,-1
 1878 1370 l 1,9,-1
 1308 907 l 1,10,-1
 741 1370 l 1,11,-1
 165 1370 l 1,0,-1
EndSplineSet
EndChar

StartChar: afii10039
Encoding: 1061 1061 63
Width: 2618
Flags: W
LayerCount: 2
Fore
SplineSet
165 1370 m 1,0,-1
 1017 713 l 1,1,-1
 90 0 l 1,2,-1
 665 0 l 1,3,-1
 1308 519 l 1,4,-1
 1954 0 l 1,5,-1
 2528 0 l 1,6,-1
 1602 713 l 1,7,-1
 2453 1370 l 1,8,-1
 1878 1370 l 1,9,-1
 1308 907 l 1,10,-1
 741 1370 l 1,11,-1
 165 1370 l 1,0,-1
EndSplineSet
EndChar

StartChar: Lambda
Encoding: 923 923 64
Width: 2277
Flags: W
LayerCount: 2
Fore
SplineSet
922 1370 m 1,0,-1
 90 0 l 1,1,-1
 524 0 l 1,2,-1
 1140 1030 l 1,3,-1
 1754 0 l 1,4,-1
 2187 0 l 1,5,-1
 1356 1370 l 1,6,-1
 922 1370 l 1,0,-1
EndSplineSet
EndChar

StartChar: Deltagreek
Encoding: 916 916 65
Width: 2274
Flags: W
LayerCount: 2
Fore
SplineSet
919 1370 m 1,0,-1
 90 0 l 1,1,-1
 2184 0 l 1,2,-1
 1353 1370 l 1,3,-1
 919 1370 l 1,0,-1
1137 1030 m 1,4,-1
 1570 305 l 1,5,-1
 704 305 l 1,6,-1
 1137 1030 l 1,4,-1
EndSplineSet
EndChar

StartChar: Theta
Encoding: 920 920 66
Width: 2132
Flags: W
LayerCount: 2
Fore
SplineSet
530 1370 m 2,0,1
 347 1370 347 1370 218 1253 c 0,2,3
 90 1136 90 1136 90 970 c 2,4,-1
 90 400 l 2,5,6
 90 234 90 234 218 117 c 0,7,8
 347 0 347 0 530 0 c 2,9,-1
 1601 0 l 2,10,11
 1785 0 1785 0 1913 117 c 0,12,13
 2042 234 2042 234 2041 400 c 1,14,-1
 2041 970 l 1,15,16
 2042 1136 2042 1136 1913 1253 c 0,17,18
 1785 1370 1785 1370 1601 1370 c 2,19,-1
 530 1370 l 2,0,1
640 1065 m 1,20,-1
 1491 1065 l 1,21,22
 1566 1068 1566 1068 1616 1019 c 1,23,24
 1667 974 1667 974 1667 905 c 2,25,-1
 1667 465 l 2,26,27
 1667 400 1667 400 1616 352 c 1,28,29
 1566 308 1566 308 1491 305 c 1,30,-1
 640 305 l 1,31,32
 566 306 566 306 515 351 c 1,33,34
 464 399 464 399 464 465 c 2,35,-1
 464 905 l 2,36,37
 464 974 464 974 515 1018 c 1,38,39
 566 1066 566 1066 640 1065 c 1,20,-1
651 835 m 1,40,-1
 651 535 l 1,41,-1
 1480 535 l 1,42,-1
 1480 835 l 1,43,-1
 651 835 l 1,40,-1
EndSplineSet
EndChar

StartChar: Xi
Encoding: 926 926 67
Width: 1960
Flags: W
LayerCount: 2
Fore
SplineSet
90 1370 m 1,0,-1
 90 1065 l 1,1,-1
 1870 1065 l 1,2,-1
 1870 1370 l 1,3,-1
 90 1370 l 1,0,-1
521 837 m 1,4,-1
 521 532 l 1,5,-1
 1438 532 l 1,6,-1
 1438 837 l 1,7,-1
 521 837 l 1,4,-1
90 305 m 1,8,-1
 90 0 l 1,9,-1
 1870 0 l 1,10,-1
 1870 305 l 1,11,-1
 90 305 l 1,8,-1
EndSplineSet
EndChar

StartChar: Pi
Encoding: 928 928 68
Width: 2039
Flags: W
LayerCount: 2
Fore
SplineSet
90 1370 m 1,0,-1
 90 0 l 1,1,-1
 464 0 l 1,2,-1
 464 1065 l 1,3,-1
 1575 1065 l 1,4,-1
 1575 0 l 1,5,-1
 1949 0 l 1,6,-1
 1949 1370 l 1,7,-1
 90 1370 l 1,0,-1
EndSplineSet
EndChar

StartChar: Sigma
Encoding: 931 931 69
Width: 1955
Flags: W
LayerCount: 2
Fore
SplineSet
105 1370 m 1,0,-1
 105 1121 l 1,1,-1
 740 697 l 1,2,-1
 90 248 l 1,3,-1
 90 0 l 1,4,-1
 1865 0 l 1,5,-1
 1865 305 l 1,6,-1
 699 305 l 1,7,-1
 1269 697 l 1,8,-1
 715 1065 l 1,9,-1
 1850 1065 l 1,10,-1
 1850 1370 l 1,11,-1
 105 1370 l 1,0,-1
EndSplineSet
EndChar

StartChar: Phi
Encoding: 934 934 70
Width: 2134
Flags: W
LayerCount: 2
Fore
SplineSet
878 1370 m 1,0,-1
 878 1223 l 1,1,-1
 683 1223 l 2,2,3
 521 1223 521 1223 385 1151 c 0,4,5
 250 1080 250 1080 170 956 c 256,6,7
 90 832 90 832 90 685 c 0,8,9
 90 576 90 576 137 476 c 1,10,11
 185 378 185 378 263 304 c 1,12,13
 344 232 344 232 452 189 c 1,14,15
 563 146 563 146 683 146 c 2,16,-1
 878 146 l 1,17,-1
 878 0 l 1,18,-1
 1252 0 l 1,19,-1
 1252 146 l 1,20,-1
 1449 146 l 2,21,22
 1572 146 1572 146 1679 188 c 1,23,24
 1790 234 1790 234 1868 303 c 0,25,26
 1950 376 1950 376 1995 475 c 1,27,28
 2042 575 2042 575 2042 685 c 1,29,30
 2044 832 2044 832 1963 955 c 1,31,32
 1885 1079 1885 1079 1747 1151 c 1,33,34
 1612 1223 1612 1223 1449 1223 c 2,35,-1
 1252 1223 l 1,36,-1
 1252 1370 l 1,37,-1
 878 1370 l 1,0,-1
656 920 m 1,38,-1
 683 920 l 1,39,-1
 878 920 l 1,40,-1
 878 450 l 1,41,-1
 683 450 l 2,42,43
 574 450 574 450 499 517 c 1,44,45
 425 586 425 586 425 685 c 1,46,47
 426 780 426 780 489 846 c 1,48,49
 554 912 554 912 656 920 c 1,38,-1
1252 920 m 1,50,-1
 1449 920 l 2,51,52
 1560 920 1560 920 1633 853 c 1,53,54
 1708 787 1708 787 1707 685 c 1,55,56
 1710 586 1710 586 1634 517 c 0,57,58
 1560 450 1560 450 1449 450 c 2,59,-1
 1252 450 l 1,60,-1
 1252 920 l 1,50,-1
EndSplineSet
EndChar

StartChar: Psi
Encoding: 936 936 71
Width: 2044
Flags: W
LayerCount: 2
Fore
SplineSet
90 1370 m 1,0,-1
 90 605 l 2,1,2
 90 440 90 440 218 322 c 1,3,4
 347 205 347 205 530 205 c 2,5,-1
 836 205 l 1,6,-1
 836 0 l 1,7,-1
 1210 0 l 1,8,-1
 1210 205 l 1,9,-1
 1513 205 l 1,10,11
 1697 204 1697 204 1825 321 c 0,12,13
 1954 438 1954 438 1953 605 c 1,14,-1
 1953 1370 l 1,15,-1
 1579 1370 l 1,16,-1
 1579 670 l 2,17,18
 1579 604 1579 604 1528 557 c 0,19,20
 1478 510 1478 510 1403 510 c 2,21,-1
 1210 510 l 1,22,-1
 1210 1370 l 1,23,-1
 836 1370 l 1,24,-1
 836 510 l 1,25,-1
 640 510 l 2,26,27
 566 510 566 510 515 556 c 1,28,29
 464 604 464 604 464 670 c 2,30,-1
 464 1370 l 1,31,-1
 90 1370 l 1,0,-1
EndSplineSet
EndChar

StartChar: Omega
Encoding: 937 937 72
Width: 2351
Flags: W
LayerCount: 2
Fore
SplineSet
695 1370 m 2,0,1
 512 1370 512 1370 383 1253 c 0,2,3
 255 1136 255 1136 255 970 c 2,4,-1
 255 485 l 2,5,6
 255 365 255 365 335 305 c 1,7,-1
 90 305 l 1,8,-1
 90 0 l 1,9,-1
 988 0 l 1,10,-1
 988 305 l 1,11,-1
 805 305 l 1,12,13
 731 306 731 306 680 351 c 1,14,15
 629 399 629 399 629 465 c 2,16,-1
 629 905 l 2,17,18
 629 974 629 974 680 1018 c 1,19,20
 731 1066 731 1066 805 1065 c 1,21,-1
 1546 1065 l 1,22,23
 1620 1068 1620 1068 1671 1019 c 1,24,25
 1722 974 1722 974 1722 905 c 2,26,-1
 1722 465 l 2,27,28
 1722 400 1722 400 1671 352 c 1,29,30
 1620 308 1620 308 1546 305 c 1,31,-1
 1362 305 l 1,32,-1
 1362 0 l 1,33,-1
 2261 0 l 1,34,-1
 2261 305 l 1,35,-1
 2019 305 l 1,36,37
 2096 368 2096 368 2096 485 c 2,38,-1
 2096 970 l 2,39,40
 2096 1136 2096 1136 1968 1253 c 256,41,42
 1840 1370 1840 1370 1656 1370 c 2,43,-1
 1176 1370 l 1,44,-1
 695 1370 l 2,0,1
EndSplineSet
EndChar

StartChar: afii10028
Encoding: 1050 1050 73
Width: 2158
Flags: W
LayerCount: 2
Fore
SplineSet
90 1370 m 1,0,-1
 90 0 l 1,1,-1
 464 0 l 1,2,-1
 464 670 l 1,3,-1
 1453 0 l 1,4,-1
 2068 0 l 1,5,-1
 945 727 l 1,6,-1
 1992 1370 l 1,7,-1
 1377 1370 l 1,8,-1
 464 782 l 1,9,-1
 464 1370 l 1,10,-1
 90 1370 l 1,0,-1
EndSplineSet
EndChar

StartChar: afii10032
Encoding: 1054 1054 74
Width: 2132
Flags: W
LayerCount: 2
Fore
SplineSet
530 1370 m 2,0,1
 348 1370 348 1370 219 1253 c 256,2,3
 90 1136 90 1136 90 970 c 2,4,-1
 90 400 l 2,5,6
 90 234 90 234 218 117 c 0,7,8
 347 0 347 0 530 0 c 2,9,-1
 1602 0 l 2,10,11
 1784 0 1784 0 1913 117 c 256,12,13
 2042 234 2042 234 2042 400 c 2,14,-1
 2042 970 l 2,15,16
 2042 1136 2042 1136 1914 1253 c 0,17,18
 1785 1370 1785 1370 1602 1370 c 2,19,-1
 530 1370 l 2,0,1
640 1065 m 1,20,-1
 1492 1065 l 1,21,22
 1566 1068 1566 1068 1616 1019 c 1,23,24
 1668 974 1668 974 1668 905 c 2,25,-1
 1668 465 l 2,26,27
 1668 400 1668 400 1617 352 c 1,28,29
 1566 308 1566 308 1492 305 c 1,30,-1
 640 305 l 1,31,32
 568 306 568 306 516 351 c 1,33,34
 464 399 464 399 464 465 c 2,35,-1
 464 905 l 2,36,37
 464 974 464 974 515 1018 c 1,38,39
 568 1066 568 1066 640 1065 c 1,20,-1
EndSplineSet
EndChar

StartChar: afii10035
Encoding: 1057 1057 75
Width: 2102
Flags: W
LayerCount: 2
Fore
SplineSet
530 1370 m 2,0,1
 348 1370 348 1370 219 1253 c 256,2,3
 90 1136 90 1136 90 970 c 2,4,-1
 90 400 l 2,5,6
 90 234 90 234 218 117 c 0,7,8
 347 0 347 0 530 0 c 2,9,-1
 1571 0 l 2,10,11
 1755 0 1755 0 1883 117 c 0,12,13
 2012 234 2012 234 2011 400 c 1,14,-1
 2011 486 l 1,15,-1
 1637 486 l 1,16,-1
 1637 465 l 2,17,18
 1637 400 1637 400 1586 352 c 1,19,20
 1536 308 1536 308 1461 305 c 1,21,-1
 640 305 l 1,22,23
 568 306 568 306 516 351 c 1,24,25
 464 399 464 399 464 465 c 2,26,-1
 464 905 l 2,27,28
 464 974 464 974 515 1018 c 1,29,30
 568 1066 568 1066 640 1065 c 1,31,-1
 1461 1065 l 1,32,33
 1536 1068 1536 1068 1586 1019 c 1,34,35
 1637 974 1637 974 1637 905 c 2,36,-1
 1637 882 l 1,37,-1
 2011 882 l 1,38,-1
 2011 970 l 1,39,40
 2012 1136 2012 1136 1883 1253 c 0,41,42
 1755 1370 1755 1370 1571 1370 c 2,43,-1
 530 1370 l 2,0,1
EndSplineSet
EndChar

StartChar: afii10038
Encoding: 1060 1060 76
Width: 2134
Flags: W
LayerCount: 2
Fore
SplineSet
878 1370 m 1,0,-1
 878 1223 l 1,1,-1
 683 1223 l 2,2,3
 521 1223 521 1223 385 1151 c 0,4,5
 250 1080 250 1080 170 956 c 256,6,7
 90 832 90 832 90 685 c 0,8,9
 90 576 90 576 137 476 c 1,10,11
 185 378 185 378 263 304 c 1,12,13
 344 232 344 232 452 189 c 1,14,15
 563 146 563 146 683 146 c 2,16,-1
 878 146 l 1,17,-1
 878 0 l 1,18,-1
 1252 0 l 1,19,-1
 1252 146 l 1,20,-1
 1449 146 l 2,21,22
 1572 146 1572 146 1679 188 c 1,23,24
 1790 234 1790 234 1868 303 c 0,25,26
 1950 376 1950 376 1995 475 c 1,27,28
 2042 575 2042 575 2042 685 c 1,29,30
 2044 832 2044 832 1963 955 c 1,31,32
 1885 1079 1885 1079 1747 1151 c 1,33,34
 1612 1223 1612 1223 1449 1223 c 2,35,-1
 1252 1223 l 1,36,-1
 1252 1370 l 1,37,-1
 878 1370 l 1,0,-1
656 920 m 1,38,-1
 683 920 l 1,39,-1
 878 920 l 1,40,-1
 878 450 l 1,41,-1
 683 450 l 2,42,43
 574 450 574 450 499 517 c 1,44,45
 425 586 425 586 425 685 c 1,46,47
 426 780 426 780 489 846 c 1,48,49
 554 912 554 912 656 920 c 1,38,-1
1252 920 m 1,50,-1
 1449 920 l 2,51,52
 1560 920 1560 920 1633 853 c 1,53,54
 1708 787 1708 787 1707 685 c 1,55,56
 1710 586 1710 586 1634 517 c 0,57,58
 1560 450 1560 450 1449 450 c 2,59,-1
 1252 450 l 1,60,-1
 1252 920 l 1,50,-1
EndSplineSet
EndChar

StartChar: afii10049
Encoding: 1071 1071 77
Width: 2026
Flags: W
LayerCount: 2
Fore
SplineSet
1936 1370 m 1,0,-1
 1936 0 l 1,1,-1
 1562 0 l 1,2,-1
 1562 497 l 1,3,-1
 937 497 l 1,4,-1
 525 0 l 1,5,-1
 90 0 l 1,6,-1
 536 502 l 1,7,8
 354 523 354 523 232 643 c 1,9,10
 110 766 110 766 110 933 c 0,11,12
 110 1114 110 1114 251 1242 c 256,13,14
 392 1370 392 1370 591 1370 c 2,15,-1
 1936 1370 l 1,0,-1
1562 1065 m 1,16,-1
 627 1065 l 1,17,18
 564 1068 564 1068 522 1028 c 0,19,20
 484 992 484 992 481 932 c 1,21,22
 484 875 484 875 522 836 c 1,23,24
 564 798 564 798 627 798 c 2,25,-1
 1562 799 l 1,26,-1
 1562 1065 l 1,16,-1
EndSplineSet
EndChar

StartChar: afii10033
Encoding: 1055 1055 78
Width: 2039
Flags: W
LayerCount: 2
Fore
SplineSet
90 1370 m 1,0,-1
 90 0 l 1,1,-1
 464 0 l 1,2,-1
 464 1065 l 1,3,-1
 1575 1065 l 1,4,-1
 1575 0 l 1,5,-1
 1949 0 l 1,6,-1
 1949 1370 l 1,7,-1
 90 1370 l 1,0,-1
EndSplineSet
EndChar

StartChar: afii10018
Encoding: 1041 1041 79
Width: 2050
Flags: W
LayerCount: 2
Fore
SplineSet
90 1370 m 1,0,-1
 90 0 l 1,1,-1
 1458 0 l 2,2,3
 1596 0 1596 0 1710 61 c 1,4,5
 1827 122 1827 122 1893 227 c 0,6,7
 1960 332 1960 332 1960 456 c 256,8,9
 1960 580 1960 580 1893 685 c 1,10,11
 1828 790 1828 790 1711 851 c 0,12,13
 1596 912 1596 912 1458 912 c 2,14,-1
 464 912 l 1,15,-1
 464 1065 l 1,16,-1
 1784 1065 l 1,17,-1
 1784 1370 l 1,18,-1
 90 1370 l 1,0,-1
464 610 m 1,19,-1
 1422 610 l 2,20,21
 1498 610 1498 610 1543 567 c 1,22,23
 1591 525 1591 525 1591 456 c 1,24,25
 1592 388 1592 388 1544 345 c 256,26,27
 1496 302 1496 302 1422 302 c 2,28,-1
 464 302 l 1,29,-1
 464 304 l 1,30,-1
 464 610 l 1,19,-1
EndSplineSet
EndChar

StartChar: afii10021
Encoding: 1044 1044 80
Width: 2216
Flags: W
LayerCount: 2
Fore
SplineSet
515 1370 m 1,0,-1
 277 305 l 1,1,-1
 90 305 l 1,2,-1
 90 -305 l 1,3,-1
 464 -305 l 1,4,-1
 464 0 l 1,5,-1
 1752 0 l 1,6,-1
 1752 -305 l 1,7,-1
 2126 -305 l 1,8,-1
 2126 305 l 1,9,-1
 1939 305 l 1,10,-1
 1939 1370 l 1,11,-1
 515 1370 l 1,0,-1
829 1065 m 1,12,-1
 1565 1065 l 1,13,-1
 1565 305 l 1,14,-1
 659 305 l 1,15,-1
 829 1065 l 1,12,-1
EndSplineSet
EndChar

StartChar: afii10024
Encoding: 1046 1046 81
Width: 3584
Flags: W
LayerCount: 2
Fore
SplineSet
165 1370 m 1,0,-1
 1125 727 l 1,1,-1
 90 0 l 1,2,-1
 704 0 l 1,3,-1
 1605 670 l 1,4,-1
 1605 0 l 1,5,-1
 1979 0 l 1,6,-1
 1979 670 l 1,7,-1
 2880 0 l 1,8,-1
 3494 0 l 1,9,-1
 2459 727 l 1,10,-1
 3419 1370 l 1,11,-1
 2804 1370 l 1,12,-1
 1979 782 l 1,13,-1
 1979 1370 l 1,14,-1
 1605 1370 l 1,15,-1
 1605 782 l 1,16,-1
 780 1370 l 1,17,-1
 165 1370 l 1,0,-1
EndSplineSet
EndChar

StartChar: afii10025
Encoding: 1047 1047 82
Width: 1804
Flags: W
LayerCount: 2
Fore
SplineSet
568 1370 m 1,0,1
 394 1372 394 1372 270 1258 c 1,2,3
 146 1146 146 1146 146 986 c 1,4,-1
 520 986 l 1,5,6
 535 1020 535 1020 568 1041 c 0,7,8
 602 1062 602 1062 641 1062 c 2,9,-1
 1153 1062 l 2,10,11
 1208 1062 1208 1062 1246 1027 c 0,12,13
 1285 992 1285 992 1285 941 c 1,14,15
 1286 892 1286 892 1247 856 c 1,16,17
 1208 824 1208 824 1153 821 c 1,18,-1
 725 821 l 1,19,-1
 725 562 l 1,20,-1
 1202 562 l 2,21,22
 1262 562 1262 562 1302 525 c 1,23,24
 1344 489 1344 489 1343 435 c 1,25,26
 1344 384 1344 384 1302 345 c 0,27,28
 1262 307 1262 307 1202 307 c 2,29,-1
 586 307 l 2,30,31
 504 307 504 307 464 373 c 1,32,-1
 90 373 l 1,33,34
 90 220 90 220 206 109 c 1,35,36
 322 0 322 0 486 0 c 2,37,-1
 1318 0 l 2,38,39
 1482 0 1482 0 1598 109 c 1,40,41
 1714 220 1714 220 1714 373 c 0,42,43
 1714 476 1714 476 1660 562 c 256,44,45
 1606 648 1606 648 1515 698 c 1,46,47
 1582 752 1582 752 1620 827 c 256,48,49
 1658 902 1658 902 1658 986 c 0,50,51
 1658 1146 1658 1146 1535 1257 c 1,52,53
 1412 1370 1412 1370 1236 1370 c 2,54,-1
 568 1370 l 1,0,1
EndSplineSet
EndChar

StartChar: afii10027
Encoding: 1049 1049 83
Width: 2114
Flags: W
LayerCount: 2
Fore
SplineSet
471 1975 m 1,0,1
 471 1858 471 1858 549 1752 c 1,2,3
 628 1650 628 1650 763 1590 c 256,4,5
 898 1530 898 1530 1057 1530 c 256,6,7
 1216 1530 1216 1530 1350 1589 c 0,8,9
 1485 1649 1485 1649 1563 1751 c 1,10,11
 1641 1856 1641 1856 1641 1975 c 1,12,-1
 1305 1975 l 1,13,14
 1308 1900 1308 1900 1233 1842 c 0,15,16
 1162 1786 1162 1786 1057 1786 c 0,17,18
 956 1786 956 1786 881 1841 c 1,19,20
 808 1898 808 1898 808 1975 c 1,21,-1
 471 1975 l 1,0,1
90 1370 m 1,22,-1
 90 0 l 1,23,-1
 464 0 l 1,24,-1
 1650 961 l 1,25,-1
 1650 0 l 1,26,-1
 2024 0 l 1,27,-1
 2024 1370 l 1,28,-1
 1650 1370 l 1,29,-1
 464 408 l 1,30,-1
 464 1370 l 1,31,-1
 90 1370 l 1,22,-1
EndSplineSet
EndChar

StartChar: afii10029
Encoding: 1051 1051 84
Width: 2040
Flags: W
LayerCount: 2
Fore
SplineSet
320 1370 m 1,0,-1
 320 465 l 2,1,2
 320 400 320 400 269 352 c 1,3,4
 218 308 218 308 144 305 c 1,5,-1
 90 305 l 1,6,-1
 90 0 l 1,7,-1
 254 0 l 2,8,9
 436 0 436 0 565 117 c 256,10,11
 694 234 694 234 694 400 c 2,12,-1
 694 1065 l 1,13,-1
 1576 1065 l 1,14,-1
 1576 0 l 1,15,-1
 1950 0 l 1,16,-1
 1950 1370 l 1,17,-1
 320 1370 l 1,0,-1
EndSplineSet
EndChar

StartChar: afii10037
Encoding: 1059 1059 85
Width: 2320
Flags: W
LayerCount: 2
Fore
SplineSet
90 1370 m 1,0,-1
 916 475 l 1,1,-1
 477 0 l 1,2,-1
 965 0 l 1,3,-1
 2230 1370 l 1,4,-1
 1741 1370 l 1,5,-1
 1159 740 l 1,6,-1
 579 1370 l 1,7,-1
 90 1370 l 1,0,-1
EndSplineSet
EndChar

StartChar: afii10040
Encoding: 1062 1062 86
Width: 2226
Flags: W
LayerCount: 2
Fore
SplineSet
90 1370 m 1,0,-1
 90 0 l 1,1,-1
 1762 0 l 1,2,-1
 1762 -305 l 1,3,-1
 2136 -305 l 1,4,-1
 2136 305 l 1,5,-1
 1949 305 l 1,6,-1
 1949 1370 l 1,7,-1
 1575 1370 l 1,8,-1
 1575 305 l 1,9,-1
 464 305 l 1,10,-1
 464 1370 l 1,11,-1
 90 1370 l 1,0,-1
EndSplineSet
EndChar

StartChar: afii10041
Encoding: 1063 1063 87
Width: 2044
Flags: W
LayerCount: 2
Fore
SplineSet
90 1370 m 1,0,-1
 90 880 l 2,1,2
 90 714 90 714 218 597 c 0,3,4
 347 480 347 480 530 480 c 2,5,-1
 1338 480 l 2,6,7
 1410 480 1410 480 1475 500 c 0,8,9
 1542 521 1542 521 1580 559 c 1,10,-1
 1580 0 l 1,11,-1
 1954 0 l 1,12,-1
 1954 1370 l 1,13,-1
 1580 1370 l 1,14,-1
 1580 945 l 2,15,16
 1580 880 1580 880 1529 832 c 1,17,18
 1478 788 1478 788 1404 785 c 1,19,-1
 640 785 l 1,20,21
 568 786 568 786 516 831 c 1,22,23
 464 879 464 879 464 945 c 2,24,-1
 464 1370 l 1,25,-1
 90 1370 l 1,0,-1
EndSplineSet
EndChar

StartChar: afii10042
Encoding: 1064 1064 88
Width: 2822
Flags: W
LayerCount: 2
Fore
SplineSet
90 1370 m 1,0,-1
 90 0 l 1,1,-1
 2732 0 l 1,2,-1
 2732 1370 l 1,3,-1
 2358 1370 l 1,4,-1
 2358 305 l 1,5,-1
 1597 305 l 1,6,-1
 1597 1370 l 1,7,-1
 1223 1370 l 1,8,-1
 1223 305 l 1,9,-1
 464 305 l 1,10,-1
 464 1370 l 1,11,-1
 90 1370 l 1,0,-1
EndSplineSet
EndChar

StartChar: afii10043
Encoding: 1065 1065 89
Width: 3008
Flags: W
LayerCount: 2
Fore
SplineSet
90 1370 m 1,0,-1
 90 0 l 1,1,-1
 2544 0 l 1,2,-1
 2544 -304 l 1,3,-1
 2918 -304 l 1,4,-1
 2918 306 l 1,5,-1
 2731 306 l 1,6,-1
 2731 1370 l 1,7,-1
 2357 1370 l 1,8,-1
 2357 305 l 1,9,-1
 1597 305 l 1,10,-1
 1597 1370 l 1,11,-1
 1223 1370 l 1,12,-1
 1223 305 l 1,13,-1
 464 305 l 1,14,-1
 464 1370 l 1,15,-1
 90 1370 l 1,0,-1
EndSplineSet
EndChar

StartChar: afii10044
Encoding: 1066 1066 90
Width: 2384
Flags: W
LayerCount: 2
Fore
SplineSet
90 1370 m 1,0,-1
 90 1065 l 1,1,-1
 424 1065 l 1,2,-1
 424 0 l 1,3,-1
 1792 0 l 2,4,5
 1930 0 1930 0 2044 61 c 1,6,7
 2161 122 2161 122 2227 227 c 0,8,9
 2294 332 2294 332 2294 456 c 256,10,11
 2294 580 2294 580 2227 685 c 1,12,13
 2162 790 2162 790 2045 851 c 0,14,15
 1930 912 1930 912 1792 912 c 2,16,-1
 798 912 l 1,17,-1
 798 1370 l 1,18,-1
 90 1370 l 1,0,-1
798 610 m 1,19,-1
 1756 610 l 1,20,21
 1830 612 1830 612 1878 567 c 1,22,23
 1926 525 1926 525 1926 456 c 0,24,25
 1926 390 1926 390 1878 346 c 256,26,27
 1830 302 1830 302 1756 302 c 2,28,-1
 798 302 l 1,29,-1
 798 304 l 1,30,-1
 798 610 l 1,19,-1
EndSplineSet
EndChar

StartChar: afii10045
Encoding: 1067 1067 91
Width: 2756
Flags: W
LayerCount: 2
Fore
SplineSet
90 1370 m 1,0,-1
 90 0 l 1,1,-1
 1458 0 l 2,2,3
 1596 0 1596 0 1710 61 c 1,4,5
 1827 122 1827 122 1893 227 c 0,6,7
 1960 332 1960 332 1960 456 c 256,8,9
 1960 580 1960 580 1893 685 c 1,10,11
 1828 790 1828 790 1711 851 c 0,12,13
 1596 912 1596 912 1458 912 c 2,14,-1
 464 912 l 1,15,-1
 464 1370 l 1,16,-1
 90 1370 l 1,0,-1
2292 1370 m 1,17,-1
 2292 0 l 1,18,-1
 2666 0 l 1,19,-1
 2666 1370 l 1,20,-1
 2292 1370 l 1,17,-1
464 610 m 1,21,-1
 1422 610 l 2,22,23
 1498 610 1498 610 1543 567 c 1,24,25
 1591 525 1591 525 1591 456 c 1,26,27
 1592 388 1592 388 1544 345 c 256,28,29
 1496 302 1496 302 1422 302 c 2,30,-1
 464 302 l 1,31,-1
 464 304 l 1,32,-1
 464 610 l 1,21,-1
EndSplineSet
EndChar

StartChar: afii10046
Encoding: 1068 1068 92
Width: 2050
Flags: W
LayerCount: 2
Fore
SplineSet
90 1370 m 1,0,-1
 90 0 l 1,1,-1
 1458 0 l 2,2,3
 1596 0 1596 0 1710 61 c 1,4,5
 1827 122 1827 122 1893 227 c 0,6,7
 1960 332 1960 332 1960 456 c 256,8,9
 1960 580 1960 580 1893 685 c 1,10,11
 1828 790 1828 790 1711 851 c 0,12,13
 1596 912 1596 912 1458 912 c 2,14,-1
 464 912 l 1,15,-1
 464 1370 l 1,16,-1
 90 1370 l 1,0,-1
464 610 m 1,17,-1
 1422 610 l 2,18,19
 1498 610 1498 610 1543 567 c 1,20,21
 1591 525 1591 525 1591 456 c 1,22,23
 1592 388 1592 388 1544 345 c 256,24,25
 1496 302 1496 302 1422 302 c 2,26,-1
 464 302 l 1,27,-1
 464 304 l 1,28,-1
 464 610 l 1,17,-1
EndSplineSet
EndChar

StartChar: afii10047
Encoding: 1069 1069 93
Width: 2100
Flags: W
LayerCount: 2
Fore
SplineSet
530 1370 m 2,0,1
 348 1370 348 1370 219 1253 c 256,2,3
 90 1136 90 1136 90 970 c 2,4,-1
 90 882 l 1,5,-1
 464 882 l 1,6,-1
 464 905 l 2,7,8
 464 974 464 974 515 1018 c 1,9,10
 568 1066 568 1066 640 1065 c 1,11,-1
 1460 1065 l 1,12,13
 1534 1068 1534 1068 1584 1019 c 1,14,15
 1636 974 1636 974 1636 905 c 2,16,-1
 1636 835 l 1,17,-1
 728 835 l 1,18,-1
 728 536 l 1,19,-1
 1636 536 l 1,20,-1
 1636 465 l 2,21,22
 1636 400 1636 400 1585 352 c 1,23,24
 1534 308 1534 308 1460 305 c 1,25,-1
 640 305 l 1,26,27
 568 306 568 306 516 351 c 1,28,29
 464 399 464 399 464 465 c 2,30,-1
 464 486 l 1,31,-1
 90 486 l 1,32,-1
 90 400 l 2,33,34
 90 234 90 234 218 117 c 0,35,36
 347 0 347 0 530 0 c 2,37,-1
 1570 0 l 2,38,39
 1752 0 1752 0 1881 117 c 256,40,41
 2010 234 2010 234 2010 400 c 2,42,-1
 2010 970 l 2,43,44
 2010 1136 2010 1136 1882 1253 c 0,45,46
 1753 1370 1753 1370 1570 1370 c 2,47,-1
 530 1370 l 2,0,1
EndSplineSet
EndChar

StartChar: afii10048
Encoding: 1070 1070 94
Width: 2840
Flags: W
LayerCount: 2
Fore
SplineSet
90 1370 m 1,0,-1
 90 0 l 1,1,-1
 464 0 l 1,2,-1
 464 532 l 1,3,-1
 799 532 l 1,4,-1
 799 400 l 1,5,6
 798 234 798 234 927 117 c 256,7,8
 1056 0 1056 0 1239 0 c 2,9,-1
 2310 0 l 2,10,11
 2492 0 2492 0 2621 117 c 256,12,13
 2750 234 2750 234 2750 400 c 2,14,-1
 2750 970 l 2,15,16
 2750 1136 2750 1136 2622 1253 c 0,17,18
 2493 1370 2493 1370 2310 1370 c 2,19,-1
 1239 1370 l 2,20,21
 1056 1370 1056 1370 928 1253 c 0,22,23
 799 1136 799 1136 799 970 c 2,24,-1
 799 837 l 1,25,-1
 464 837 l 1,26,-1
 464 1370 l 1,27,-1
 90 1370 l 1,0,-1
1349 1065 m 1,28,-1
 2200 1065 l 1,29,30
 2274 1068 2274 1068 2324 1019 c 1,31,32
 2376 974 2376 974 2376 905 c 2,33,-1
 2376 465 l 2,34,35
 2376 400 2376 400 2325 352 c 1,36,37
 2274 308 2274 308 2200 305 c 1,38,-1
 1349 305 l 1,39,40
 1277 306 1277 306 1225 351 c 1,41,42
 1174 399 1174 399 1173 465 c 1,43,-1
 1173 905 l 2,44,45
 1173 974 1173 974 1224 1018 c 1,46,47
 1276 1066 1276 1066 1349 1065 c 1,28,-1
EndSplineSet
EndChar

StartChar: afii10051
Encoding: 1026 1026 95
Width: 2760
Flags: W
LayerCount: 2
Fore
SplineSet
90 1370 m 1,0,-1
 90 1065 l 1,1,-1
 800 1065 l 1,2,-1
 800 0 l 1,3,-1
 1174 0 l 1,4,-1
 1174 610 l 1,5,-1
 2132 610 l 2,6,7
 2208 610 2208 610 2253 567 c 1,8,9
 2301 525 2301 525 2301 456 c 1,10,11
 2302 388 2302 388 2254 345 c 256,12,13
 2206 302 2206 302 2132 302 c 2,14,-1
 1548 302 l 1,15,-1
 1548 0 l 1,16,-1
 2168 0 l 2,17,18
 2306 0 2306 0 2420 61 c 1,19,20
 2537 122 2537 122 2603 227 c 0,21,22
 2670 332 2670 332 2670 456 c 256,23,24
 2670 580 2670 580 2603 685 c 1,25,26
 2538 790 2538 790 2421 851 c 0,27,28
 2306 912 2306 912 2168 912 c 2,29,-1
 1174 912 l 1,30,-1
 1174 1065 l 1,31,-1
 1883 1065 l 1,32,-1
 1883 1370 l 1,33,-1
 90 1370 l 1,0,-1
EndSplineSet
EndChar

StartChar: afii10058
Encoding: 1033 1033 96
Width: 3536
Flags: W
LayerCount: 2
Fore
SplineSet
319 1370 m 1,0,-1
 319 465 l 1,1,2
 320 400 320 400 268 352 c 1,3,4
 218 308 218 308 143 305 c 1,5,-1
 90 305 l 1,6,-1
 90 0 l 1,7,-1
 253 0 l 2,8,9
 436 0 436 0 564 117 c 0,10,11
 693 234 693 234 693 400 c 2,12,-1
 693 1065 l 1,13,-1
 1576 1065 l 1,14,-1
 1576 0 l 1,15,-1
 2944 0 l 2,16,17
 3082 0 3082 0 3196 61 c 1,18,19
 3313 122 3313 122 3379 227 c 0,20,21
 3446 332 3446 332 3446 456 c 256,22,23
 3446 580 3446 580 3379 685 c 1,24,25
 3314 790 3314 790 3197 851 c 0,26,27
 3082 912 3082 912 2944 912 c 2,28,-1
 1950 912 l 1,29,-1
 1950 1370 l 1,30,-1
 319 1370 l 1,0,-1
1950 610 m 1,31,-1
 2909 610 l 2,32,33
 2984 610 2984 610 3030 567 c 1,34,35
 3078 525 3078 525 3078 456 c 0,36,37
 3078 388 3078 388 3031 345 c 256,38,39
 2984 302 2984 302 2909 302 c 2,40,-1
 1950 302 l 1,41,-1
 1950 304 l 1,42,-1
 1950 610 l 1,31,-1
EndSplineSet
EndChar

StartChar: afii10060
Encoding: 1035 1035 97
Width: 2752
Flags: W
LayerCount: 2
Fore
SplineSet
90 1370 m 1,0,-1
 90 1065 l 1,1,-1
 799 1065 l 1,2,-1
 799 0 l 1,3,-1
 1173 0 l 1,4,-1
 1173 425 l 2,5,6
 1173 494 1173 494 1224 538 c 1,7,8
 1276 586 1276 586 1349 585 c 1,9,-1
 2112 585 l 1,10,11
 2186 588 2186 588 2236 539 c 1,12,13
 2288 494 2288 494 2288 425 c 2,14,-1
 2288 0 l 1,15,-1
 2662 0 l 1,16,-1
 2662 490 l 2,17,18
 2662 656 2662 656 2534 773 c 0,19,20
 2405 890 2405 890 2222 890 c 2,21,-1
 1415 890 l 2,22,23
 1346 890 1346 890 1278 869 c 0,24,25
 1212 848 1212 848 1173 810 c 1,26,-1
 1173 1065 l 1,27,-1
 1883 1065 l 1,28,-1
 1883 1370 l 1,29,-1
 90 1370 l 1,0,-1
EndSplineSet
EndChar

StartChar: afii10055
Encoding: 1030 1030 98
Width: 554
Flags: W
LayerCount: 2
Fore
SplineSet
90 1370 m 1,0,-1
 90 0 l 1,1,-1
 464 0 l 1,2,-1
 464 1370 l 1,3,-1
 90 1370 l 1,0,-1
EndSplineSet
EndChar

StartChar: afii10062
Encoding: 1038 1038 99
Width: 2320
Flags: W
LayerCount: 2
Fore
SplineSet
525 2025 m 1,0,1
 524 1891 524 1891 610 1777 c 1,2,3
 696 1666 696 1666 842 1597 c 1,4,5
 990 1530 990 1530 1161 1530 c 0,6,7
 1333 1530 1333 1530 1479 1596 c 1,8,9
 1626 1666 1626 1666 1710 1777 c 1,10,11
 1798 1891 1798 1891 1795 2025 c 1,12,-1
 1430 2025 l 1,13,14
 1433 1940 1433 1940 1352 1877 c 1,15,16
 1274 1815 1274 1815 1161 1815 c 1,17,18
 1050 1814 1050 1814 970 1876 c 1,19,20
 892 1938 892 1938 891 2025 c 1,21,-1
 525 2025 l 1,0,1
90 1370 m 1,22,-1
 916 475 l 1,23,-1
 477 0 l 1,24,-1
 965 0 l 1,25,-1
 2230 1370 l 1,26,-1
 1741 1370 l 1,27,-1
 1159 740 l 1,28,-1
 579 1370 l 1,29,-1
 90 1370 l 1,22,-1
EndSplineSet
EndChar

StartChar: afii10052
Encoding: 1027 1027 100
Width: 1802
Flags: W
LayerCount: 2
Fore
SplineSet
90 1370 m 1,0,-1
 90 0 l 1,1,-1
 464 0 l 1,2,-1
 464 1065 l 1,3,-1
 1712 1065 l 1,4,-1
 1712 1370 l 1,5,-1
 90 1370 l 1,0,-1
1027 2363 m 1,6,-1
 495 1703 l 1,7,-1
 735 1531 l 1,8,-1
 1327 2149 l 1,9,-1
 1027 2363 l 1,6,-1
EndSplineSet
EndChar

StartChar: afii10061
Encoding: 1036 1036 101
Width: 2158
Flags: W
LayerCount: 2
Fore
SplineSet
90 1370 m 1,0,-1
 90 0 l 1,1,-1
 464 0 l 1,2,-1
 464 670 l 1,3,-1
 1453 0 l 1,4,-1
 2068 0 l 1,5,-1
 944 727 l 1,6,-1
 1992 1370 l 1,7,-1
 1377 1370 l 1,8,-1
 464 782 l 1,9,-1
 464 1370 l 1,10,-1
 90 1370 l 1,0,-1
1107 2363 m 1,11,-1
 575 1703 l 1,12,-1
 815 1531 l 1,13,-1
 1407 2149 l 1,14,-1
 1107 2363 l 1,11,-1
EndSplineSet
EndChar

StartChar: afii10050
Encoding: 1168 1168 102
Width: 1802
Flags: W
LayerCount: 2
Fore
SplineSet
1338 1675 m 1,0,-1
 1338 1370 l 1,1,-1
 90 1370 l 1,2,-1
 90 0 l 1,3,-1
 464 0 l 1,4,-1
 464 1065 l 1,5,-1
 1338 1065 l 1,6,-1
 1712 1065 l 1,7,-1
 1712 1370 l 1,8,-1
 1712 1675 l 1,9,-1
 1338 1675 l 1,0,-1
EndSplineSet
EndChar

StartChar: afii10023
Encoding: 1025 1025 103
Width: 1872
Flags: W
LayerCount: 2
Fore
SplineSet
317 1912 m 1,0,-1
 317 1610 l 1,1,-1
 691 1610 l 1,2,-1
 691 1912 l 1,3,-1
 317 1912 l 1,0,-1
1181 1912 m 1,4,-1
 1181 1610 l 1,5,-1
 1555 1610 l 1,6,-1
 1555 1912 l 1,7,-1
 1181 1912 l 1,4,-1
90 1370 m 1,8,-1
 90 0 l 1,9,-1
 1782 0 l 1,10,-1
 1782 305 l 1,11,-1
 464 305 l 1,12,-1
 464 542 l 1,13,-1
 1606 542 l 1,14,-1
 1606 841 l 1,15,-1
 464 841 l 1,16,-1
 464 1065 l 1,17,-1
 1782 1065 l 1,18,-1
 1782 1370 l 1,19,-1
 90 1370 l 1,8,-1
EndSplineSet
EndChar

StartChar: afii10145
Encoding: 1039 1039 104
Width: 2040
Flags: W
LayerCount: 2
Fore
SplineSet
90 1370 m 1,0,-1
 90 0 l 1,1,-1
 833 0 l 1,2,-1
 833 -305 l 1,3,-1
 1207 -305 l 1,4,-1
 1207 0 l 1,5,-1
 1950 0 l 1,6,-1
 1950 1370 l 1,7,-1
 1576 1370 l 1,8,-1
 1576 305 l 1,9,-1
 464 305 l 1,10,-1
 464 1370 l 1,11,-1
 90 1370 l 1,0,-1
EndSplineSet
EndChar

StartChar: afii10057
Encoding: 1032 1032 105
Width: 1230
Flags: W
LayerCount: 2
Fore
SplineSet
1140 1370 m 1,0,-1
 1140 400 l 2,1,2
 1140 234 1140 234 1012 117 c 0,3,4
 883 0 883 0 700 0 c 2,5,-1
 90 0 l 1,6,-1
 90 305 l 1,7,-1
 590 305 l 1,8,9
 664 306 664 306 714 351 c 0,10,11
 766 399 766 399 766 465 c 2,12,-1
 766 1370 l 1,13,-1
 1140 1370 l 1,0,-1
EndSplineSet
EndChar

StartChar: afii10059
Encoding: 1034 1034 106
Width: 3024
Flags: W
LayerCount: 2
Fore
SplineSet
90 1370 m 1,0,-1
 90 0 l 1,1,-1
 464 0 l 1,2,-1
 464 607 l 1,3,-1
 1064 607 l 1,4,-1
 1064 0 l 1,5,-1
 2432 0 l 2,6,7
 2570 0 2570 0 2684 61 c 1,8,9
 2801 122 2801 122 2867 227 c 0,10,11
 2934 332 2934 332 2934 456 c 256,12,13
 2934 580 2934 580 2867 685 c 1,14,15
 2802 790 2802 790 2685 851 c 0,16,17
 2570 912 2570 912 2432 912 c 2,18,-1
 1438 912 l 1,19,-1
 1438 1370 l 1,20,-1
 1064 1370 l 1,21,-1
 1064 912 l 1,22,-1
 464 912 l 1,23,-1
 464 1370 l 1,24,-1
 90 1370 l 1,0,-1
1438 610 m 1,25,-1
 2396 610 l 2,26,27
 2472 610 2472 610 2517 567 c 1,28,29
 2565 525 2565 525 2565 456 c 1,30,31
 2566 388 2566 388 2518 345 c 256,32,33
 2470 302 2470 302 2396 302 c 2,34,-1
 1438 302 l 1,35,-1
 1438 304 l 1,36,-1
 1438 610 l 1,25,-1
EndSplineSet
EndChar

StartChar: dieresiscmb
Encoding: 776 776 107
Width: 1418
Flags: W
LayerCount: 2
Fore
SplineSet
90 1912 m 1,0,-1
 90 1610 l 1,1,-1
 464 1610 l 1,2,-1
 464 1912 l 1,3,-1
 90 1912 l 1,0,-1
954 1912 m 1,4,-1
 954 1610 l 1,5,-1
 1328 1610 l 1,6,-1
 1328 1912 l 1,7,-1
 954 1912 l 1,4,-1
EndSplineSet
EndChar

StartChar: acutecmb
Encoding: 769 769 108
AltUni2: 001ffd.ffffffff.0
Width: 1012
Flags: W
LayerCount: 2
Fore
SplineSet
622 2247 m 1,0,-1
 90 1587 l 1,1,-1
 330 1415 l 1,2,-1
 922 2033 l 1,3,-1
 622 2247 l 1,0,-1
EndSplineSet
EndChar

StartChar: gravecmb
Encoding: 768 768 109
AltUni2: 001fef.ffffffff.0
Width: 1012
Flags: W
LayerCount: 2
Fore
SplineSet
390 2247 m 1,0,-1
 922 1587 l 1,1,-1
 682 1415 l 1,2,-1
 90 2033 l 1,3,-1
 390 2247 l 1,0,-1
EndSplineSet
EndChar

StartChar: breve
Encoding: 728 728 110
AltUni2: 000306.ffffffff.0
Width: 1450
Flags: W
LayerCount: 2
Fore
SplineSet
90 2025 m 1,0,1
 90 1891 90 1891 175 1777 c 1,2,3
 262 1666 262 1666 407 1597 c 1,4,5
 554 1530 554 1530 726 1530 c 256,6,7
 898 1530 898 1530 1044 1596 c 1,8,9
 1191 1666 1191 1666 1275 1777 c 0,10,11
 1360 1891 1360 1891 1360 2025 c 1,12,-1
 995 2025 l 1,13,14
 998 1940 998 1940 917 1877 c 0,15,16
 838 1815 838 1815 726 1815 c 1,17,18
 616 1814 616 1814 535 1876 c 1,19,20
 456 1938 456 1938 456 2025 c 1,21,-1
 90 2025 l 1,0,1
EndSplineSet
EndChar

StartChar: breveinvertedcmb
Encoding: 785 785 111
Width: 1450
Flags: W
LayerCount: 2
Fore
SplineSet
90 1529 m 1,0,1
 90 1664 90 1664 175 1777 c 0,2,3
 262 1891 262 1891 407 1957 c 0,4,5
 554 2024 554 2024 726 2024 c 1,6,7
 898 2027 898 2027 1044 1958 c 1,8,9
 1191 1892 1191 1892 1275 1777 c 1,10,11
 1360 1664 1360 1664 1360 1529 c 1,12,-1
 995 1529 l 1,13,14
 998 1616 998 1616 917 1677 c 1,15,16
 838 1740 838 1740 726 1739 c 1,17,18
 616 1742 616 1742 535 1678 c 0,19,20
 456 1616 456 1616 456 1529 c 1,21,-1
 90 1529 l 1,0,1
EndSplineSet
EndChar

StartChar: exclam
Encoding: 33 33 112
Width: 554
Flags: W
LayerCount: 2
Fore
SplineSet
90 1370 m 1,0,-1
 90 870 l 1,1,-1
 154 385 l 1,2,-1
 402 385 l 1,3,-1
 464 870 l 1,4,-1
 464 1370 l 1,5,-1
 90 1370 l 1,0,-1
90 302 m 1,6,-1
 90 0 l 1,7,-1
 464 0 l 1,8,-1
 464 302 l 1,9,-1
 90 302 l 1,6,-1
EndSplineSet
EndChar

StartChar: quotedbl
Encoding: 34 34 113
Width: 1051
Flags: W
LayerCount: 2
Fore
SplineSet
90 1370 m 1,0,-1
 90 1221 l 1,1,-1
 154 765 l 1,2,-1
 402 765 l 1,3,-1
 464 1221 l 1,4,-1
 464 1370 l 1,5,-1
 90 1370 l 1,0,-1
587 1370 m 1,6,-1
 587 1221 l 1,7,-1
 650 765 l 1,8,-1
 898 765 l 1,9,-1
 961 1221 l 1,10,-1
 961 1370 l 1,11,-1
 587 1370 l 1,6,-1
EndSplineSet
EndChar

StartChar: sterling
Encoding: 163 163 114
Width: 2112
Flags: W
LayerCount: 2
Fore
SplineSet
804 1370 m 2,0,1
 622 1370 622 1370 493 1253 c 256,2,3
 364 1136 364 1136 364 970 c 2,4,-1
 364 837 l 1,5,-1
 90 837 l 1,6,-1
 90 532 l 1,7,-1
 364 532 l 1,8,-1
 364 305 l 1,9,-1
 90 305 l 1,10,-1
 90 0 l 1,11,-1
 715 0 l 1,12,-1
 1582 0 l 2,13,14
 1764 0 1764 0 1893 117 c 256,15,16
 2022 234 2022 234 2022 400 c 2,17,-1
 2022 465 l 1,18,-1
 1648 465 l 1,19,20
 1648 400 1648 400 1597 352 c 1,21,22
 1546 308 1546 308 1472 305 c 1,23,-1
 738 305 l 1,24,-1
 738 532 l 1,25,-1
 1332 532 l 1,26,-1
 1332 837 l 1,27,-1
 738 837 l 1,28,-1
 738 905 l 2,29,30
 738 974 738 974 789 1018 c 1,31,32
 842 1066 842 1066 914 1065 c 1,33,-1
 1596 1065 l 1,34,-1
 1596 1370 l 1,35,-1
 804 1370 l 2,0,1
EndSplineSet
EndChar

StartChar: dollar
Encoding: 36 36 115
Width: 2022
Flags: W
LayerCount: 2
Fore
SplineSet
823 1709 m 1,0,-1
 823 1369 l 1,1,-1
 561 1369 l 1,2,3
 372 1364 372 1364 241 1244 c 1,4,5
 109 1126 109 1126 109 955 c 256,6,7
 109 784 109 784 241 663 c 0,8,9
 373 543 373 543 561 543 c 2,10,-1
 1429 543 l 1,11,12
 1484 544 1484 544 1522 508 c 0,13,14
 1561 472 1561 472 1561 422 c 0,15,16
 1562 372 1562 372 1523 337 c 256,17,18
 1484 302 1484 302 1429 302 c 2,19,-1
 571 302 l 2,20,21
 517 302 517 302 478 337 c 256,22,23
 439 372 439 372 439 422 c 2,24,-1
 439 424 l 1,25,-1
 90 424 l 1,26,27
 90 247 90 247 226 123 c 0,28,29
 362 0 362 0 556 -1 c 1,30,-1
 823 -1 l 1,31,-1
 823 -341 l 1,32,-1
 1197 -341 l 1,33,-1
 1197 -1 l 1,34,-1
 1463 -1 l 1,35,36
 1658 0 1658 0 1793 123 c 0,37,38
 1930 247 1930 247 1930 424 c 1,39,40
 1932 602 1932 602 1794 725 c 1,41,42
 1658 850 1658 850 1463 850 c 2,43,-1
 614 850 l 2,44,45
 566 850 566 850 532 880 c 1,46,47
 498 913 498 913 498 955 c 0,48,49
 498 1000 498 1000 532 1030 c 0,50,51
 568 1062 568 1062 614 1062 c 2,52,-1
 1392 1062 l 1,53,54
 1440 1064 1440 1064 1474 1031 c 1,55,56
 1510 1000 1510 1000 1509 955 c 1,57,58
 1512 955 1512 955 1509 952 c 0,59,60
 1508 950 1508 950 1508 949 c 1,61,-1
 1871 949 l 1,62,-1
 1871 955 l 1,63,64
 1874 1128 1874 1128 1739 1248 c 1,65,66
 1607 1372 1607 1372 1418 1369 c 1,67,-1
 1197 1369 l 1,68,-1
 1197 1709 l 1,69,-1
 823 1709 l 1,0,-1
EndSplineSet
EndChar

StartChar: percent
Encoding: 37 37 116
Width: 2192
Flags: W
LayerCount: 2
Fore
SplineSet
300 1368 m 0,0,1
 214 1360 214 1360 151 1298 c 1,2,3
 90 1236 90 1236 90 1152 c 2,4,-1
 90 857 l 2,5,6
 90 768 90 768 159 705 c 256,7,8
 228 642 228 642 326 642 c 2,9,-1
 729 642 l 2,10,11
 828 642 828 642 895 704 c 0,12,13
 964 767 964 767 964 857 c 2,14,-1
 964 1152 l 2,15,16
 964 1242 964 1242 896 1305 c 256,17,18
 828 1368 828 1368 729 1368 c 2,19,-1
 326 1368 l 2,20,21
 324 1368 324 1368 318 1368 c 256,22,23
 312 1368 312 1368 308 1368 c 256,24,25
 304 1368 304 1368 300 1368 c 0,0,1
1705 1368 m 1,26,-1
 199 0 l 1,27,-1
 485 0 l 1,28,-1
 1992 1368 l 1,29,-1
 1705 1368 l 1,26,-1
387 1185 m 1,30,-1
 667 1185 l 1,31,32
 702 1186 702 1186 726 1162 c 1,33,34
 750 1140 750 1140 750 1107 c 2,35,-1
 750 902 l 2,36,37
 750 872 750 872 726 848 c 1,38,39
 702 828 702 828 667 825 c 1,40,-1
 387 825 l 1,41,42
 352 826 352 826 328 847 c 1,43,44
 304 870 304 870 304 902 c 2,45,-1
 304 1107 l 2,46,47
 304 1140 304 1140 328 1162 c 1,48,49
 352 1186 352 1186 387 1185 c 1,30,-1
1463 726 m 2,50,51
 1366 726 1366 726 1297 663 c 256,52,53
 1228 600 1228 600 1228 510 c 2,54,-1
 1228 215 l 2,55,56
 1228 126 1228 126 1296 63 c 0,57,58
 1365 0 1365 0 1463 0 c 2,59,-1
 1867 0 l 2,60,61
 1966 0 1966 0 2033 62 c 0,62,63
 2102 125 2102 125 2101 215 c 1,64,-1
 2101 510 l 1,65,66
 2102 600 2102 600 2033 663 c 1,67,68
 1966 726 1966 726 1867 726 c 2,69,-1
 1463 726 l 2,50,51
1525 542 m 2,70,-1
 1804 542 l 1,71,72
 1840 544 1840 544 1863 520 c 1,73,74
 1888 498 1888 498 1888 465 c 2,75,-1
 1888 260 l 1,76,77
 1891 228 1891 228 1864 205 c 1,78,79
 1840 182 1840 182 1804 182 c 2,80,-1
 1525 182 l 2,81,82
 1489 182 1489 182 1465 205 c 256,83,84
 1441 228 1441 228 1441 260 c 2,85,-1
 1441 465 l 2,86,87
 1441 498 1441 498 1465 519 c 1,88,89
 1489 542 1489 542 1525 542 c 2,70,-1
EndSplineSet
EndChar

StartChar: asciicircum
Encoding: 94 94 117
Width: 1813
Flags: W
LayerCount: 2
Fore
SplineSet
721 1370 m 1,0,-1
 90 378 l 1,1,-1
 479 378 l 1,2,-1
 908 1053 l 1,3,-1
 1337 378 l 1,4,-1
 1723 378 l 1,5,-1
 1092 1370 l 1,6,-1
 721 1370 l 1,0,-1
EndSplineSet
EndChar

StartChar: ampersand
Encoding: 38 38 118
Width: 2320
Flags: W
LayerCount: 2
Fore
SplineSet
589 1369 m 1,0,1
 421 1372 421 1372 298 1260 c 0,2,3
 178 1150 178 1150 177 994 c 1,4,5
 180 914 180 914 212 843 c 1,6,7
 248 771 248 771 310 719 c 1,8,9
 210 670 210 670 150 580 c 256,10,11
 90 490 90 490 90 382 c 0,12,13
 90 223 90 223 213 111 c 0,14,15
 336 0 336 0 512 -1 c 1,16,-1
 1856 0 l 1,17,-1
 1856 556 l 1,18,-1
 2230 556 l 1,19,-1
 2230 812 l 1,20,-1
 710 811 l 2,21,22
 650 810 650 810 607 849 c 0,23,24
 565 888 565 888 565 944 c 256,25,26
 565 1000 565 1000 607 1039 c 0,27,28
 650 1078 650 1078 710 1078 c 2,29,-1
 1482 1078 l 1,30,-1
 1482 1369 l 1,31,-1
 589 1369 l 1,0,1
617 555 m 2,32,-1
 1482 556 l 1,33,-1
 1482 290 l 1,34,-1
 617 289 l 2,35,36
 560 289 560 289 514 328 c 1,37,38
 472 368 472 368 471 422 c 1,39,40
 471 478 471 478 513 516 c 1,41,42
 558 555 558 555 617 555 c 2,32,-1
EndSplineSet
EndChar

StartChar: asterisk
Encoding: 42 42 119
Width: 1392
Flags: W
LayerCount: 2
Fore
SplineSet
564 1369 m 1,0,-1
 564 1264 l 1,1,-1
 608 941 l 1,2,-1
 323 1137 l 1,3,-1
 222 1189 l 1,4,-1
 90 982 l 1,5,-1
 190 929 l 1,6,-1
 520 803 l 1,7,-1
 191 676 l 1,8,-1
 91 624 l 1,9,-1
 223 415 l 1,10,-1
 324 468 l 1,11,-1
 608 664 l 1,12,-1
 565 342 l 1,13,-1
 565 236 l 1,14,-1
 829 236 l 1,15,-1
 829 342 l 1,16,-1
 784 664 l 1,17,-1
 1069 468 l 1,18,-1
 1170 416 l 1,19,-1
 1302 624 l 1,20,-1
 1202 677 l 1,21,-1
 872 803 l 1,22,-1
 1202 929 l 1,23,-1
 1302 982 l 1,24,-1
 1170 1190 l 1,25,-1
 1069 1138 l 1,26,-1
 784 941 l 1,27,-1
 828 1264 l 1,28,-1
 828 1369 l 1,29,-1
 564 1369 l 1,0,-1
EndSplineSet
EndChar

StartChar: parenleft
Encoding: 40 40 120
Width: 730
Flags: W
LayerCount: 2
Fore
SplineSet
530 1809 m 2,0,1
 348 1809 348 1809 219 1692 c 256,2,3
 90 1575 90 1575 90 1409 c 2,4,-1
 90 -41 l 2,5,6
 90 -206 90 -206 218 -324 c 1,7,8
 347 -441 347 -441 530 -441 c 2,9,-1
 640 -441 l 1,10,-1
 640 -136 l 1,11,12
 568 -136 568 -136 516 -90 c 1,13,14
 464 -42 464 -42 464 24 c 2,15,-1
 464 1344 l 2,16,17
 464 1412 464 1412 515 1457 c 0,18,19
 568 1504 568 1504 640 1504 c 1,20,-1
 640 1809 l 1,21,-1
 530 1809 l 2,0,1
EndSplineSet
EndChar

StartChar: period
Encoding: 46 46 121
Width: 554
Flags: W
LayerCount: 2
Fore
SplineSet
90 302 m 1,0,-1
 90 0 l 1,1,-1
 464 0 l 1,2,-1
 464 302 l 1,3,-1
 90 302 l 1,0,-1
EndSplineSet
EndChar

StartChar: comma
Encoding: 44 44 122
Width: 724
Flags: W
LayerCount: 2
Fore
SplineSet
260 302 m 1,0,-1
 90 -294 l 1,1,-1
 387 -294 l 1,2,-1
 634 302 l 1,3,-1
 260 302 l 1,0,-1
EndSplineSet
EndChar

StartChar: colon
Encoding: 58 58 123
Width: 554
Flags: W
LayerCount: 2
Fore
SplineSet
90 1130 m 1,0,-1
 90 827 l 1,1,-1
 464 827 l 1,2,-1
 464 1130 l 1,3,-1
 90 1130 l 1,0,-1
90 302 m 1,4,-1
 90 0 l 1,5,-1
 464 0 l 1,6,-1
 464 302 l 1,7,-1
 90 302 l 1,4,-1
EndSplineSet
EndChar

StartChar: semicolon
Encoding: 59 59 124
Width: 724
Flags: W
LayerCount: 2
Fore
SplineSet
260 1130 m 1,0,-1
 260 827 l 1,1,-1
 634 827 l 1,2,-1
 634 1130 l 1,3,-1
 260 1130 l 1,0,-1
260 302 m 1,4,-1
 90 -294 l 1,5,-1
 387 -294 l 1,6,-1
 634 302 l 1,7,-1
 260 302 l 1,4,-1
EndSplineSet
EndChar

StartChar: parenright
Encoding: 41 41 125
Width: 730
Flags: W
LayerCount: 2
Fore
SplineSet
200 1809 m 2,0,1
 382 1809 382 1809 511 1692 c 256,2,3
 640 1575 640 1575 640 1409 c 2,4,-1
 640 -41 l 2,5,6
 640 -206 640 -206 512 -324 c 1,7,8
 383 -441 383 -441 200 -441 c 2,9,-1
 90 -441 l 1,10,-1
 90 -136 l 1,11,12
 164 -136 164 -136 214 -90 c 0,13,14
 266 -42 266 -42 266 24 c 2,15,-1
 266 1344 l 2,16,17
 266 1412 266 1412 215 1457 c 1,18,19
 164 1504 164 1504 90 1504 c 1,20,-1
 90 1809 l 1,21,-1
 200 1809 l 2,0,1
EndSplineSet
EndChar

StartChar: quotesingle
Encoding: 39 39 126
Width: 554
Flags: W
LayerCount: 2
Fore
SplineSet
90 1370 m 1,0,-1
 90 1221 l 1,1,-1
 154 765 l 1,2,-1
 402 765 l 1,3,-1
 464 1221 l 1,4,-1
 464 1370 l 1,5,-1
 90 1370 l 1,0,-1
EndSplineSet
EndChar

StartChar: underscore
Encoding: 95 95 128
Width: 2284
Flags: W
LayerCount: 2
Fore
SplineSet
90 0 m 1,0,-1
 2194 0 l 1,1,-1
 2194 -305 l 1,2,-1
 90 -305 l 1,3,-1
 90 0 l 1,0,-1
EndSplineSet
EndChar

StartChar: hyphen
Encoding: 45 45 129
Width: 1584
Flags: W
LayerCount: 2
Fore
SplineSet
90 837 m 1,0,-1
 1494 837 l 1,1,-1
 1494 532 l 1,2,-1
 90 532 l 1,3,-1
 90 837 l 1,0,-1
EndSplineSet
EndChar

StartChar: plus
Encoding: 43 43 130
Width: 1584
Flags: W
LayerCount: 2
Fore
SplineSet
604 1251 m 1,0,-1
 604 838 l 1,1,-1
 90 838 l 1,2,-1
 90 533 l 1,3,-1
 604 533 l 1,4,-1
 604 118 l 1,5,-1
 978 118 l 1,6,-1
 978 533 l 1,7,-1
 1494 533 l 1,8,-1
 1494 838 l 1,9,-1
 978 838 l 1,10,-1
 978 1251 l 1,11,-1
 604 1251 l 1,0,-1
EndSplineSet
EndChar

StartChar: equal
Encoding: 61 61 131
Width: 1582
Flags: W
LayerCount: 2
Fore
SplineSet
90 1142 m 1,0,-1
 90 837 l 1,1,-1
 1492 837 l 1,2,-1
 1492 1142 l 1,3,-1
 90 1142 l 1,0,-1
90 532 m 1,4,-1
 90 227 l 1,5,-1
 1492 227 l 1,6,-1
 1492 532 l 1,7,-1
 90 532 l 1,4,-1
EndSplineSet
EndChar

StartChar: bracketleft
Encoding: 91 91 132
Width: 928
Flags: W
LayerCount: 2
Fore
SplineSet
90 1810 m 1,0,-1
 90 -440 l 1,1,-1
 838 -440 l 1,2,-1
 838 -184 l 1,3,-1
 464 -184 l 1,4,-1
 464 1553 l 1,5,-1
 838 1553 l 1,6,-1
 838 1810 l 1,7,-1
 90 1810 l 1,0,-1
EndSplineSet
EndChar

StartChar: braceleft
Encoding: 123 123 133
Width: 906
Flags: W
LayerCount: 2
Fore
SplineSet
706 1810 m 2,0,1
 524 1810 524 1810 395 1693 c 256,2,3
 266 1576 266 1576 266 1410 c 2,4,-1
 266 983 l 2,5,6
 266 918 266 918 215 870 c 1,7,8
 164 826 164 826 90 823 c 1,9,-1
 90 546 l 1,10,11
 164 548 164 548 214 500 c 1,12,13
 266 455 266 455 266 386 c 2,14,-1
 266 -40 l 2,15,16
 266 -206 266 -206 394 -323 c 0,17,18
 523 -440 523 -440 706 -440 c 2,19,-1
 816 -440 l 1,20,-1
 816 -135 l 1,21,22
 744 -134 744 -134 692 -89 c 1,23,24
 640 -41 640 -41 640 25 c 2,25,-1
 640 437 l 2,26,27
 640 602 640 602 500 685 c 1,28,29
 640 768 640 768 640 932 c 2,30,-1
 640 1345 l 2,31,32
 640 1414 640 1414 691 1458 c 1,33,34
 744 1506 744 1506 816 1505 c 1,35,-1
 816 1810 l 1,36,-1
 706 1810 l 2,0,1
EndSplineSet
EndChar

StartChar: at
Encoding: 64 64 134
Width: 1942
Flags: W
LayerCount: 2
Fore
SplineSet
531 1369 m 1,0,1
 348 1370 348 1370 219 1241 c 256,2,3
 90 1112 90 1112 90 929 c 2,4,-1
 90 441 l 2,5,6
 90 258 90 258 219 129 c 256,7,8
 348 0 348 0 531 0 c 2,9,-1
 1852 0 l 1,10,-1
 1852 185 l 1,11,-1
 585 185 l 1,12,13
 466 184 466 184 379 270 c 0,14,15
 293 356 293 356 293 478 c 2,16,-1
 293 892 l 1,17,18
 292 1015 292 1015 378 1099 c 1,19,20
 465 1186 465 1186 585 1185 c 1,21,-1
 1357 1185 l 1,22,23
 1480 1188 1480 1188 1564 1100 c 1,24,25
 1650 1014 1650 1014 1650 892 c 2,26,-1
 1650 478 l 2,27,28
 1650 470 1650 470 1648 454 c 1,29,-1
 1460 454 l 1,30,-1
 1460 1102 l 1,31,-1
 672 1102 l 2,32,33
 560 1102 560 1102 473 1030 c 256,34,35
 386 958 386 958 386 858 c 2,36,-1
 386 511 l 2,37,38
 386 412 386 412 472 340 c 1,39,40
 560 268 560 268 672 268 c 2,41,-1
 1852 268 l 1,42,-1
 1852 929 l 2,43,44
 1852 1112 1852 1112 1724 1240 c 0,45,46
 1595 1369 1595 1369 1412 1369 c 2,47,-1
 531 1369 l 1,0,1
720 916 m 2,48,-1
 1232 916 l 1,49,-1
 1232 454 l 1,50,-1
 720 454 l 2,51,52
 678 454 678 454 645 482 c 1,53,54
 613 512 613 512 613 551 c 2,55,-1
 613 819 l 1,56,57
 612 860 612 860 644 887 c 1,58,59
 676 916 676 916 720 916 c 2,48,-1
EndSplineSet
EndChar

StartChar: greater
Encoding: 62 62 135
Width: 1446
Flags: W
LayerCount: 2
Fore
SplineSet
1356 854 m 1,0,-1
 90 1370 l 1,1,-1
 90 1017 l 1,2,-1
 1008 684 l 1,3,-1
 90 351 l 1,4,-1
 90 0 l 1,5,-1
 1356 515 l 1,6,-1
 1356 854 l 1,0,-1
EndSplineSet
EndChar

StartChar: asciitilde
Encoding: 126 126 136
Width: 1736
Flags: W
LayerCount: 2
Fore
SplineSet
90 524 m 1,0,-1
 117 621 l 2,1,2
 162 782 162 782 318 866 c 1,3,4
 474 952 474 952 651 910 c 1,5,-1
 1107 805 l 1,6,7
 1178 790 1178 790 1240 822 c 1,8,9
 1303 856 1303 856 1321 920 c 1,10,-1
 1646 845 l 1,11,-1
 1619 748 l 2,12,13
 1574 590 1574 590 1418 503 c 1,14,15
 1262 420 1262 420 1085 459 c 1,16,-1
 629 564 l 1,17,18
 560 582 560 582 496 547 c 1,19,20
 433 514 433 514 415 449 c 1,21,-1
 90 524 l 1,0,-1
EndSplineSet
EndChar

StartChar: slash
Encoding: 47 47 137
Width: 1400
Flags: W
LayerCount: 2
Fore
SplineSet
911 1710 m 1,0,-1
 90 -340 l 1,1,-1
 489 -340 l 1,2,-1
 1310 1710 l 1,3,-1
 911 1710 l 1,0,-1
EndSplineSet
EndChar

StartChar: numbersign
Encoding: 35 35 138
Width: 1724
Flags: W
LayerCount: 2
Fore
SplineSet
597 1370 m 1,0,-1
 508 1066 l 1,1,-1
 315 1066 l 1,2,-1
 225 761 l 1,3,-1
 417 761 l 1,4,-1
 373 608 l 1,5,-1
 179 608 l 1,6,-1
 90 303 l 1,7,-1
 282 303 l 1,8,-1
 193 0 l 1,9,-1
 567 0 l 1,10,-1
 656 303 l 1,11,-1
 843 303 l 1,12,-1
 754 0 l 1,13,-1
 1128 0 l 1,14,-1
 1217 303 l 1,15,-1
 1410 303 l 1,16,-1
 1499 608 l 1,17,-1
 1308 608 l 1,18,-1
 1352 761 l 1,19,-1
 1545 761 l 1,20,-1
 1634 1066 l 1,21,-1
 1443 1066 l 1,22,-1
 1532 1370 l 1,23,-1
 1158 1370 l 1,24,-1
 1069 1066 l 1,25,-1
 882 1066 l 1,26,-1
 971 1370 l 1,27,-1
 597 1370 l 1,0,-1
791 761 m 1,28,-1
 978 761 l 1,29,-1
 934 608 l 1,30,-1
 747 608 l 1,31,-1
 791 761 l 1,28,-1
EndSplineSet
EndChar

StartChar: question
Encoding: 63 63 139
Width: 1724
Flags: W
LayerCount: 2
Fore
SplineSet
542 1370 m 1,0,1
 354 1373 354 1373 222 1250 c 1,2,3
 90 1130 90 1130 90 957 c 2,4,-1
 90 951 l 1,5,-1
 464 951 l 1,6,7
 467 952 467 952 464 954 c 1,8,9
 464 957 464 957 463 957 c 1,10,11
 463 1002 463 1002 493 1032 c 1,12,13
 526 1062 526 1062 570 1062 c 2,14,-1
 1128 1062 l 2,15,16
 1185 1062 1185 1062 1221 1027 c 1,17,18
 1260 994 1260 994 1260 942 c 0,19,20
 1260 892 1260 892 1222 857 c 256,21,22
 1184 822 1184 822 1128 822 c 2,23,-1
 734 822 l 1,24,25
 508 834 508 834 508 641 c 2,26,-1
 508 385 l 1,27,-1
 876 385 l 1,28,-1
 876 448 l 1,29,30
 878 494 878 494 898 511 c 1,31,32
 920 528 920 528 977 528 c 2,33,-1
 1164 528 l 2,34,35
 1292 528 1292 528 1400 581 c 256,36,37
 1508 634 1508 634 1571 730 c 256,38,39
 1634 826 1634 826 1634 942 c 256,40,41
 1634 1058 1634 1058 1572 1157 c 256,42,43
 1510 1256 1510 1256 1401 1313 c 0,44,45
 1293 1370 1293 1370 1164 1370 c 2,46,-1
 542 1370 l 1,0,1
508 302 m 1,47,-1
 508 0 l 1,48,-1
 882 0 l 1,49,-1
 882 302 l 1,50,-1
 508 302 l 1,47,-1
EndSplineSet
EndChar

StartChar: bar
Encoding: 124 124 140
Width: 554
Flags: W
LayerCount: 2
Fore
SplineSet
90 1710 m 1,0,-1
 90 -340 l 1,1,-1
 464 -340 l 1,2,-1
 464 1710 l 1,3,-1
 90 1710 l 1,0,-1
EndSplineSet
EndChar

StartChar: logicalnot
Encoding: 172 172 141
Width: 1584
Flags: W
LayerCount: 2
Fore
SplineSet
90 980 m 1,0,-1
 90 675 l 1,1,-1
 1244 675 l 1,2,-1
 1244 390 l 1,3,-1
 1494 390 l 1,4,-1
 1494 980 l 1,5,-1
 90 980 l 1,0,-1
EndSplineSet
EndChar

StartChar: cent
Encoding: 162 162 142
Width: 1718
Flags: W
LayerCount: 2
Fore
SplineSet
670 1572 m 1,0,-1
 670 1232 l 1,1,-1
 442 1232 l 2,2,3
 296 1232 296 1232 193 1139 c 256,4,5
 90 1046 90 1046 90 912 c 2,6,-1
 90 457 l 2,7,8
 90 325 90 325 193 231 c 0,9,10
 296 138 296 138 442 137 c 1,11,-1
 670 137 l 1,12,-1
 670 -203 l 1,13,-1
 1044 -203 l 1,14,-1
 1044 137 l 1,15,-1
 1274 137 l 1,16,17
 1368 138 1368 138 1450 195 c 0,18,19
 1534 253 1534 253 1579 340 c 1,20,21
 1626 428 1626 428 1626 517 c 2,22,-1
 1626 587 l 1,23,-1
 1252 587 l 1,24,-1
 1252 570 l 2,25,26
 1252 519 1252 519 1211 480 c 0,27,28
 1170 442 1170 442 1110 442 c 2,29,-1
 604 442 l 2,30,31
 547 442 547 442 505 479 c 1,32,33
 464 518 464 518 464 570 c 2,34,-1
 464 800 l 2,35,36
 464 854 464 854 504 890 c 1,37,38
 546 930 546 930 604 927 c 1,39,-1
 1110 927 l 1,40,41
 1170 930 1170 930 1210 890 c 1,42,43
 1252 854 1252 854 1252 800 c 2,44,-1
 1252 782 l 1,45,-1
 1626 782 l 1,46,-1
 1626 852 l 1,47,48
 1628 942 1628 942 1580 1028 c 1,49,50
 1535 1116 1535 1116 1451 1174 c 0,51,52
 1368 1232 1368 1232 1274 1232 c 2,53,-1
 1044 1232 l 1,54,-1
 1044 1572 l 1,55,-1
 670 1572 l 1,0,-1
EndSplineSet
EndChar

StartChar: yen
Encoding: 165 165 143
Width: 2444
Flags: W
LayerCount: 2
Fore
SplineSet
90 1370 m 1,0,-1
 850 666 l 1,1,-1
 373 666 l 1,2,-1
 373 482 l 1,3,-1
 1034 482 l 1,4,-1
 1034 357 l 1,5,-1
 373 357 l 1,6,-1
 373 173 l 1,7,-1
 1034 173 l 1,8,-1
 1034 0 l 1,9,-1
 1408 0 l 1,10,-1
 1408 173 l 1,11,-1
 2071 173 l 1,12,-1
 2071 357 l 1,13,-1
 1408 357 l 1,14,-1
 1408 482 l 1,15,-1
 2071 482 l 1,16,-1
 2071 666 l 1,17,-1
 1593 666 l 1,18,-1
 2354 1370 l 1,19,-1
 1803 1370 l 1,20,-1
 1221 793 l 1,21,-1
 641 1370 l 1,22,-1
 90 1370 l 1,0,-1
EndSplineSet
EndChar

StartChar: section
Encoding: 167 167 144
Width: 2015
Flags: W
LayerCount: 2
Fore
SplineSet
1372 -272 m 2,0,1
 1501 -272 1501 -272 1606 -216 c 0,2,3
 1714 -159 1714 -159 1776 -61 c 0,4,5
 1838 38 1838 38 1838 153 c 0,6,7
 1838 276 1838 276 1768 377 c 1,8,9
 1840 436 1840 436 1881 514 c 0,10,11
 1922 594 1922 594 1922 684 c 1,12,13
 1925 856 1925 856 1790 977 c 1,14,15
 1658 1098 1658 1098 1469 1098 c 2,16,-1
 676 1098 l 2,17,18
 622 1098 622 1098 583 1134 c 256,19,20
 544 1170 544 1170 544 1220 c 0,21,22
 544 1272 544 1272 582 1305 c 0,23,24
 622 1340 622 1340 676 1340 c 2,25,-1
 1357 1340 l 2,26,27
 1412 1340 1412 1340 1450 1304 c 0,28,29
 1489 1268 1489 1268 1489 1218 c 2,30,-1
 1489 1216 l 1,31,-1
 1838 1216 l 1,32,33
 1838 1332 1838 1332 1776 1430 c 256,34,35
 1714 1528 1714 1528 1607 1584 c 1,36,37
 1502 1641 1502 1641 1372 1641 c 2,38,-1
 640 1641 l 1,39,40
 514 1642 514 1642 406 1585 c 256,41,42
 298 1528 298 1528 236 1430 c 256,43,44
 174 1332 174 1332 174 1216 c 0,45,46
 174 1094 174 1094 243 992 c 1,47,48
 174 936 174 936 131 855 c 0,49,50
 90 778 90 778 90 685 c 0,51,52
 90 514 90 514 222 392 c 1,53,54
 357 272 357 272 543 271 c 1,55,-1
 1336 271 l 1,56,57
 1393 272 1393 272 1429 236 c 1,58,59
 1468 200 1468 200 1468 150 c 256,60,61
 1468 100 1468 100 1430 65 c 256,62,63
 1392 30 1392 30 1336 30 c 2,64,-1
 655 30 l 2,65,66
 601 30 601 30 562 65 c 0,67,68
 523 101 523 101 523 151 c 2,69,-1
 523 153 l 1,70,-1
 174 153 l 1,71,72
 174 38 174 38 236 -61 c 1,73,74
 300 -158 300 -158 405 -215 c 1,75,76
 514 -272 514 -272 640 -272 c 2,77,-1
 1372 -272 l 2,0,1
609 578 m 0,78,79
 561 578 561 578 527 608 c 1,80,81
 494 641 494 641 493 683 c 1,82,83
 494 728 494 728 527 758 c 0,84,85
 561 790 561 790 609 790 c 0,86,87
 766 790 766 790 1045 790 c 1,88,89
 1328 794 1328 794 1403 791 c 1,90,91
 1452 794 1452 794 1485 761 c 1,92,93
 1519 731 1519 731 1519 686 c 0,94,95
 1519 644 1519 644 1485 611 c 0,96,97
 1452 579 1452 579 1403 579 c 0,98,99
 1250 582 1250 582 965 579 c 1,100,101
 684 578 684 578 609 578 c 0,78,79
EndSplineSet
EndChar

StartChar: guillemotright
Encoding: 187 187 145
Width: 2036
Flags: W
LayerCount: 2
Fore
SplineSet
90 1370 m 1,0,-1
 90 1017 l 1,1,-1
 718 683 l 1,2,-1
 90 351 l 1,3,-1
 90 0 l 1,4,-1
 1066 515 l 1,5,-1
 1066 853 l 1,6,-1
 90 1370 l 1,0,-1
970 1370 m 1,7,-1
 970 1017 l 1,8,-1
 1598 683 l 1,9,-1
 970 351 l 1,10,-1
 970 0 l 1,11,-1
 1946 515 l 1,12,-1
 1946 853 l 1,13,-1
 970 1370 l 1,7,-1
EndSplineSet
EndChar

StartChar: Eth
Encoding: 208 208 146
Width: 2483
Flags: W
LayerCount: 2
Fore
SplineSet
464 1370 m 1,0,-1
 464 837 l 1,1,-1
 90 837 l 1,2,-1
 90 532 l 1,3,-1
 464 532 l 1,4,-1
 464 0 l 1,5,-1
 1919 0 l 2,6,7
 2040 0 2040 0 2148 53 c 1,8,9
 2260 106 2260 106 2323 199 c 1,10,11
 2390 292 2390 292 2390 400 c 2,12,-1
 2390 970 l 1,13,14
 2393 1078 2393 1078 2324 1171 c 1,15,16
 2258 1264 2258 1264 2149 1317 c 0,17,18
 2042 1370 2042 1370 1919 1370 c 2,19,-1
 464 1370 l 1,0,-1
838 1065 m 1,20,-1
 1840 1065 l 1,21,22
 1914 1068 1914 1068 1964 1019 c 1,23,24
 2016 974 2016 974 2016 905 c 2,25,-1
 2016 465 l 2,26,27
 2016 400 2016 400 1965 352 c 1,28,29
 1914 308 1914 308 1840 305 c 1,30,-1
 838 305 l 1,31,-1
 838 532 l 1,32,-1
 1354 532 l 1,33,-1
 1354 837 l 1,34,-1
 838 837 l 1,35,-1
 838 1065 l 1,20,-1
EndSplineSet
EndChar

StartChar: Thorn
Encoding: 222 222 147
Width: 2050
Flags: W
LayerCount: 2
Fore
SplineSet
90 1370 m 1,0,-1
 90 1155 l 1,1,-1
 90 213 l 1,2,-1
 90 0 l 1,3,-1
 464 0 l 1,4,-1
 464 213 l 1,5,-1
 1442 213 l 1,6,7
 1582 212 1582 212 1702 275 c 256,8,9
 1822 338 1822 338 1891 446 c 1,10,11
 1960 557 1960 557 1960 683 c 0,12,13
 1960 812 1960 812 1891 920 c 1,14,15
 1822 1030 1822 1030 1703 1092 c 0,16,17
 1583 1155 1583 1155 1442 1155 c 2,18,-1
 464 1155 l 1,19,-1
 464 1370 l 1,20,-1
 90 1370 l 1,0,-1
464 850 m 1,21,-1
 1407 850 l 2,22,23
 1488 850 1488 850 1539 803 c 1,24,25
 1591 758 1591 758 1591 683 c 0,26,27
 1591 611 1591 611 1539 563 c 0,28,29
 1488 516 1488 516 1407 516 c 2,30,-1
 464 516 l 1,31,-1
 464 850 l 1,21,-1
EndSplineSet
EndChar

StartChar: germandbls
Encoding: 223 223 148
Width: 2502
Flags: W
LayerCount: 2
Fore
SplineSet
530 1370 m 2,0,1
 348 1370 348 1370 219 1253 c 256,2,3
 90 1136 90 1136 90 970 c 2,4,-1
 90 0 l 1,5,-1
 464 0 l 1,6,7
 468 604 468 604 468 905 c 0,8,9
 468 972 468 972 519 1017 c 0,10,11
 572 1065 572 1065 644 1065 c 1,12,13
 818 1068 818 1068 1015 1067 c 1,14,15
 1213 1070 1213 1070 1438 1066 c 1,16,17
 1664 1066 1664 1066 1771 1065 c 1,18,-1
 632 247 l 1,19,-1
 632 0 l 1,20,-1
 2412 0 l 1,21,-1
 2412 305 l 1,22,-1
 1230 305 l 1,23,-1
 2365 1121 l 1,24,-1
 2365 1370 l 1,25,-1
 530 1370 l 2,0,1
EndSplineSet
EndChar

StartChar: uni1E9E
Encoding: 7838 7838 149
Width: 2502
Flags: W
LayerCount: 2
Fore
SplineSet
530 1370 m 2,0,1
 348 1370 348 1370 219 1253 c 256,2,3
 90 1136 90 1136 90 970 c 2,4,-1
 90 0 l 1,5,-1
 464 0 l 1,6,7
 468 604 468 604 468 905 c 0,8,9
 468 972 468 972 519 1017 c 0,10,11
 572 1065 572 1065 644 1065 c 1,12,13
 818 1068 818 1068 1015 1067 c 1,14,15
 1213 1070 1213 1070 1438 1066 c 1,16,17
 1664 1066 1664 1066 1771 1065 c 1,18,-1
 632 247 l 1,19,-1
 632 0 l 1,20,-1
 2412 0 l 1,21,-1
 2412 305 l 1,22,-1
 1230 305 l 1,23,-1
 2365 1121 l 1,24,-1
 2365 1370 l 1,25,-1
 530 1370 l 2,0,1
EndSplineSet
EndChar

StartChar: OE
Encoding: 338 338 150
Width: 3454
Flags: W
LayerCount: 2
Fore
SplineSet
530 1370 m 2,0,1
 348 1370 348 1370 219 1253 c 256,2,3
 90 1136 90 1136 90 970 c 2,4,-1
 90 400 l 2,5,6
 90 234 90 234 218 117 c 0,7,8
 347 0 347 0 530 0 c 2,9,-1
 1428 0 l 2,10,11
 1590 0 1590 0 1671 57 c 1,12,-1
 1671 0 l 1,13,-1
 3364 0 l 1,14,-1
 3364 305 l 1,15,-1
 2045 305 l 1,16,-1
 2045 541 l 1,17,-1
 3188 541 l 1,18,-1
 3188 840 l 1,19,-1
 2045 840 l 1,20,-1
 2045 1065 l 1,21,-1
 3364 1065 l 1,22,-1
 3364 1370 l 1,23,-1
 1671 1370 l 1,24,-1
 1671 1311 l 1,25,26
 1587 1370 1587 1370 1428 1370 c 2,27,-1
 530 1370 l 2,0,1
640 1065 m 1,28,-1
 1494 1065 l 1,29,30
 1568 1068 1568 1068 1618 1019 c 1,31,32
 1670 974 1670 974 1670 905 c 2,33,-1
 1670 465 l 2,34,35
 1670 400 1670 400 1619 352 c 1,36,37
 1568 308 1568 308 1494 305 c 1,38,-1
 640 305 l 1,39,40
 568 306 568 306 516 351 c 1,41,42
 464 399 464 399 464 465 c 2,43,-1
 464 905 l 2,44,45
 464 974 464 974 515 1018 c 1,46,47
 568 1066 568 1066 640 1065 c 1,28,-1
EndSplineSet
EndChar

StartChar: AE
Encoding: 198 198 151
Width: 3364
Flags: W
LayerCount: 2
Fore
SplineSet
1482 1370 m 1,0,-1
 90 0 l 1,1,-1
 557 0 l 1,2,-1
 862 300 l 1,3,-1
 1605 300 l 1,4,-1
 1603 0 l 1,5,-1
 3274 0 l 1,6,-1
 3274 305 l 1,7,-1
 2002 305 l 1,8,-1
 2002 541 l 1,9,-1
 3098 541 l 1,10,-1
 3098 841 l 1,11,-1
 2002 841 l 1,12,-1
 2002 1065 l 1,13,-1
 3274 1065 l 1,14,-1
 3274 1370 l 1,15,-1
 1482 1370 l 1,0,-1
1605 1030 m 1,16,-1
 1605 590 l 1,17,-1
 1158 590 l 1,18,-1
 1605 1030 l 1,16,-1
EndSplineSet
EndChar

StartChar: paragraph
Encoding: 182 182 152
Width: 2424
Flags: W
LayerCount: 2
Fore
SplineSet
608 1370 m 2,0,1
 468 1370 468 1370 348 1307 c 256,2,3
 228 1244 228 1244 159 1135 c 0,4,5
 90 1027 90 1027 90 898 c 0,6,7
 90 772 90 772 159 662 c 1,8,9
 228 554 228 554 347 491 c 0,10,11
 467 428 467 428 608 428 c 2,12,-1
 1399 428 l 1,13,-1
 1399 0 l 1,14,-1
 1773 0 l 1,15,-1
 1773 1065 l 1,16,-1
 1960 1065 l 1,17,-1
 1960 0 l 1,18,-1
 2334 0 l 1,19,-1
 2334 1370 l 1,20,-1
 608 1370 l 2,0,1
EndSplineSet
EndChar

StartChar: quotedblright
Encoding: 8221 8221 153
Width: 1220
Flags: W
LayerCount: 2
Fore
SplineSet
259 1370 m 1,0,-1
 90 773 l 1,1,-1
 387 773 l 1,2,-1
 633 1370 l 1,3,-1
 259 1370 l 1,0,-1
756 1370 m 1,4,-1
 587 773 l 1,5,-1
 884 773 l 1,6,-1
 1130 1370 l 1,7,-1
 756 1370 l 1,4,-1
EndSplineSet
EndChar

StartChar: cedilla
Encoding: 184 184 154
Width: 963
Flags: W
LayerCount: 2
Fore
SplineSet
369 -608 m 2,0,1
 254 -608 254 -608 172 -534 c 1,2,3
 90 -458 90 -458 90 -353 c 2,4,-1
 90 -350 l 1,5,-1
 321 -350 l 1,6,-1
 320 -353 l 1,7,-1
 320 -353 l 1,8,9
 320 -380 320 -380 342 -399 c 256,10,11
 364 -418 364 -418 394 -418 c 2,12,-1
 558 -418 l 2,13,14
 592 -418 592 -418 615 -397 c 0,15,16
 639 -374 639 -374 639 -344 c 0,17,18
 640 -312 640 -312 616 -292 c 1,19,20
 592 -270 592 -270 558 -270 c 2,21,-1
 369 -270 l 2,22,23
 242 -270 242 -270 242 -163 c 2,24,-1
 242 0 l 1,25,-1
 470 0 l 1,26,-1
 470 -55 l 2,27,28
 470 -91 470 -91 525 -89 c 1,29,-1
 580 -89 l 1,30,31
 702 -86 702 -86 786 -162 c 1,32,33
 870 -234 870 -234 870 -344 c 1,34,35
 873 -454 873 -454 786 -531 c 1,36,37
 702 -608 702 -608 580 -608 c 2,38,-1
 369 -608 l 2,0,1
EndSplineSet
EndChar

StartChar: ring
Encoding: 730 730 155
Width: 1054
Flags: W
LayerCount: 2
Fore
SplineSet
326 2108 m 2,0,1
 228 2108 228 2108 159 2045 c 256,2,3
 90 1982 90 1982 90 1892 c 2,4,-1
 90 1597 l 2,5,6
 90 1508 90 1508 159 1445 c 256,7,8
 228 1382 228 1382 326 1382 c 2,9,-1
 730 1382 l 2,10,11
 828 1382 828 1382 896 1444 c 0,12,13
 964 1507 964 1507 964 1597 c 2,14,-1
 964 1892 l 2,15,16
 964 1982 964 1982 896 2045 c 256,17,18
 828 2108 828 2108 730 2108 c 2,19,-1
 326 2108 l 2,0,1
387 1924 m 2,20,-1
 667 1924 l 1,21,22
 702 1926 702 1926 726 1902 c 1,23,24
 750 1880 750 1880 750 1847 c 2,25,-1
 750 1642 l 2,26,27
 750 1610 750 1610 726 1587 c 256,28,29
 702 1564 702 1564 667 1564 c 2,30,-1
 387 1564 l 2,31,32
 352 1564 352 1564 328 1587 c 256,33,34
 304 1610 304 1610 304 1642 c 2,35,-1
 304 1847 l 2,36,37
 304 1880 304 1880 328 1901 c 1,38,39
 352 1924 352 1924 387 1924 c 2,20,-1
EndSplineSet
EndChar

StartChar: mu
Encoding: 181 181 156
Width: 2044
Flags: W
LayerCount: 2
Fore
SplineSet
90 1370 m 1,0,-1
 90 -305 l 1,1,-1
 464 -305 l 1,2,-1
 464 21 l 1,3,4
 532 0 532 0 607 0 c 2,5,-1
 1514 0 l 2,6,7
 1696 0 1696 0 1825 117 c 256,8,9
 1954 234 1954 234 1954 400 c 2,10,-1
 1954 1370 l 1,11,-1
 1580 1370 l 1,12,-1
 1580 465 l 2,13,14
 1580 400 1580 400 1529 352 c 1,15,16
 1478 308 1478 308 1404 305 c 1,17,-1
 640 305 l 1,18,19
 568 306 568 306 516 351 c 1,20,21
 464 399 464 399 464 465 c 2,22,-1
 464 1370 l 1,23,-1
 167 1370 l 1,24,-1
 90 1370 l 1,0,-1
EndSplineSet
EndChar

StartChar: braceright
Encoding: 125 125 157
Width: 906
Flags: W
LayerCount: 2
Fore
SplineSet
200 1810 m 2,0,1
 382 1810 382 1810 511 1693 c 256,2,3
 640 1576 640 1576 640 1410 c 2,4,-1
 640 983 l 2,5,6
 640 918 640 918 691 870 c 1,7,8
 744 826 744 826 816 823 c 1,9,-1
 816 546 l 1,10,11
 744 548 744 548 692 500 c 1,12,13
 640 455 640 455 640 386 c 2,14,-1
 640 -40 l 2,15,16
 640 -206 640 -206 512 -323 c 0,17,18
 383 -440 383 -440 200 -440 c 2,19,-1
 90 -440 l 1,20,-1
 90 -135 l 1,21,22
 164 -134 164 -134 214 -89 c 0,23,24
 266 -41 266 -41 266 25 c 2,25,-1
 266 437 l 2,26,27
 266 602 266 602 406 685 c 1,28,29
 266 768 266 768 266 932 c 2,30,-1
 266 1345 l 2,31,32
 266 1414 266 1414 215 1458 c 1,33,34
 164 1506 164 1506 90 1505 c 1,35,-1
 90 1810 l 1,36,-1
 200 1810 l 2,0,1
EndSplineSet
EndChar

StartChar: tilde
Encoding: 732 732 158
AltUni2: 000303.ffffffff.0
Width: 1260
Flags: W
LayerCount: 2
Fore
SplineSet
90 1656 m 1,0,-1
 109 1742 l 2,1,2
 140 1886 140 1886 248 1961 c 1,3,4
 358 2036 358 2036 480 2000 c 2,5,-1
 796 1907 l 2,6,7
 847 1892 847 1892 889 1921 c 0,8,9
 934 1952 934 1952 945 2009 c 1,10,-1
 1170 1942 l 1,11,-1
 1152 1855 l 2,12,13
 1122 1714 1122 1714 1013 1637 c 1,14,15
 904 1562 904 1562 781 1597 c 1,16,-1
 464 1692 l 2,17,18
 416 1706 416 1706 372 1676 c 256,19,20
 328 1646 328 1646 316 1589 c 1,21,-1
 90 1656 l 1,0,-1
EndSplineSet
EndChar

StartChar: cedillacmb
Encoding: 807 807 159
Width: 963
Flags: W
LayerCount: 2
Fore
SplineSet
369 -608 m 2,0,1
 254 -608 254 -608 172 -534 c 1,2,3
 90 -458 90 -458 90 -353 c 2,4,-1
 90 -350 l 1,5,-1
 321 -350 l 1,6,-1
 320 -353 l 1,7,-1
 320 -353 l 1,8,9
 320 -380 320 -380 342 -399 c 256,10,11
 364 -418 364 -418 394 -418 c 2,12,-1
 558 -418 l 2,13,14
 592 -418 592 -418 615 -397 c 0,15,16
 639 -374 639 -374 639 -344 c 0,17,18
 640 -312 640 -312 616 -292 c 1,19,20
 592 -270 592 -270 558 -270 c 2,21,-1
 369 -270 l 2,22,23
 242 -270 242 -270 242 -163 c 2,24,-1
 242 0 l 1,25,-1
 470 0 l 1,26,-1
 470 -55 l 2,27,28
 470 -91 470 -91 525 -89 c 1,29,-1
 580 -89 l 1,30,31
 702 -86 702 -86 786 -162 c 1,32,33
 870 -234 870 -234 870 -344 c 1,34,35
 873 -454 873 -454 786 -531 c 1,36,37
 702 -608 702 -608 580 -608 c 2,38,-1
 369 -608 l 2,0,1
EndSplineSet
EndChar

StartChar: ringcmb
Encoding: 778 778 160
Width: 1054
Flags: W
LayerCount: 2
Fore
SplineSet
326 2108 m 2,0,1
 228 2108 228 2108 159 2045 c 256,2,3
 90 1982 90 1982 90 1892 c 2,4,-1
 90 1597 l 2,5,6
 90 1508 90 1508 159 1445 c 256,7,8
 228 1382 228 1382 326 1382 c 2,9,-1
 730 1382 l 2,10,11
 828 1382 828 1382 896 1444 c 0,12,13
 964 1507 964 1507 964 1597 c 2,14,-1
 964 1892 l 2,15,16
 964 1982 964 1982 896 2045 c 256,17,18
 828 2108 828 2108 730 2108 c 2,19,-1
 326 2108 l 2,0,1
387 1924 m 2,20,-1
 667 1924 l 1,21,22
 702 1926 702 1926 726 1902 c 1,23,24
 750 1880 750 1880 750 1847 c 2,25,-1
 750 1642 l 2,26,27
 750 1610 750 1610 726 1587 c 256,28,29
 702 1564 702 1564 667 1564 c 2,30,-1
 387 1564 l 2,31,32
 352 1564 352 1564 328 1587 c 256,33,34
 304 1610 304 1610 304 1642 c 2,35,-1
 304 1847 l 2,36,37
 304 1880 304 1880 328 1901 c 1,38,39
 352 1924 352 1924 387 1924 c 2,20,-1
EndSplineSet
EndChar

StartChar: circumflex
Encoding: 710 710 161
Width: 1450
Flags: W
LayerCount: 2
Fore
SplineSet
488 2892 m 1,0,-1
 90 2339 l 1,1,-1
 495 2339 l 1,2,-1
 726 2612 l 1,3,-1
 955 2339 l 1,4,-1
 1360 2339 l 1,5,-1
 962 2892 l 1,6,-1
 488 2892 l 1,0,-1
EndSplineSet
EndChar

StartChar: circumflexcmb
Encoding: 770 770 162
Width: 1450
Flags: W
LayerCount: 2
Fore
SplineSet
488 2072 m 1,0,-1
 90 1519 l 1,1,-1
 495 1519 l 1,2,-1
 726 1792 l 1,3,-1
 955 1519 l 1,4,-1
 1360 1519 l 1,5,-1
 962 2072 l 1,6,-1
 488 2072 l 1,0,-1
EndSplineSet
EndChar

StartChar: caron
Encoding: 711 711 163
AltUni2: 00030c.ffffffff.0
Width: 1450
Flags: W
LayerCount: 2
Fore
SplineSet
488 1518 m 1,0,-1
 90 2071 l 1,1,-1
 495 2071 l 1,2,-1
 726 1798 l 1,3,-1
 955 2071 l 1,4,-1
 1360 2071 l 1,5,-1
 962 1518 l 1,6,-1
 488 1518 l 1,0,-1
EndSplineSet
EndChar

StartChar: dblgravecmb
Encoding: 783 783 164
Width: 1876
Flags: W
LayerCount: 2
Fore
SplineSet
1254 2420 m 1,0,-1
 1786 1760 l 1,1,-1
 1546 1588 l 1,2,-1
 954 2206 l 1,3,-1
 1254 2420 l 1,0,-1
389 2420 m 1,4,-1
 922 1760 l 1,5,-1
 681 1588 l 1,6,-1
 90 2206 l 1,7,-1
 389 2420 l 1,4,-1
EndSplineSet
EndChar

StartChar: hungarumlaut
Encoding: 733 733 165
Width: 1876
Flags: W
LayerCount: 2
Fore
SplineSet
622 1370 m 1,0,-1
 90 710 l 1,1,-1
 330 538 l 1,2,-1
 922 1156 l 1,3,-1
 622 1370 l 1,0,-1
1487 1370 m 1,4,-1
 954 710 l 1,5,-1
 1195 538 l 1,6,-1
 1786 1156 l 1,7,-1
 1487 1370 l 1,4,-1
EndSplineSet
EndChar

StartChar: hungarumlautcmb
Encoding: 779 779 167
Width: 1876
Flags: W
LayerCount: 2
Fore
SplineSet
622 2420 m 1,0,-1
 90 1760 l 1,1,-1
 330 1588 l 1,2,-1
 922 2206 l 1,3,-1
 622 2420 l 1,0,-1
1487 2420 m 1,4,-1
 954 1760 l 1,5,-1
 1195 1588 l 1,6,-1
 1786 2206 l 1,7,-1
 1487 2420 l 1,4,-1
EndSplineSet
EndChar

StartChar: firsttonechinese
Encoding: 713 713 168
AltUni2: 000304.ffffffff.0
Width: 1450
Flags: W
LayerCount: 2
Fore
SplineSet
90 1927 m 1,0,-1
 1360 1927 l 1,1,-1
 1360 1622 l 1,2,-1
 90 1622 l 1,3,-1
 90 1927 l 1,0,-1
EndSplineSet
EndChar

StartChar: overlinecmb
Encoding: 773 773 170
Width: 2284
Flags: W
LayerCount: 2
Fore
SplineSet
90 1927 m 1,0,-1
 2194 1927 l 1,1,-1
 2194 1622 l 1,2,-1
 90 1622 l 1,3,-1
 90 1927 l 1,0,-1
EndSplineSet
EndChar

StartChar: horncmb
Encoding: 795 795 171
Width: 724
Flags: W
LayerCount: 2
Fore
SplineSet
260 1370 m 1,0,-1
 90 774 l 1,1,-1
 387 774 l 1,2,-1
 634 1370 l 1,3,-1
 260 1370 l 1,0,-1
EndSplineSet
EndChar

StartChar: less
Encoding: 60 60 172
Width: 1446
Flags: W
LayerCount: 2
Fore
SplineSet
90 854 m 1,0,-1
 1356 1370 l 1,1,-1
 1356 1017 l 1,2,-1
 438 684 l 1,3,-1
 1356 351 l 1,4,-1
 1356 0 l 1,5,-1
 90 515 l 1,6,-1
 90 854 l 1,0,-1
EndSplineSet
EndChar

StartChar: bracketright
Encoding: 93 93 173
Width: 928
Flags: W
LayerCount: 2
Fore
SplineSet
838 1810 m 1,0,-1
 838 -440 l 1,1,-1
 90 -440 l 1,2,-1
 90 -184 l 1,3,-1
 464 -184 l 1,4,-1
 464 1553 l 1,5,-1
 90 1553 l 1,6,-1
 90 1810 l 1,7,-1
 838 1810 l 1,0,-1
EndSplineSet
EndChar

StartChar: backslash
Encoding: 92 92 174
Width: 1400
Flags: W
LayerCount: 2
Fore
SplineSet
489 1710 m 1,0,-1
 1310 -340 l 1,1,-1
 911 -340 l 1,2,-1
 90 1710 l 1,3,-1
 489 1710 l 1,0,-1
EndSplineSet
EndChar

StartChar: grave
Encoding: 96 96 175
Width: 1012
Flags: W
LayerCount: 2
Fore
SplineSet
390 1370 m 1,0,-1
 922 710 l 1,1,-1
 682 538 l 1,2,-1
 90 1156 l 1,3,-1
 390 1370 l 1,0,-1
EndSplineSet
EndChar

StartChar: guillemotleft
Encoding: 171 171 176
Width: 2036
Flags: W
LayerCount: 2
Fore
SplineSet
1946 1370 m 1,0,-1
 1946 1017 l 1,1,-1
 1318 683 l 1,2,-1
 1946 351 l 1,3,-1
 1946 0 l 1,4,-1
 970 515 l 1,5,-1
 970 853 l 1,6,-1
 1946 1370 l 1,0,-1
1066 1370 m 1,7,-1
 1066 1017 l 1,8,-1
 438 683 l 1,9,-1
 1066 351 l 1,10,-1
 1066 0 l 1,11,-1
 90 515 l 1,12,-1
 90 853 l 1,13,-1
 1066 1370 l 1,7,-1
EndSplineSet
EndChar

StartChar: dieresis
Encoding: 168 168 177
Width: 1418
Flags: W
LayerCount: 2
Fore
SplineSet
90 1912 m 1,0,-1
 90 1610 l 1,1,-1
 464 1610 l 1,2,-1
 464 1912 l 1,3,-1
 90 1912 l 1,0,-1
954 1912 m 1,4,-1
 954 1610 l 1,5,-1
 1328 1610 l 1,6,-1
 1328 1912 l 1,7,-1
 954 1912 l 1,4,-1
EndSplineSet
EndChar

StartChar: brokenbar
Encoding: 166 166 178
Width: 554
Flags: W
LayerCount: 2
Fore
SplineSet
90 1507 m 1,0,-1
 90 867 l 1,1,-1
 464 867 l 1,2,-1
 464 1507 l 1,3,-1
 90 1507 l 1,0,-1
90 501 m 1,4,-1
 90 -137 l 1,5,-1
 464 -137 l 1,6,-1
 464 501 l 1,7,-1
 90 501 l 1,4,-1
EndSplineSet
EndChar

StartChar: exclamdown
Encoding: 161 161 179
Width: 554
Flags: W
LayerCount: 2
Fore
SplineSet
90 0 m 1,0,-1
 90 500 l 1,1,-1
 154 985 l 1,2,-1
 402 985 l 1,3,-1
 464 500 l 1,4,-1
 464 0 l 1,5,-1
 90 0 l 1,0,-1
90 1068 m 1,6,-1
 90 1370 l 1,7,-1
 464 1370 l 1,8,-1
 464 1068 l 1,9,-1
 90 1068 l 1,6,-1
EndSplineSet
EndChar

StartChar: questiondown
Encoding: 191 191 180
Width: 1724
Flags: W
LayerCount: 2
Fore
SplineSet
1182 0 m 2,0,1
 1370 0 1370 0 1502 120 c 1,2,3
 1634 242 1634 242 1634 413 c 2,4,-1
 1634 419 l 1,5,-1
 1260 416 l 1,6,-1
 1260 416 l 1,7,8
 1264 414 1264 414 1261 413 c 1,9,10
 1261 368 1261 368 1231 338 c 0,11,12
 1202 308 1202 308 1154 308 c 2,13,-1
 596 308 l 2,14,15
 542 308 542 308 503 343 c 256,16,17
 464 378 464 378 464 428 c 0,18,19
 464 480 464 480 502 513 c 0,20,21
 542 548 542 548 596 548 c 2,22,-1
 990 548 l 1,23,24
 1216 540 1216 540 1216 729 c 2,25,-1
 1216 985 l 1,26,-1
 848 985 l 1,27,-1
 848 922 l 1,28,29
 846 877 846 877 826 859 c 1,30,31
 805 842 805 842 747 842 c 2,32,-1
 560 842 l 2,33,34
 432 842 432 842 324 789 c 256,35,36
 216 736 216 736 153 640 c 256,37,38
 90 544 90 544 90 428 c 256,39,40
 90 312 90 312 152 213 c 0,41,42
 215 114 215 114 323 57 c 0,43,44
 432 0 432 0 560 0 c 2,45,-1
 1182 0 l 2,0,1
1216 1068 m 1,46,-1
 1216 1370 l 1,47,-1
 842 1370 l 1,48,-1
 842 1068 l 1,49,-1
 1216 1068 l 1,46,-1
EndSplineSet
EndChar

StartChar: acute
Encoding: 180 180 181
Width: 1012
Flags: W
LayerCount: 2
Fore
SplineSet
622 1370 m 1,0,-1
 90 710 l 1,1,-1
 330 538 l 1,2,-1
 922 1156 l 1,3,-1
 622 1370 l 1,0,-1
EndSplineSet
EndChar

StartChar: degree
Encoding: 176 176 182
Width: 1054
Flags: W
LayerCount: 2
Fore
SplineSet
326 2108 m 2,0,1
 228 2108 228 2108 159 2045 c 256,2,3
 90 1982 90 1982 90 1892 c 2,4,-1
 90 1597 l 2,5,6
 90 1508 90 1508 159 1445 c 256,7,8
 228 1382 228 1382 326 1382 c 2,9,-1
 730 1382 l 2,10,11
 828 1382 828 1382 896 1444 c 0,12,13
 964 1507 964 1507 964 1597 c 2,14,-1
 964 1892 l 2,15,16
 964 1982 964 1982 896 2045 c 256,17,18
 828 2108 828 2108 730 2108 c 2,19,-1
 326 2108 l 2,0,1
387 1924 m 2,20,-1
 667 1924 l 1,21,22
 702 1926 702 1926 726 1902 c 1,23,24
 750 1880 750 1880 750 1847 c 2,25,-1
 750 1642 l 2,26,27
 750 1610 750 1610 726 1587 c 256,28,29
 702 1564 702 1564 667 1564 c 2,30,-1
 387 1564 l 2,31,32
 352 1564 352 1564 328 1587 c 256,33,34
 304 1610 304 1610 304 1642 c 2,35,-1
 304 1847 l 2,36,37
 304 1880 304 1880 328 1901 c 1,38,39
 352 1924 352 1924 387 1924 c 2,20,-1
EndSplineSet
EndChar

StartChar: macron
Encoding: 175 175 183
Width: 1450
Flags: W
LayerCount: 2
Fore
SplineSet
90 1927 m 1,0,-1
 1360 1927 l 1,1,-1
 1360 1622 l 1,2,-1
 90 1622 l 1,3,-1
 90 1927 l 1,0,-1
EndSplineSet
EndChar

StartChar: periodcentered
Encoding: 183 183 184
Width: 554
Flags: W
LayerCount: 2
Fore
SplineSet
90 841 m 1,0,-1
 90 539 l 1,1,-1
 464 539 l 1,2,-1
 464 841 l 1,3,-1
 90 841 l 1,0,-1
EndSplineSet
EndChar

StartChar: currency
Encoding: 164 164 185
Width: 1712
Flags: W
LayerCount: 2
Fore
SplineSet
90 1148 m 1,0,-1
 427 884 l 1,1,2
 420 854 420 854 420 833 c 2,3,-1
 420 538 l 2,4,5
 420 512 420 512 427 485 c 1,6,-1
 90 221 l 1,7,-1
 436 221 l 1,8,-1
 580 334 l 1,9,10
 619 326 619 326 655 323 c 1,11,-1
 1060 323 l 1,12,13
 1098 326 1098 326 1134 334 c 1,14,-1
 1277 221 l 1,15,-1
 1622 221 l 1,16,-1
 1286 485 l 1,17,18
 1294 512 1294 512 1294 538 c 2,19,-1
 1294 833 l 2,20,21
 1294 858 1294 858 1286 885 c 1,22,-1
 1622 1148 l 1,23,-1
 1275 1148 l 1,24,-1
 1134 1038 l 1,25,26
 1098 1050 1098 1050 1060 1049 c 1,27,-1
 655 1049 l 1,28,29
 618 1052 618 1052 579 1036 c 1,30,-1
 436 1148 l 1,31,-1
 90 1148 l 1,0,-1
717 865 m 1,32,-1
 996 865 l 1,33,34
 1032 868 1032 868 1055 843 c 1,35,36
 1080 822 1080 822 1080 788 c 2,37,-1
 1080 583 l 1,38,39
 1083 552 1083 552 1056 528 c 0,40,41
 1032 508 1032 508 996 505 c 1,42,-1
 717 505 l 1,43,44
 682 508 682 508 658 528 c 1,45,46
 634 552 634 552 634 583 c 2,47,-1
 634 788 l 2,48,49
 634 821 634 821 658 842 c 1,50,51
 682 866 682 866 717 865 c 1,32,-1
EndSplineSet
EndChar

StartChar: plusminus
Encoding: 177 177 186
Width: 1584
Flags: W
LayerCount: 2
Fore
SplineSet
604 1322 m 1,0,-1
 604 909 l 1,1,-1
 90 909 l 1,2,-1
 90 604 l 1,3,-1
 604 604 l 1,4,-1
 604 352 l 1,5,-1
 90 352 l 1,6,-1
 90 47 l 1,7,-1
 1494 47 l 1,8,-1
 1494 352 l 1,9,-1
 979 352 l 1,10,-1
 979 604 l 1,11,-1
 1494 604 l 1,12,-1
 1494 909 l 1,13,-1
 979 909 l 1,14,-1
 979 1322 l 1,15,-1
 604 1322 l 1,0,-1
EndSplineSet
EndChar

StartChar: divide
Encoding: 247 247 187
Width: 1584
Flags: W
LayerCount: 2
Fore
SplineSet
605 1251 m 1,0,-1
 605 949 l 1,1,-1
 979 949 l 1,2,-1
 979 1251 l 1,3,-1
 605 1251 l 1,0,-1
90 836 m 1,4,-1
 90 531 l 1,5,-1
 1494 531 l 1,6,-1
 1494 836 l 1,7,-1
 90 836 l 1,4,-1
605 420 m 1,8,-1
 605 118 l 1,9,-1
 979 118 l 1,10,-1
 979 420 l 1,11,-1
 605 420 l 1,8,-1
EndSplineSet
EndChar

StartChar: multiply
Encoding: 215 215 188
Width: 2184
Flags: W
LayerCount: 2
Fore
SplineSet
91 1251 m 1,0,-1
 816 685 l 1,1,-1
 90 118 l 1,2,-1
 643 118 l 1,3,-1
 1093 469 l 1,4,-1
 1543 118 l 1,5,-1
 2094 118 l 1,6,-1
 1368 685 l 1,7,-1
 2093 1251 l 1,8,-1
 1543 1251 l 1,9,-1
 1093 900 l 1,10,-1
 643 1251 l 1,11,-1
 91 1251 l 1,0,-1
EndSplineSet
EndChar

StartChar: copyright
Encoding: 169 169 189
Width: 1942
Flags: W
LayerCount: 2
Fore
SplineSet
531 1369 m 2,0,1
 348 1369 348 1369 219 1240 c 256,2,3
 90 1111 90 1111 90 928 c 2,4,-1
 90 440 l 2,5,6
 90 258 90 258 219 129 c 256,7,8
 348 0 348 0 531 0 c 2,9,-1
 1412 0 l 2,10,11
 1594 0 1594 0 1723 128 c 0,12,13
 1852 257 1852 257 1852 440 c 2,14,-1
 1852 928 l 2,15,16
 1852 1111 1852 1111 1724 1240 c 0,17,18
 1595 1369 1595 1369 1412 1369 c 2,19,-1
 531 1369 l 2,0,1
585 1184 m 2,20,-1
 1357 1184 l 1,21,22
 1480 1186 1480 1186 1564 1099 c 1,23,24
 1650 1015 1650 1015 1650 892 c 2,25,-1
 1650 477 l 1,26,27
 1652 357 1652 357 1565 270 c 0,28,29
 1480 184 1480 184 1357 184 c 2,30,-1
 585 184 l 2,31,32
 466 184 466 184 379 269 c 1,33,34
 293 356 293 356 293 477 c 2,35,-1
 293 892 l 1,36,37
 294 1015 294 1015 378 1099 c 1,38,39
 465 1184 465 1184 585 1184 c 2,20,-1
685 1061 m 2,40,41
 586 1061 586 1061 514 997 c 1,42,43
 446 934 446 934 443 842 c 1,44,-1
 443 527 l 1,45,46
 444 438 444 438 513 372 c 1,47,48
 586 310 586 310 685 307 c 1,49,-1
 1257 307 l 1,50,51
 1360 308 1360 308 1429 371 c 0,52,53
 1500 437 1500 437 1500 527 c 2,54,-1
 1500 575 l 1,55,-1
 1294 575 l 1,56,-1
 1294 563 l 2,57,58
 1294 528 1294 528 1266 501 c 0,59,60
 1239 475 1239 475 1197 475 c 2,61,-1
 745 475 l 1,62,63
 704 474 704 474 676 500 c 0,64,65
 648 527 648 527 648 563 c 2,66,-1
 648 806 l 2,67,68
 648 844 648 844 676 868 c 1,69,70
 704 894 704 894 745 894 c 2,71,-1
 1197 894 l 1,72,73
 1239 896 1239 896 1266 869 c 1,74,75
 1294 845 1294 845 1294 806 c 2,76,-1
 1294 793 l 1,77,-1
 1500 793 l 1,78,-1
 1500 842 l 2,79,80
 1500 934 1500 934 1429 997 c 1,81,82
 1360 1061 1360 1061 1257 1061 c 2,83,-1
 685 1061 l 2,40,41
EndSplineSet
EndChar

StartChar: registered
Encoding: 174 174 190
Width: 1942
Flags: W
LayerCount: 2
Fore
SplineSet
531 1369 m 1,0,1
 348 1370 348 1370 219 1241 c 256,2,3
 90 1112 90 1112 90 929 c 2,4,-1
 90 441 l 2,5,6
 90 258 90 258 219 129 c 256,7,8
 348 0 348 0 531 0 c 2,9,-1
 1411 0 l 2,10,11
 1594 0 1594 0 1723 129 c 256,12,13
 1852 258 1852 258 1852 441 c 2,14,-1
 1852 929 l 2,15,16
 1852 1112 1852 1112 1723 1240 c 0,17,18
 1594 1369 1594 1369 1411 1369 c 2,19,-1
 531 1369 l 1,0,1
585 1185 m 1,20,-1
 1357 1185 l 1,21,22
 1480 1188 1480 1188 1564 1100 c 1,23,24
 1650 1014 1650 1014 1650 892 c 2,25,-1
 1650 478 l 1,26,27
 1652 358 1652 358 1565 271 c 0,28,29
 1480 185 1480 185 1357 185 c 2,30,-1
 585 185 l 1,31,32
 465 184 465 184 378 270 c 0,33,34
 292 356 292 356 292 478 c 2,35,-1
 292 892 l 2,36,37
 292 1015 292 1015 377 1099 c 0,38,39
 464 1186 464 1186 585 1185 c 1,20,-1
470 1057 m 1,40,-1
 470 312 l 1,41,-1
 673 312 l 1,42,-1
 673 583 l 1,43,-1
 1013 583 l 1,44,-1
 1236 312 l 1,45,-1
 1472 312 l 1,46,-1
 1230 585 l 1,47,48
 1329 596 1329 596 1395 662 c 0,49,50
 1462 730 1462 730 1462 820 c 1,51,52
 1464 918 1464 918 1386 987 c 1,53,54
 1312 1057 1312 1057 1201 1057 c 2,55,-1
 470 1057 l 1,40,-1
673 891 m 1,56,-1
 1181 891 l 1,57,58
 1217 892 1217 892 1238 871 c 1,59,60
 1260 852 1260 852 1260 819 c 0,61,62
 1260 788 1260 788 1238 767 c 0,63,64
 1217 746 1217 746 1181 746 c 2,65,-1
 673 746 l 1,66,-1
 673 891 l 1,56,-1
EndSplineSet
EndChar

StartChar: ogonek
Encoding: 731 731 191
Width: 751
Flags: W
LayerCount: 2
Fore
SplineSet
292 0 m 1,0,1
 265 -40 265 -40 229 -97 c 0,2,3
 193 -153 193 -153 177 -177 c 0,4,5
 90 -309 90 -309 145 -402 c 1,6,7
 202 -495 202 -495 367 -495 c 2,8,-1
 661 -495 l 1,9,-1
 661 -252 l 1,10,-1
 433 -252 l 2,11,12
 366 -252 366 -252 344 -215 c 1,13,14
 324 -176 324 -176 357 -124 c 2,15,-1
 438 0 l 1,16,-1
 292 0 l 1,0,1
EndSplineSet
EndChar

StartChar: ogonekcmb
Encoding: 808 808 192
Width: 751
Flags: W
LayerCount: 2
Fore
SplineSet
292 0 m 1,0,1
 265 -40 265 -40 229 -97 c 0,2,3
 193 -153 193 -153 177 -177 c 0,4,5
 90 -309 90 -309 145 -402 c 1,6,7
 202 -495 202 -495 367 -495 c 2,8,-1
 661 -495 l 1,9,-1
 661 -252 l 1,10,-1
 433 -252 l 2,11,12
 366 -252 366 -252 344 -215 c 1,13,14
 324 -176 324 -176 357 -124 c 2,15,-1
 438 0 l 1,16,-1
 292 0 l 1,0,1
EndSplineSet
EndChar

StartChar: glyph193
Encoding: 65541 -1 193
Width: 1418
Flags: W
LayerCount: 2
Fore
SplineSet
90 1912 m 1,0,-1
 90 1610 l 1,1,-1
 464 1610 l 1,2,-1
 464 1912 l 1,3,-1
 90 1912 l 1,0,-1
954 1912 m 1,4,-1
 954 1610 l 1,5,-1
 1328 1610 l 1,6,-1
 1328 1912 l 1,7,-1
 954 1912 l 1,4,-1
EndSplineSet
EndChar

StartChar: dialytikatonoscmb
Encoding: 836 836 194
Width: 1418
Flags: W
LayerCount: 2
Fore
SplineSet
90 1912 m 1,0,-1
 90 1610 l 1,1,-1
 464 1610 l 1,2,-1
 464 1912 l 1,3,-1
 90 1912 l 1,0,-1
954 1912 m 1,4,-1
 954 1610 l 1,5,-1
 1328 1610 l 1,6,-1
 1328 1912 l 1,7,-1
 954 1912 l 1,4,-1
992 2647 m 1,8,-1
 460 1987 l 1,9,-1
 700 1815 l 1,10,-1
 1292 2433 l 1,11,-1
 992 2647 l 1,8,-1
EndSplineSet
EndChar

StartChar: perispomenigreekcmb
Encoding: 834 834 195
AltUni2: 001fc0.ffffffff.0
Width: 1260
Flags: W
LayerCount: 2
Fore
SplineSet
90 1656 m 1,0,-1
 109 1742 l 2,1,2
 140 1886 140 1886 248 1961 c 1,3,4
 358 2036 358 2036 480 2000 c 2,5,-1
 796 1907 l 2,6,7
 847 1892 847 1892 889 1921 c 0,8,9
 934 1952 934 1952 945 2009 c 1,10,-1
 1170 1942 l 1,11,-1
 1152 1855 l 2,12,13
 1122 1714 1122 1714 1013 1637 c 1,14,15
 904 1562 904 1562 781 1597 c 1,16,-1
 464 1692 l 2,17,18
 416 1706 416 1706 372 1676 c 256,19,20
 328 1646 328 1646 316 1589 c 1,21,-1
 90 1656 l 1,0,-1
EndSplineSet
EndChar

StartChar: candrabinducmb
Encoding: 784 784 196
Width: 1450
Flags: W
LayerCount: 2
Fore
SplineSet
90 2023 m 1,0,1
 90 1889 90 1889 175 1775 c 1,2,3
 262 1664 262 1664 407 1595 c 1,4,5
 554 1528 554 1528 726 1528 c 256,6,7
 898 1528 898 1528 1044 1594 c 1,8,9
 1191 1664 1191 1664 1275 1775 c 0,10,11
 1360 1889 1360 1889 1360 2023 c 1,12,-1
 995 2023 l 1,13,14
 998 1938 998 1938 917 1875 c 0,15,16
 838 1813 838 1813 726 1813 c 1,17,18
 616 1812 616 1812 535 1874 c 1,19,20
 456 1936 456 1936 456 2023 c 1,21,-1
 90 2023 l 1,0,1
538 2325 m 1,22,-1
 538 2023 l 1,23,-1
 912 2023 l 1,24,-1
 912 2325 l 1,25,-1
 538 2325 l 1,22,-1
EndSplineSet
EndChar

StartChar: uni0352
Encoding: 850 850 197
Width: 1450
Flags: W
LayerCount: 2
Fore
SplineSet
90 1830 m 1,0,1
 90 1964 90 1964 175 2078 c 1,2,3
 262 2192 262 2192 407 2258 c 1,4,5
 554 2328 554 2328 726 2325 c 1,6,7
 898 2328 898 2328 1044 2259 c 1,8,9
 1191 2192 1191 2192 1275 2078 c 0,10,11
 1360 1964 1360 1964 1360 1830 c 1,12,-1
 995 1830 l 1,13,14
 998 1916 998 1916 917 1978 c 1,15,16
 838 2040 838 2040 726 2040 c 1,17,18
 616 2042 616 2042 535 1979 c 0,19,20
 456 1917 456 1917 456 1830 c 1,21,-1
 90 1830 l 1,0,1
538 1528 m 1,22,-1
 538 1830 l 1,23,-1
 912 1830 l 1,24,-1
 912 1528 l 1,25,-1
 538 1528 l 1,22,-1
EndSplineSet
EndChar

StartChar: uni1FC1
Encoding: 8129 8129 198
Width: 1418
Flags: W
LayerCount: 2
Fore
SplineSet
90 1912 m 1,0,-1
 90 1610 l 1,1,-1
 464 1610 l 1,2,-1
 464 1912 l 1,3,-1
 90 1912 l 1,0,-1
954 1912 m 1,4,-1
 954 1610 l 1,5,-1
 1328 1610 l 1,6,-1
 1328 1912 l 1,7,-1
 954 1912 l 1,4,-1
169 2053 m 1,8,-1
 188 2139 l 1,9,10
 222 2283 222 2283 327 2358 c 1,11,12
 436 2433 436 2433 559 2397 c 2,13,-1
 875 2304 l 2,14,15
 926 2288 926 2288 968 2318 c 0,16,17
 1012 2350 1012 2350 1024 2406 c 1,18,-1
 1249 2339 l 1,19,-1
 1231 2252 l 1,20,21
 1204 2110 1204 2110 1092 2034 c 1,22,23
 984 1958 984 1958 860 1994 c 1,24,-1
 543 2089 l 2,25,26
 496 2104 496 2104 451 2073 c 0,27,28
 407 2043 407 2043 395 1986 c 1,29,-1
 169 2053 l 1,8,-1
EndSplineSet
EndChar

StartChar: glyph199
Encoding: 65542 -1 199
Width: 1418
Flags: W
LayerCount: 2
Fore
SplineSet
90 1912 m 1,0,-1
 90 1610 l 1,1,-1
 464 1610 l 1,2,-1
 464 1912 l 1,3,-1
 90 1912 l 1,0,-1
954 1912 m 1,4,-1
 954 1610 l 1,5,-1
 1328 1610 l 1,6,-1
 1328 1912 l 1,7,-1
 954 1912 l 1,4,-1
593 2790 m 1,8,-1
 1125 2130 l 1,9,-1
 885 1958 l 1,10,-1
 293 2576 l 1,11,-1
 593 2790 l 1,8,-1
EndSplineSet
EndChar

StartChar: uni1FEE
Encoding: 8174 8174 200
Width: 1418
Flags: W
LayerCount: 2
Fore
SplineSet
90 1912 m 1,0,-1
 90 1610 l 1,1,-1
 464 1610 l 1,2,-1
 464 1912 l 1,3,-1
 90 1912 l 1,0,-1
954 1912 m 1,4,-1
 954 1610 l 1,5,-1
 1328 1610 l 1,6,-1
 1328 1912 l 1,7,-1
 954 1912 l 1,4,-1
992 2647 m 1,8,-1
 460 1987 l 1,9,-1
 700 1815 l 1,10,-1
 1292 2433 l 1,11,-1
 992 2647 l 1,8,-1
EndSplineSet
EndChar

StartChar: glyph201
Encoding: 65543 -1 201
Width: 2292
Flags: W
LayerCount: 2
Fore
SplineSet
960 1370 m 1,0,-1
 90 0 l 1,1,-1
 492 0 l 1,2,-1
 683 300 l 1,3,-1
 1610 300 l 1,4,-1
 1799 0 l 1,5,-1
 2202 0 l 1,6,-1
 1332 1370 l 1,7,-1
 960 1370 l 1,0,-1
1147 1030 m 1,8,-1
 1425 590 l 1,9,-1
 867 590 l 1,10,-1
 1147 1030 l 1,8,-1
511 2002 m 1,11,12
 512 1868 512 1868 596 1754 c 1,13,14
 682 1643 682 1643 828 1574 c 1,15,16
 976 1508 976 1508 1147 1507 c 1,17,18
 1319 1507 1319 1507 1465 1573 c 1,19,20
 1612 1642 1612 1642 1696 1754 c 1,21,22
 1784 1868 1784 1868 1781 2002 c 1,23,-1
 1416 2002 l 1,24,25
 1419 1916 1419 1916 1338 1854 c 1,26,27
 1260 1792 1260 1792 1147 1792 c 0,28,29
 1036 1792 1036 1792 956 1853 c 1,30,31
 878 1916 878 1916 877 2002 c 1,32,-1
 511 2002 l 1,11,12
EndSplineSet
EndChar

StartChar: glyph202
Encoding: 65544 -1 202
Width: 2292
Flags: W
LayerCount: 2
Fore
SplineSet
960 1370 m 1,0,-1
 90 0 l 1,1,-1
 492 0 l 1,2,-1
 683 300 l 1,3,-1
 1610 300 l 1,4,-1
 1799 0 l 1,5,-1
 2202 0 l 1,6,-1
 1332 1370 l 1,7,-1
 960 1370 l 1,0,-1
1147 1030 m 1,8,-1
 1425 590 l 1,9,-1
 867 590 l 1,10,-1
 1147 1030 l 1,8,-1
511 1812 m 1,11,-1
 1781 1812 l 1,12,-1
 1781 1507 l 1,13,-1
 511 1507 l 1,14,-1
 511 1812 l 1,11,-1
EndSplineSet
EndChar

StartChar: glyph203
Encoding: 65545 -1 203
Width: 3261
Flags: W
LayerCount: 2
Fore
SplineSet
1929 1370 m 1,0,-1
 1059 0 l 1,1,-1
 1461 0 l 1,2,-1
 1652 300 l 1,3,-1
 2579 300 l 1,4,-1
 2768 0 l 1,5,-1
 3171 0 l 1,6,-1
 2301 1370 l 1,7,-1
 1929 1370 l 1,0,-1
2116 1030 m 1,8,-1
 2394 590 l 1,9,-1
 1836 590 l 1,10,-1
 2116 1030 l 1,8,-1
390 1370 m 1,11,-1
 922 710 l 1,12,-1
 682 538 l 1,13,-1
 90 1156 l 1,14,-1
 390 1370 l 1,11,-1
EndSplineSet
EndChar

StartChar: glyph204
Encoding: 65546 -1 204
Width: 3261
Flags: W
LayerCount: 2
Fore
SplineSet
1929 1370 m 1,0,-1
 1059 0 l 1,1,-1
 1461 0 l 1,2,-1
 1652 300 l 1,3,-1
 2579 300 l 1,4,-1
 2768 0 l 1,5,-1
 3171 0 l 1,6,-1
 2301 1370 l 1,7,-1
 1929 1370 l 1,0,-1
2116 1030 m 1,8,-1
 2394 590 l 1,9,-1
 1836 590 l 1,10,-1
 2116 1030 l 1,8,-1
622 1370 m 1,11,-1
 90 710 l 1,12,-1
 330 538 l 1,13,-1
 922 1156 l 1,14,-1
 622 1370 l 1,11,-1
EndSplineSet
EndChar

StartChar: glyph205
Encoding: 65547 -1 205
Width: 2841
Flags: W
LayerCount: 2
Fore
SplineSet
1059 1370 m 1,0,-1
 1059 0 l 1,1,-1
 2751 0 l 1,2,-1
 2751 305 l 1,3,-1
 1434 305 l 1,4,-1
 1434 541 l 1,5,-1
 2575 541 l 1,6,-1
 2575 841 l 1,7,-1
 1434 841 l 1,8,-1
 1434 1065 l 1,9,-1
 2751 1065 l 1,10,-1
 2751 1370 l 1,11,-1
 1059 1370 l 1,0,-1
390 1370 m 1,12,-1
 922 710 l 1,13,-1
 682 538 l 1,14,-1
 90 1156 l 1,15,-1
 390 1370 l 1,12,-1
EndSplineSet
EndChar

StartChar: glyph206
Encoding: 65548 -1 206
Width: 2841
Flags: W
LayerCount: 2
Fore
SplineSet
1059 1370 m 1,0,-1
 1059 0 l 1,1,-1
 2751 0 l 1,2,-1
 2751 305 l 1,3,-1
 1434 305 l 1,4,-1
 1434 541 l 1,5,-1
 2575 541 l 1,6,-1
 2575 841 l 1,7,-1
 1434 841 l 1,8,-1
 1434 1065 l 1,9,-1
 2751 1065 l 1,10,-1
 2751 1370 l 1,11,-1
 1059 1370 l 1,0,-1
622 1370 m 1,12,-1
 90 710 l 1,13,-1
 330 538 l 1,14,-1
 922 1156 l 1,15,-1
 622 1370 l 1,12,-1
EndSplineSet
EndChar

StartChar: glyph207
Encoding: 65549 -1 207
Width: 3004
Flags: W
LayerCount: 2
Fore
SplineSet
1059 1370 m 1,0,-1
 1059 0 l 1,1,-1
 1433 0 l 1,2,-1
 1433 552 l 1,3,-1
 2540 552 l 1,4,-1
 2540 0 l 1,5,-1
 2914 0 l 1,6,-1
 2914 1370 l 1,7,-1
 2540 1370 l 1,8,-1
 2540 857 l 1,9,-1
 1433 857 l 1,10,-1
 1433 1370 l 1,11,-1
 1059 1370 l 1,0,-1
1059 1370 m 1,12,-1
 1059 0 l 1,13,-1
 1433 0 l 1,14,-1
 1433 552 l 1,15,-1
 2540 552 l 1,16,-1
 2540 0 l 1,17,-1
 2914 0 l 1,18,-1
 2914 1370 l 1,19,-1
 2540 1370 l 1,20,-1
 2540 857 l 1,21,-1
 1433 857 l 1,22,-1
 1433 1370 l 1,23,-1
 1059 1370 l 1,12,-1
390 1370 m 1,24,-1
 922 710 l 1,25,-1
 682 538 l 1,26,-1
 90 1156 l 1,27,-1
 390 1370 l 1,24,-1
EndSplineSet
EndChar

StartChar: glyph208
Encoding: 65550 -1 208
Width: 3004
Flags: W
LayerCount: 2
Fore
SplineSet
1059 1370 m 1,0,-1
 1059 0 l 1,1,-1
 1433 0 l 1,2,-1
 1433 552 l 1,3,-1
 2540 552 l 1,4,-1
 2540 0 l 1,5,-1
 2914 0 l 1,6,-1
 2914 1370 l 1,7,-1
 2540 1370 l 1,8,-1
 2540 857 l 1,9,-1
 1433 857 l 1,10,-1
 1433 1370 l 1,11,-1
 1059 1370 l 1,0,-1
1059 1370 m 1,12,-1
 1059 0 l 1,13,-1
 1433 0 l 1,14,-1
 1433 552 l 1,15,-1
 2540 552 l 1,16,-1
 2540 0 l 1,17,-1
 2914 0 l 1,18,-1
 2914 1370 l 1,19,-1
 2540 1370 l 1,20,-1
 2540 857 l 1,21,-1
 1433 857 l 1,22,-1
 1433 1370 l 1,23,-1
 1059 1370 l 1,12,-1
622 1370 m 1,24,-1
 90 710 l 1,25,-1
 330 538 l 1,26,-1
 922 1156 l 1,27,-1
 622 1370 l 1,24,-1
EndSplineSet
EndChar

StartChar: glyph209
Encoding: 65551 -1 209
Width: 1450
Flags: W
LayerCount: 2
Fore
SplineSet
538 1370 m 1,0,-1
 538 0 l 1,1,-1
 912 0 l 1,2,-1
 912 1370 l 1,3,-1
 538 1370 l 1,0,-1
90 2002 m 1,4,5
 90 1868 90 1868 175 1754 c 1,6,7
 262 1643 262 1643 407 1574 c 1,8,9
 554 1508 554 1508 726 1507 c 0,10,11
 898 1507 898 1507 1044 1573 c 1,12,13
 1191 1642 1191 1642 1275 1754 c 0,14,15
 1360 1868 1360 1868 1360 2002 c 1,16,-1
 995 2002 l 1,17,18
 998 1916 998 1916 917 1854 c 1,19,20
 838 1792 838 1792 726 1792 c 0,21,22
 616 1792 616 1792 535 1853 c 1,23,24
 456 1916 456 1916 456 2002 c 1,25,-1
 90 2002 l 1,4,5
EndSplineSet
EndChar

StartChar: glyph210
Encoding: 65552 -1 210
Width: 1450
Flags: W
LayerCount: 2
Fore
SplineSet
538 1370 m 1,0,-1
 538 0 l 1,1,-1
 912 0 l 1,2,-1
 912 1370 l 1,3,-1
 538 1370 l 1,0,-1
90 1812 m 1,4,-1
 1360 1812 l 1,5,-1
 1360 1507 l 1,6,-1
 90 1507 l 1,7,-1
 90 1812 l 1,4,-1
EndSplineSet
EndChar

StartChar: glyph211
Encoding: 65553 -1 211
Width: 1523
Flags: W
LayerCount: 2
Fore
SplineSet
1059 1370 m 1,0,-1
 1059 0 l 1,1,-1
 1433 0 l 1,2,-1
 1433 1370 l 1,3,-1
 1059 1370 l 1,0,-1
390 1370 m 1,4,-1
 922 710 l 1,5,-1
 682 538 l 1,6,-1
 90 1156 l 1,7,-1
 390 1370 l 1,4,-1
EndSplineSet
EndChar

StartChar: glyph212
Encoding: 65554 -1 212
Width: 1523
Flags: W
LayerCount: 2
Fore
SplineSet
1059 1370 m 1,0,-1
 1059 0 l 1,1,-1
 1433 0 l 1,2,-1
 1433 1370 l 1,3,-1
 1059 1370 l 1,0,-1
622 1370 m 1,4,-1
 90 710 l 1,5,-1
 330 538 l 1,6,-1
 922 1156 l 1,7,-1
 622 1370 l 1,4,-1
EndSplineSet
EndChar

StartChar: glyph213
Encoding: 65555 -1 213
Width: 2446
Flags: W
LayerCount: 2
Fore
SplineSet
90 1370 m 1,0,-1
 1036 496 l 1,1,-1
 1036 0 l 1,2,-1
 1410 0 l 1,3,-1
 1410 496 l 1,4,-1
 2356 1370 l 1,5,-1
 1804 1370 l 1,6,-1
 1223 793 l 1,7,-1
 642 1370 l 1,8,-1
 90 1370 l 1,0,-1
588 2002 m 1,9,10
 588 1868 588 1868 673 1754 c 1,11,12
 760 1643 760 1643 905 1574 c 1,13,14
 1052 1508 1052 1508 1224 1507 c 0,15,16
 1396 1507 1396 1507 1542 1573 c 1,17,18
 1689 1642 1689 1642 1773 1754 c 0,19,20
 1858 1868 1858 1868 1858 2002 c 1,21,-1
 1493 2002 l 1,22,23
 1496 1916 1496 1916 1415 1854 c 1,24,25
 1336 1792 1336 1792 1224 1792 c 0,26,27
 1114 1792 1114 1792 1033 1853 c 1,28,29
 954 1916 954 1916 954 2002 c 1,30,-1
 588 2002 l 1,9,10
EndSplineSet
EndChar

StartChar: glyph214
Encoding: 65556 -1 214
Width: 2446
Flags: W
LayerCount: 2
Fore
SplineSet
90 1370 m 1,0,-1
 1036 496 l 1,1,-1
 1036 0 l 1,2,-1
 1410 0 l 1,3,-1
 1410 496 l 1,4,-1
 2356 1370 l 1,5,-1
 1804 1370 l 1,6,-1
 1223 793 l 1,7,-1
 642 1370 l 1,8,-1
 90 1370 l 1,0,-1
588 1812 m 1,9,-1
 1858 1812 l 1,10,-1
 1858 1507 l 1,11,-1
 588 1507 l 1,12,-1
 588 1812 l 1,9,-1
EndSplineSet
EndChar

StartChar: glyph215
Encoding: 65557 -1 215
Width: 3415
Flags: W
LayerCount: 2
Fore
SplineSet
1059 1370 m 1,0,-1
 2005 496 l 1,1,-1
 2005 0 l 1,2,-1
 2379 0 l 1,3,-1
 2379 496 l 1,4,-1
 3325 1370 l 1,5,-1
 2773 1370 l 1,6,-1
 2192 793 l 1,7,-1
 1611 1370 l 1,8,-1
 1059 1370 l 1,0,-1
390 1370 m 1,9,-1
 922 710 l 1,10,-1
 682 538 l 1,11,-1
 90 1156 l 1,12,-1
 390 1370 l 1,9,-1
EndSplineSet
EndChar

StartChar: glyph216
Encoding: 65558 -1 216
Width: 3415
Flags: W
LayerCount: 2
Fore
SplineSet
1059 1370 m 1,0,-1
 2005 496 l 1,1,-1
 2005 0 l 1,2,-1
 2379 0 l 1,3,-1
 2379 496 l 1,4,-1
 3325 1370 l 1,5,-1
 2773 1370 l 1,6,-1
 2192 793 l 1,7,-1
 1611 1370 l 1,8,-1
 1059 1370 l 1,0,-1
622 1370 m 1,9,-1
 90 710 l 1,10,-1
 330 538 l 1,11,-1
 922 1156 l 1,12,-1
 622 1370 l 1,9,-1
EndSplineSet
EndChar

StartChar: glyph217
Encoding: 65559 -1 217
Width: 3102
Flags: W
LayerCount: 2
Fore
SplineSet
1499 1370 m 2,0,1
 1317 1370 1317 1370 1188 1253 c 256,2,3
 1059 1136 1059 1136 1059 970 c 2,4,-1
 1059 400 l 2,5,6
 1059 234 1059 234 1187 117 c 0,7,8
 1316 0 1316 0 1499 0 c 2,9,-1
 2571 0 l 2,10,11
 2754 0 2754 0 2882 117 c 0,12,13
 3011 234 3011 234 3011 400 c 2,14,-1
 3011 970 l 1,15,16
 3012 1136 3012 1136 2883 1253 c 256,17,18
 2754 1370 2754 1370 2571 1370 c 2,19,-1
 1499 1370 l 2,0,1
1609 1065 m 1,20,-1
 2461 1065 l 1,21,22
 2536 1068 2536 1068 2585 1019 c 1,23,24
 2637 974 2637 974 2637 905 c 2,25,-1
 2637 465 l 2,26,27
 2637 400 2637 400 2586 352 c 1,28,29
 2536 308 2536 308 2461 305 c 1,30,-1
 1609 305 l 1,31,32
 1537 306 1537 306 1485 351 c 1,33,34
 1434 399 1434 399 1433 465 c 1,35,-1
 1433 905 l 2,36,37
 1433 974 1433 974 1484 1018 c 0,38,39
 1538 1066 1538 1066 1609 1065 c 1,20,-1
390 1370 m 1,40,-1
 922 710 l 1,41,-1
 682 538 l 1,42,-1
 90 1156 l 1,43,-1
 390 1370 l 1,40,-1
EndSplineSet
EndChar

StartChar: glyph218
Encoding: 65560 -1 218
Width: 3102
Flags: W
LayerCount: 2
Fore
SplineSet
1499 1370 m 2,0,1
 1317 1370 1317 1370 1188 1253 c 256,2,3
 1059 1136 1059 1136 1059 970 c 2,4,-1
 1059 400 l 2,5,6
 1059 234 1059 234 1187 117 c 0,7,8
 1316 0 1316 0 1499 0 c 2,9,-1
 2571 0 l 2,10,11
 2754 0 2754 0 2882 117 c 0,12,13
 3011 234 3011 234 3011 400 c 2,14,-1
 3011 970 l 1,15,16
 3012 1136 3012 1136 2883 1253 c 256,17,18
 2754 1370 2754 1370 2571 1370 c 2,19,-1
 1499 1370 l 2,0,1
1609 1065 m 1,20,-1
 2461 1065 l 1,21,22
 2536 1068 2536 1068 2585 1019 c 1,23,24
 2637 974 2637 974 2637 905 c 2,25,-1
 2637 465 l 2,26,27
 2637 400 2637 400 2586 352 c 1,28,29
 2536 308 2536 308 2461 305 c 1,30,-1
 1609 305 l 1,31,32
 1537 306 1537 306 1485 351 c 1,33,34
 1434 399 1434 399 1433 465 c 1,35,-1
 1433 905 l 2,36,37
 1433 974 1433 974 1484 1018 c 0,38,39
 1538 1066 1538 1066 1609 1065 c 1,20,-1
622 1370 m 1,40,-1
 90 710 l 1,41,-1
 330 538 l 1,42,-1
 922 1156 l 1,43,-1
 622 1370 l 1,40,-1
EndSplineSet
EndChar

StartChar: glyph219
Encoding: 65561 -1 219
Width: 3320
Flags: W
LayerCount: 2
Fore
SplineSet
1664 1370 m 2,0,1
 1481 1370 1481 1370 1352 1253 c 0,2,3
 1224 1136 1224 1136 1224 970 c 2,4,-1
 1224 485 l 2,5,6
 1224 365 1224 365 1304 305 c 1,7,-1
 1059 305 l 1,8,-1
 1059 0 l 1,9,-1
 1957 0 l 1,10,-1
 1957 305 l 1,11,-1
 1774 305 l 1,12,13
 1700 306 1700 306 1649 351 c 1,14,15
 1598 399 1598 399 1598 465 c 2,16,-1
 1598 905 l 2,17,18
 1598 974 1598 974 1649 1018 c 1,19,20
 1700 1066 1700 1066 1774 1065 c 1,21,-1
 2515 1065 l 1,22,23
 2590 1068 2590 1068 2640 1019 c 1,24,25
 2691 974 2691 974 2691 905 c 2,26,-1
 2691 465 l 2,27,28
 2691 400 2691 400 2640 352 c 1,29,30
 2590 308 2590 308 2515 305 c 1,31,-1
 2331 305 l 1,32,-1
 2331 0 l 1,33,-1
 3230 0 l 1,34,-1
 3230 305 l 1,35,-1
 2988 305 l 1,36,37
 3066 368 3066 368 3065 485 c 1,38,-1
 3065 970 l 1,39,40
 3066 1136 3066 1136 2937 1253 c 0,41,42
 2809 1370 2809 1370 2625 1370 c 2,43,-1
 2145 1370 l 1,44,-1
 1664 1370 l 2,0,1
390 1370 m 1,45,-1
 922 710 l 1,46,-1
 682 538 l 1,47,-1
 90 1156 l 1,48,-1
 390 1370 l 1,45,-1
EndSplineSet
EndChar

StartChar: glyph220
Encoding: 65562 -1 220
Width: 3320
Flags: W
LayerCount: 2
Fore
SplineSet
1664 1370 m 2,0,1
 1481 1370 1481 1370 1352 1253 c 0,2,3
 1224 1136 1224 1136 1224 970 c 2,4,-1
 1224 485 l 2,5,6
 1224 365 1224 365 1304 305 c 1,7,-1
 1059 305 l 1,8,-1
 1059 0 l 1,9,-1
 1957 0 l 1,10,-1
 1957 305 l 1,11,-1
 1774 305 l 1,12,13
 1700 306 1700 306 1649 351 c 1,14,15
 1598 399 1598 399 1598 465 c 2,16,-1
 1598 905 l 2,17,18
 1598 974 1598 974 1649 1018 c 1,19,20
 1700 1066 1700 1066 1774 1065 c 1,21,-1
 2515 1065 l 1,22,23
 2590 1068 2590 1068 2640 1019 c 1,24,25
 2691 974 2691 974 2691 905 c 2,26,-1
 2691 465 l 2,27,28
 2691 400 2691 400 2640 352 c 1,29,30
 2590 308 2590 308 2515 305 c 1,31,-1
 2331 305 l 1,32,-1
 2331 0 l 1,33,-1
 3230 0 l 1,34,-1
 3230 305 l 1,35,-1
 2988 305 l 1,36,37
 3066 368 3066 368 3065 485 c 1,38,-1
 3065 970 l 1,39,40
 3066 1136 3066 1136 2937 1253 c 0,41,42
 2809 1370 2809 1370 2625 1370 c 2,43,-1
 2145 1370 l 1,44,-1
 1664 1370 l 2,0,1
622 1370 m 1,45,-1
 90 710 l 1,46,-1
 330 538 l 1,47,-1
 922 1156 l 1,48,-1
 622 1370 l 1,45,-1
EndSplineSet
EndChar

StartChar: commaabovecmb
Encoding: 787 787 221
AltUni2: 001fbf.ffffffff.0 001fbd.ffffffff.0
Width: 724
Flags: W
LayerCount: 2
Fore
SplineSet
260 1370 m 1,0,-1
 90 774 l 1,1,-1
 387 774 l 1,2,-1
 634 1370 l 1,3,-1
 260 1370 l 1,0,-1
EndSplineSet
EndChar

StartChar: commareversedabovecmb
Encoding: 788 788 222
AltUni2: 001ffe.ffffffff.0
Width: 724
Flags: W
LayerCount: 2
Fore
SplineSet
464 1370 m 1,0,-1
 634 774 l 1,1,-1
 337 774 l 1,2,-1
 90 1370 l 1,3,-1
 464 1370 l 1,0,-1
EndSplineSet
EndChar

StartChar: commaturnedabovecmb
Encoding: 786 786 223
Width: 724
Flags: W
LayerCount: 2
Fore
SplineSet
464 774 m 1,0,-1
 634 1370 l 1,1,-1
 337 1370 l 1,2,-1
 90 774 l 1,3,-1
 464 774 l 1,0,-1
EndSplineSet
EndChar

StartChar: ypogegrammeni
Encoding: 890 890 224
Width: 924
Flags: W
LayerCount: 2
Fore
SplineSet
90 0 m 1,0,-1
 90 -285 l 2,1,2
 90 -450 90 -450 218 -568 c 1,3,4
 347 -685 347 -685 530 -685 c 2,5,-1
 834 -685 l 1,6,-1
 834 -451 l 1,7,-1
 640 -451 l 1,8,9
 568 -450 568 -450 516 -405 c 1,10,11
 464 -357 464 -357 464 -291 c 2,12,-1
 464 0 l 1,13,-1
 90 0 l 1,0,-1
EndSplineSet
EndChar

StartChar: ypogegrammenigreekcmb
Encoding: 837 837 225
AltUni2: 001fbe.ffffffff.0
Width: 924
Flags: W
LayerCount: 2
Fore
SplineSet
90 -50 m 1,0,-1
 90 -335 l 2,1,2
 90 -500 90 -500 218 -618 c 1,3,4
 347 -735 347 -735 530 -735 c 2,5,-1
 834 -735 l 1,6,-1
 834 -501 l 1,7,-1
 640 -501 l 1,8,9
 568 -500 568 -500 516 -455 c 1,10,11
 464 -407 464 -407 464 -341 c 2,12,-1
 464 -50 l 1,13,-1
 90 -50 l 1,0,-1
EndSplineSet
EndChar

StartChar: uni1FCD
Encoding: 8141 8141 226
Width: 1637
Flags: W
LayerCount: 2
Fore
SplineSet
260 1635 m 1,0,-1
 90 1039 l 1,1,-1
 387 1039 l 1,2,-1
 634 1635 l 1,3,-1
 260 1635 l 1,0,-1
1015 1875 m 1,4,-1
 1547 1215 l 1,5,-1
 1307 1043 l 1,6,-1
 715 1661 l 1,7,-1
 1015 1875 l 1,4,-1
EndSplineSet
EndChar

StartChar: glyph227
Encoding: 65563 -1 227
Width: 1602
Flags: W
LayerCount: 2
Fore
SplineSet
260 1370 m 1,0,-1
 90 774 l 1,1,-1
 387 774 l 1,2,-1
 634 1370 l 1,3,-1
 260 1370 l 1,0,-1
1212 2247 m 1,4,-1
 680 1587 l 1,5,-1
 920 1415 l 1,6,-1
 1512 2033 l 1,7,-1
 1212 2247 l 1,4,-1
EndSplineSet
EndChar

StartChar: uni1FDD
Encoding: 8157 8157 228
Width: 1481
Flags: W
LayerCount: 2
Fore
SplineSet
464 1635 m 1,0,-1
 634 1039 l 1,1,-1
 337 1039 l 1,2,-1
 90 1635 l 1,3,-1
 464 1635 l 1,0,-1
859 1875 m 1,4,-1
 1391 1215 l 1,5,-1
 1151 1043 l 1,6,-1
 559 1661 l 1,7,-1
 859 1875 l 1,4,-1
EndSplineSet
EndChar

StartChar: uni1FDE
Encoding: 8158 8158 229
Width: 1622
Flags: W
LayerCount: 2
Fore
SplineSet
464 1635 m 1,0,-1
 634 1039 l 1,1,-1
 337 1039 l 1,2,-1
 90 1635 l 1,3,-1
 464 1635 l 1,0,-1
1232 1875 m 1,4,-1
 700 1215 l 1,5,-1
 940 1043 l 1,6,-1
 1532 1661 l 1,7,-1
 1232 1875 l 1,4,-1
EndSplineSet
EndChar

StartChar: uni1FCF
Encoding: 8143 8143 230
Width: 1260
Flags: W
LayerCount: 2
Fore
SplineSet
424 1370 m 1,0,-1
 254 774 l 1,1,-1
 551 774 l 1,2,-1
 798 1370 l 1,3,-1
 424 1370 l 1,0,-1
90 1529 m 1,4,-1
 109 1615 l 2,5,6
 140 1759 140 1759 248 1834 c 1,7,8
 358 1909 358 1909 480 1873 c 2,9,-1
 796 1780 l 2,10,11
 847 1764 847 1764 889 1794 c 0,12,13
 934 1826 934 1826 945 1882 c 1,14,-1
 1170 1815 l 1,15,-1
 1152 1728 l 2,16,17
 1122 1586 1122 1586 1013 1510 c 256,18,19
 904 1434 904 1434 781 1470 c 2,20,-1
 464 1565 l 2,21,22
 416 1580 416 1580 372 1549 c 0,23,24
 328 1519 328 1519 316 1462 c 1,25,-1
 90 1529 l 1,4,-1
EndSplineSet
EndChar

StartChar: uni1FDF
Encoding: 8159 8159 231
Width: 1260
Flags: W
LayerCount: 2
Fore
SplineSet
732 1370 m 1,0,-1
 902 774 l 1,1,-1
 605 774 l 1,2,-1
 358 1370 l 1,3,-1
 732 1370 l 1,0,-1
90 1529 m 1,4,-1
 109 1615 l 2,5,6
 140 1759 140 1759 248 1834 c 1,7,8
 358 1909 358 1909 480 1873 c 2,9,-1
 796 1780 l 2,10,11
 847 1764 847 1764 889 1794 c 0,12,13
 934 1826 934 1826 945 1882 c 1,14,-1
 1170 1815 l 1,15,-1
 1152 1728 l 2,16,17
 1122 1586 1122 1586 1013 1510 c 256,18,19
 904 1434 904 1434 781 1470 c 2,20,-1
 464 1565 l 2,21,22
 416 1580 416 1580 372 1549 c 0,23,24
 328 1519 328 1519 316 1462 c 1,25,-1
 90 1529 l 1,4,-1
EndSplineSet
EndChar

StartChar: glyph232
Encoding: 65564 -1 232
Width: 2562
Flags: W
LayerCount: 2
Fore
SplineSet
1230 1370 m 1,0,-1
 360 0 l 1,1,-1
 762 0 l 1,2,-1
 953 300 l 1,3,-1
 1880 300 l 1,4,-1
 2069 0 l 1,5,-1
 2472 0 l 1,6,-1
 1602 1370 l 1,7,-1
 1230 1370 l 1,0,-1
1417 1030 m 1,8,-1
 1695 590 l 1,9,-1
 1137 590 l 1,10,-1
 1417 1030 l 1,8,-1
260 1370 m 1,11,-1
 90 774 l 1,12,-1
 387 774 l 1,13,-1
 634 1370 l 1,14,-1
 260 1370 l 1,11,-1
EndSplineSet
EndChar

StartChar: glyph233
Encoding: 65565 -1 233
Width: 2562
Flags: W
LayerCount: 2
Fore
SplineSet
1230 1370 m 1,0,-1
 360 0 l 1,1,-1
 762 0 l 1,2,-1
 953 300 l 1,3,-1
 1880 300 l 1,4,-1
 2069 0 l 1,5,-1
 2472 0 l 1,6,-1
 1602 1370 l 1,7,-1
 1230 1370 l 1,0,-1
1417 1030 m 1,8,-1
 1695 590 l 1,9,-1
 1137 590 l 1,10,-1
 1417 1030 l 1,8,-1
464 1370 m 1,11,-1
 634 774 l 1,12,-1
 337 774 l 1,13,-1
 90 1370 l 1,14,-1
 464 1370 l 1,11,-1
EndSplineSet
EndChar

StartChar: glyph234
Encoding: 65566 -1 234
Width: 3454
Flags: W
LayerCount: 2
Fore
SplineSet
2122 1370 m 1,0,-1
 1252 0 l 1,1,-1
 1654 0 l 1,2,-1
 1845 300 l 1,3,-1
 2772 300 l 1,4,-1
 2961 0 l 1,5,-1
 3364 0 l 1,6,-1
 2494 1370 l 1,7,-1
 2122 1370 l 1,0,-1
2309 1030 m 1,8,-1
 2587 590 l 1,9,-1
 2029 590 l 1,10,-1
 2309 1030 l 1,8,-1
260 499 m 1,11,-1
 90 -97 l 1,12,-1
 387 -97 l 1,13,-1
 634 499 l 1,14,-1
 260 499 l 1,11,-1
700 1104 m 1,15,-1
 1232 444 l 1,16,-1
 992 272 l 1,17,-1
 400 890 l 1,18,-1
 700 1104 l 1,15,-1
EndSplineSet
EndChar

StartChar: glyph235
Encoding: 65567 -1 235
Width: 3440
Flags: W
LayerCount: 2
Fore
SplineSet
2108 1370 m 1,0,-1
 1238 0 l 1,1,-1
 1640 0 l 1,2,-1
 1831 300 l 1,3,-1
 2758 300 l 1,4,-1
 2947 0 l 1,5,-1
 3350 0 l 1,6,-1
 2480 1370 l 1,7,-1
 2108 1370 l 1,0,-1
2295 1030 m 1,8,-1
 2573 590 l 1,9,-1
 2015 590 l 1,10,-1
 2295 1030 l 1,8,-1
464 493 m 1,11,-1
 634 -103 l 1,12,-1
 337 -103 l 1,13,-1
 90 493 l 1,14,-1
 464 493 l 1,11,-1
684 998 m 1,15,-1
 1216 338 l 1,16,-1
 976 166 l 1,17,-1
 384 784 l 1,18,-1
 684 998 l 1,15,-1
EndSplineSet
EndChar

StartChar: glyph236
Encoding: 65568 -1 236
Width: 3440
Flags: W
LayerCount: 2
Fore
SplineSet
2108 1370 m 1,0,-1
 1238 0 l 1,1,-1
 1640 0 l 1,2,-1
 1831 300 l 1,3,-1
 2758 300 l 1,4,-1
 2947 0 l 1,5,-1
 3350 0 l 1,6,-1
 2480 1370 l 1,7,-1
 2108 1370 l 1,0,-1
2295 1030 m 1,8,-1
 2573 590 l 1,9,-1
 2015 590 l 1,10,-1
 2295 1030 l 1,8,-1
260 493 m 1,11,-1
 90 -103 l 1,12,-1
 387 -103 l 1,13,-1
 634 493 l 1,14,-1
 260 493 l 1,11,-1
1212 1370 m 1,15,-1
 680 710 l 1,16,-1
 920 538 l 1,17,-1
 1512 1156 l 1,18,-1
 1212 1370 l 1,15,-1
EndSplineSet
EndChar

StartChar: glyph237
Encoding: 65569 -1 237
Width: 3440
Flags: W
LayerCount: 2
Fore
SplineSet
2108 1370 m 1,0,-1
 1238 0 l 1,1,-1
 1640 0 l 1,2,-1
 1831 300 l 1,3,-1
 2758 300 l 1,4,-1
 2947 0 l 1,5,-1
 3350 0 l 1,6,-1
 2480 1370 l 1,7,-1
 2108 1370 l 1,0,-1
2295 1030 m 1,8,-1
 2573 590 l 1,9,-1
 2015 590 l 1,10,-1
 2295 1030 l 1,8,-1
464 493 m 1,11,-1
 634 -103 l 1,12,-1
 337 -103 l 1,13,-1
 90 493 l 1,14,-1
 464 493 l 1,11,-1
1148 998 m 1,15,-1
 616 338 l 1,16,-1
 856 166 l 1,17,-1
 1448 784 l 1,18,-1
 1148 998 l 1,15,-1
EndSplineSet
EndChar

StartChar: glyph238
Encoding: 65570 -1 238
Width: 2830
Flags: W
LayerCount: 2
Fore
SplineSet
1498 1370 m 1,0,-1
 628 0 l 1,1,-1
 1030 0 l 1,2,-1
 1221 300 l 1,3,-1
 2148 300 l 1,4,-1
 2337 0 l 1,5,-1
 2740 0 l 1,6,-1
 1870 1370 l 1,7,-1
 1498 1370 l 1,0,-1
1685 1030 m 1,8,-1
 1963 590 l 1,9,-1
 1405 590 l 1,10,-1
 1685 1030 l 1,8,-1
424 895 m 1,11,-1
 254 299 l 1,12,-1
 551 299 l 1,13,-1
 798 895 l 1,14,-1
 424 895 l 1,11,-1
90 1054 m 1,15,-1
 109 1140 l 2,16,17
 140 1284 140 1284 248 1359 c 1,18,19
 358 1434 358 1434 480 1398 c 2,20,-1
 796 1305 l 2,21,22
 847 1290 847 1290 889 1319 c 1,23,24
 934 1352 934 1352 945 1407 c 1,25,-1
 1170 1340 l 1,26,-1
 1152 1253 l 2,27,28
 1122 1112 1122 1112 1013 1035 c 1,29,30
 904 960 904 960 781 995 c 1,31,-1
 464 1090 l 1,32,33
 416 1106 416 1106 372 1074 c 1,34,35
 328 1044 328 1044 316 987 c 1,36,-1
 90 1054 l 1,15,-1
EndSplineSet
EndChar

StartChar: glyph239
Encoding: 65571 -1 239
Width: 2930
Flags: W
LayerCount: 2
Fore
SplineSet
1598 1370 m 1,0,-1
 728 0 l 1,1,-1
 1130 0 l 1,2,-1
 1321 300 l 1,3,-1
 2248 300 l 1,4,-1
 2437 0 l 1,5,-1
 2840 0 l 1,6,-1
 1970 1370 l 1,7,-1
 1598 1370 l 1,0,-1
1785 1030 m 1,8,-1
 2063 590 l 1,9,-1
 1505 590 l 1,10,-1
 1785 1030 l 1,8,-1
732 895 m 1,11,-1
 902 299 l 1,12,-1
 605 299 l 1,13,-1
 358 895 l 1,14,-1
 732 895 l 1,11,-1
90 1054 m 1,15,-1
 109 1140 l 2,16,17
 140 1284 140 1284 248 1359 c 1,18,19
 358 1434 358 1434 480 1398 c 2,20,-1
 796 1305 l 2,21,22
 847 1290 847 1290 889 1319 c 1,23,24
 934 1352 934 1352 945 1407 c 1,25,-1
 1170 1340 l 1,26,-1
 1152 1253 l 2,27,28
 1122 1112 1122 1112 1013 1035 c 1,29,30
 904 960 904 960 781 995 c 1,31,-1
 464 1090 l 1,32,33
 416 1106 416 1106 372 1074 c 1,34,35
 328 1044 328 1044 316 987 c 1,36,-1
 90 1054 l 1,15,-1
EndSplineSet
EndChar

StartChar: glyph240
Encoding: 65572 -1 240
Width: 2553
Flags: W
LayerCount: 2
Fore
SplineSet
771 1370 m 1,0,-1
 771 0 l 1,1,-1
 2463 0 l 1,2,-1
 2463 305 l 1,3,-1
 1146 305 l 1,4,-1
 1146 541 l 1,5,-1
 2287 541 l 1,6,-1
 2287 841 l 1,7,-1
 1146 841 l 1,8,-1
 1146 1065 l 1,9,-1
 2463 1065 l 1,10,-1
 2463 1370 l 1,11,-1
 771 1370 l 1,0,-1
260 1370 m 1,12,-1
 90 774 l 1,13,-1
 387 774 l 1,14,-1
 634 1370 l 1,15,-1
 260 1370 l 1,12,-1
EndSplineSet
EndChar

StartChar: glyph241
Encoding: 65573 -1 241
Width: 2553
Flags: W
LayerCount: 2
Fore
SplineSet
771 1370 m 1,0,-1
 771 0 l 1,1,-1
 2463 0 l 1,2,-1
 2463 305 l 1,3,-1
 1146 305 l 1,4,-1
 1146 541 l 1,5,-1
 2287 541 l 1,6,-1
 2287 841 l 1,7,-1
 1146 841 l 1,8,-1
 1146 1065 l 1,9,-1
 2463 1065 l 1,10,-1
 2463 1370 l 1,11,-1
 771 1370 l 1,0,-1
464 1370 m 1,12,-1
 634 774 l 1,13,-1
 337 774 l 1,14,-1
 90 1370 l 1,15,-1
 464 1370 l 1,12,-1
EndSplineSet
EndChar

StartChar: glyph242
Encoding: 65574 -1 242
Width: 3431
Flags: W
LayerCount: 2
Fore
SplineSet
1649 1370 m 1,0,-1
 1649 0 l 1,1,-1
 3341 0 l 1,2,-1
 3341 305 l 1,3,-1
 2024 305 l 1,4,-1
 2024 541 l 1,5,-1
 3165 541 l 1,6,-1
 3165 841 l 1,7,-1
 2024 841 l 1,8,-1
 2024 1065 l 1,9,-1
 3341 1065 l 1,10,-1
 3341 1370 l 1,11,-1
 1649 1370 l 1,0,-1
260 493 m 1,12,-1
 90 -103 l 1,13,-1
 387 -103 l 1,14,-1
 634 493 l 1,15,-1
 260 493 l 1,12,-1
700 1098 m 1,16,-1
 1232 438 l 1,17,-1
 992 266 l 1,18,-1
 400 884 l 1,19,-1
 700 1098 l 1,16,-1
EndSplineSet
EndChar

StartChar: glyph243
Encoding: 65575 -1 243
Width: 3431
Flags: W
LayerCount: 2
Fore
SplineSet
1649 1370 m 1,0,-1
 1649 0 l 1,1,-1
 3341 0 l 1,2,-1
 3341 305 l 1,3,-1
 2024 305 l 1,4,-1
 2024 541 l 1,5,-1
 3165 541 l 1,6,-1
 3165 841 l 1,7,-1
 2024 841 l 1,8,-1
 2024 1065 l 1,9,-1
 3341 1065 l 1,10,-1
 3341 1370 l 1,11,-1
 1649 1370 l 1,0,-1
464 493 m 1,12,-1
 634 -103 l 1,13,-1
 337 -103 l 1,14,-1
 90 493 l 1,15,-1
 464 493 l 1,12,-1
684 998 m 1,16,-1
 1216 338 l 1,17,-1
 976 166 l 1,18,-1
 384 784 l 1,19,-1
 684 998 l 1,16,-1
EndSplineSet
EndChar

StartChar: glyph244
Encoding: 65576 -1 244
Width: 3431
Flags: W
LayerCount: 2
Fore
SplineSet
1649 1370 m 1,0,-1
 1649 0 l 1,1,-1
 3341 0 l 1,2,-1
 3341 305 l 1,3,-1
 2024 305 l 1,4,-1
 2024 541 l 1,5,-1
 3165 541 l 1,6,-1
 3165 841 l 1,7,-1
 2024 841 l 1,8,-1
 2024 1065 l 1,9,-1
 3341 1065 l 1,10,-1
 3341 1370 l 1,11,-1
 1649 1370 l 1,0,-1
260 493 m 1,12,-1
 90 -103 l 1,13,-1
 387 -103 l 1,14,-1
 634 493 l 1,15,-1
 260 493 l 1,12,-1
1212 1370 m 1,16,-1
 680 710 l 1,17,-1
 920 538 l 1,18,-1
 1512 1156 l 1,19,-1
 1212 1370 l 1,16,-1
EndSplineSet
EndChar

StartChar: glyph245
Encoding: 65577 -1 245
Width: 3431
Flags: W
LayerCount: 2
Fore
SplineSet
1649 1370 m 1,0,-1
 1649 0 l 1,1,-1
 3341 0 l 1,2,-1
 3341 305 l 1,3,-1
 2024 305 l 1,4,-1
 2024 541 l 1,5,-1
 3165 541 l 1,6,-1
 3165 841 l 1,7,-1
 2024 841 l 1,8,-1
 2024 1065 l 1,9,-1
 3341 1065 l 1,10,-1
 3341 1370 l 1,11,-1
 1649 1370 l 1,0,-1
464 493 m 1,12,-1
 634 -103 l 1,13,-1
 337 -103 l 1,14,-1
 90 493 l 1,15,-1
 464 493 l 1,12,-1
1148 998 m 1,16,-1
 616 338 l 1,17,-1
 856 166 l 1,18,-1
 1448 784 l 1,19,-1
 1148 998 l 1,16,-1
EndSplineSet
EndChar

StartChar: glyph246
Encoding: 65578 -1 246
Width: 2716
Flags: W
LayerCount: 2
Fore
SplineSet
771 1370 m 1,0,-1
 771 0 l 1,1,-1
 1145 0 l 1,2,-1
 1145 552 l 1,3,-1
 2252 552 l 1,4,-1
 2252 0 l 1,5,-1
 2626 0 l 1,6,-1
 2626 1370 l 1,7,-1
 2252 1370 l 1,8,-1
 2252 857 l 1,9,-1
 1145 857 l 1,10,-1
 1145 1370 l 1,11,-1
 771 1370 l 1,0,-1
771 1370 m 1,12,-1
 771 0 l 1,13,-1
 1145 0 l 1,14,-1
 1145 552 l 1,15,-1
 2252 552 l 1,16,-1
 2252 0 l 1,17,-1
 2626 0 l 1,18,-1
 2626 1370 l 1,19,-1
 2252 1370 l 1,20,-1
 2252 857 l 1,21,-1
 1145 857 l 1,22,-1
 1145 1370 l 1,23,-1
 771 1370 l 1,12,-1
260 1370 m 1,24,-1
 90 774 l 1,25,-1
 387 774 l 1,26,-1
 634 1370 l 1,27,-1
 260 1370 l 1,24,-1
EndSplineSet
EndChar

StartChar: glyph247
Encoding: 65579 -1 247
Width: 2716
Flags: W
LayerCount: 2
Fore
SplineSet
771 1370 m 1,0,-1
 771 0 l 1,1,-1
 1145 0 l 1,2,-1
 1145 552 l 1,3,-1
 2252 552 l 1,4,-1
 2252 0 l 1,5,-1
 2626 0 l 1,6,-1
 2626 1370 l 1,7,-1
 2252 1370 l 1,8,-1
 2252 857 l 1,9,-1
 1145 857 l 1,10,-1
 1145 1370 l 1,11,-1
 771 1370 l 1,0,-1
771 1370 m 1,12,-1
 771 0 l 1,13,-1
 1145 0 l 1,14,-1
 1145 552 l 1,15,-1
 2252 552 l 1,16,-1
 2252 0 l 1,17,-1
 2626 0 l 1,18,-1
 2626 1370 l 1,19,-1
 2252 1370 l 1,20,-1
 2252 857 l 1,21,-1
 1145 857 l 1,22,-1
 1145 1370 l 1,23,-1
 771 1370 l 1,12,-1
464 1370 m 1,24,-1
 634 774 l 1,25,-1
 337 774 l 1,26,-1
 90 1370 l 1,27,-1
 464 1370 l 1,24,-1
EndSplineSet
EndChar

StartChar: glyph248
Encoding: 65580 -1 248
Width: 3594
Flags: W
LayerCount: 2
Fore
SplineSet
1649 1370 m 1,0,-1
 1649 0 l 1,1,-1
 2023 0 l 1,2,-1
 2023 552 l 1,3,-1
 3130 552 l 1,4,-1
 3130 0 l 1,5,-1
 3504 0 l 1,6,-1
 3504 1370 l 1,7,-1
 3130 1370 l 1,8,-1
 3130 857 l 1,9,-1
 2023 857 l 1,10,-1
 2023 1370 l 1,11,-1
 1649 1370 l 1,0,-1
1649 1370 m 1,12,-1
 1649 0 l 1,13,-1
 2023 0 l 1,14,-1
 2023 552 l 1,15,-1
 3130 552 l 1,16,-1
 3130 0 l 1,17,-1
 3504 0 l 1,18,-1
 3504 1370 l 1,19,-1
 3130 1370 l 1,20,-1
 3130 857 l 1,21,-1
 2023 857 l 1,22,-1
 2023 1370 l 1,23,-1
 1649 1370 l 1,12,-1
260 493 m 1,24,-1
 90 -103 l 1,25,-1
 387 -103 l 1,26,-1
 634 493 l 1,27,-1
 260 493 l 1,24,-1
700 1098 m 1,28,-1
 1232 438 l 1,29,-1
 992 266 l 1,30,-1
 400 884 l 1,31,-1
 700 1098 l 1,28,-1
EndSplineSet
EndChar

StartChar: glyph249
Encoding: 65581 -1 249
Width: 3594
Flags: W
LayerCount: 2
Fore
SplineSet
1649 1370 m 1,0,-1
 1649 0 l 1,1,-1
 2023 0 l 1,2,-1
 2023 552 l 1,3,-1
 3130 552 l 1,4,-1
 3130 0 l 1,5,-1
 3504 0 l 1,6,-1
 3504 1370 l 1,7,-1
 3130 1370 l 1,8,-1
 3130 857 l 1,9,-1
 2023 857 l 1,10,-1
 2023 1370 l 1,11,-1
 1649 1370 l 1,0,-1
1649 1370 m 1,12,-1
 1649 0 l 1,13,-1
 2023 0 l 1,14,-1
 2023 552 l 1,15,-1
 3130 552 l 1,16,-1
 3130 0 l 1,17,-1
 3504 0 l 1,18,-1
 3504 1370 l 1,19,-1
 3130 1370 l 1,20,-1
 3130 857 l 1,21,-1
 2023 857 l 1,22,-1
 2023 1370 l 1,23,-1
 1649 1370 l 1,12,-1
464 493 m 1,24,-1
 634 -103 l 1,25,-1
 337 -103 l 1,26,-1
 90 493 l 1,27,-1
 464 493 l 1,24,-1
684 998 m 1,28,-1
 1216 338 l 1,29,-1
 976 166 l 1,30,-1
 384 784 l 1,31,-1
 684 998 l 1,28,-1
EndSplineSet
EndChar

StartChar: glyph250
Encoding: 65582 -1 250
Width: 3594
Flags: W
LayerCount: 2
Fore
SplineSet
1649 1370 m 1,0,-1
 1649 0 l 1,1,-1
 2023 0 l 1,2,-1
 2023 552 l 1,3,-1
 3130 552 l 1,4,-1
 3130 0 l 1,5,-1
 3504 0 l 1,6,-1
 3504 1370 l 1,7,-1
 3130 1370 l 1,8,-1
 3130 857 l 1,9,-1
 2023 857 l 1,10,-1
 2023 1370 l 1,11,-1
 1649 1370 l 1,0,-1
1649 1370 m 1,12,-1
 1649 0 l 1,13,-1
 2023 0 l 1,14,-1
 2023 552 l 1,15,-1
 3130 552 l 1,16,-1
 3130 0 l 1,17,-1
 3504 0 l 1,18,-1
 3504 1370 l 1,19,-1
 3130 1370 l 1,20,-1
 3130 857 l 1,21,-1
 2023 857 l 1,22,-1
 2023 1370 l 1,23,-1
 1649 1370 l 1,12,-1
260 493 m 1,24,-1
 90 -103 l 1,25,-1
 387 -103 l 1,26,-1
 634 493 l 1,27,-1
 260 493 l 1,24,-1
1212 1370 m 1,28,-1
 680 710 l 1,29,-1
 920 538 l 1,30,-1
 1512 1156 l 1,31,-1
 1212 1370 l 1,28,-1
EndSplineSet
EndChar

StartChar: glyph251
Encoding: 65583 -1 251
Width: 3594
Flags: W
LayerCount: 2
Fore
SplineSet
1649 1370 m 1,0,-1
 1649 0 l 1,1,-1
 2023 0 l 1,2,-1
 2023 552 l 1,3,-1
 3130 552 l 1,4,-1
 3130 0 l 1,5,-1
 3504 0 l 1,6,-1
 3504 1370 l 1,7,-1
 3130 1370 l 1,8,-1
 3130 857 l 1,9,-1
 2023 857 l 1,10,-1
 2023 1370 l 1,11,-1
 1649 1370 l 1,0,-1
1649 1370 m 1,12,-1
 1649 0 l 1,13,-1
 2023 0 l 1,14,-1
 2023 552 l 1,15,-1
 3130 552 l 1,16,-1
 3130 0 l 1,17,-1
 3504 0 l 1,18,-1
 3504 1370 l 1,19,-1
 3130 1370 l 1,20,-1
 3130 857 l 1,21,-1
 2023 857 l 1,22,-1
 2023 1370 l 1,23,-1
 1649 1370 l 1,12,-1
464 493 m 1,24,-1
 634 -103 l 1,25,-1
 337 -103 l 1,26,-1
 90 493 l 1,27,-1
 464 493 l 1,24,-1
1148 998 m 1,28,-1
 616 338 l 1,29,-1
 856 166 l 1,30,-1
 1448 784 l 1,31,-1
 1148 998 l 1,28,-1
EndSplineSet
EndChar

StartChar: glyph252
Encoding: 65584 -1 252
Width: 3184
Flags: W
LayerCount: 2
Fore
SplineSet
1239 1370 m 1,0,-1
 1239 0 l 1,1,-1
 1613 0 l 1,2,-1
 1613 552 l 1,3,-1
 2720 552 l 1,4,-1
 2720 0 l 1,5,-1
 3094 0 l 1,6,-1
 3094 1370 l 1,7,-1
 2720 1370 l 1,8,-1
 2720 857 l 1,9,-1
 1613 857 l 1,10,-1
 1613 1370 l 1,11,-1
 1239 1370 l 1,0,-1
1239 1370 m 1,12,-1
 1239 0 l 1,13,-1
 1613 0 l 1,14,-1
 1613 552 l 1,15,-1
 2720 552 l 1,16,-1
 2720 0 l 1,17,-1
 3094 0 l 1,18,-1
 3094 1370 l 1,19,-1
 2720 1370 l 1,20,-1
 2720 857 l 1,21,-1
 1613 857 l 1,22,-1
 1613 1370 l 1,23,-1
 1239 1370 l 1,12,-1
424 895 m 1,24,-1
 254 299 l 1,25,-1
 551 299 l 1,26,-1
 798 895 l 1,27,-1
 424 895 l 1,24,-1
90 1054 m 1,28,-1
 109 1140 l 2,29,30
 140 1284 140 1284 248 1359 c 1,31,32
 358 1434 358 1434 480 1398 c 2,33,-1
 796 1305 l 2,34,35
 847 1290 847 1290 889 1319 c 1,36,37
 934 1352 934 1352 945 1407 c 1,38,-1
 1170 1340 l 1,39,-1
 1152 1253 l 2,40,41
 1122 1112 1122 1112 1013 1035 c 1,42,43
 904 960 904 960 781 995 c 1,44,-1
 464 1090 l 1,45,46
 416 1106 416 1106 372 1074 c 1,47,48
 328 1044 328 1044 316 987 c 1,49,-1
 90 1054 l 1,28,-1
EndSplineSet
EndChar

StartChar: glyph253
Encoding: 65585 -1 253
Width: 3184
Flags: W
LayerCount: 2
Fore
SplineSet
1239 1370 m 1,0,-1
 1239 0 l 1,1,-1
 1613 0 l 1,2,-1
 1613 552 l 1,3,-1
 2720 552 l 1,4,-1
 2720 0 l 1,5,-1
 3094 0 l 1,6,-1
 3094 1370 l 1,7,-1
 2720 1370 l 1,8,-1
 2720 857 l 1,9,-1
 1613 857 l 1,10,-1
 1613 1370 l 1,11,-1
 1239 1370 l 1,0,-1
1239 1370 m 1,12,-1
 1239 0 l 1,13,-1
 1613 0 l 1,14,-1
 1613 552 l 1,15,-1
 2720 552 l 1,16,-1
 2720 0 l 1,17,-1
 3094 0 l 1,18,-1
 3094 1370 l 1,19,-1
 2720 1370 l 1,20,-1
 2720 857 l 1,21,-1
 1613 857 l 1,22,-1
 1613 1370 l 1,23,-1
 1239 1370 l 1,12,-1
732 895 m 1,24,-1
 902 299 l 1,25,-1
 605 299 l 1,26,-1
 358 895 l 1,27,-1
 732 895 l 1,24,-1
90 1054 m 1,28,-1
 109 1140 l 2,29,30
 140 1284 140 1284 248 1359 c 1,31,32
 358 1434 358 1434 480 1398 c 2,33,-1
 796 1305 l 2,34,35
 847 1290 847 1290 889 1319 c 1,36,37
 934 1352 934 1352 945 1407 c 1,38,-1
 1170 1340 l 1,39,-1
 1152 1253 l 2,40,41
 1122 1112 1122 1112 1013 1035 c 1,42,43
 904 960 904 960 781 995 c 1,44,-1
 464 1090 l 1,45,46
 416 1106 416 1106 372 1074 c 1,47,48
 328 1044 328 1044 316 987 c 1,49,-1
 90 1054 l 1,28,-1
EndSplineSet
EndChar

StartChar: glyph254
Encoding: 65586 -1 254
Width: 1235
Flags: W
LayerCount: 2
Fore
SplineSet
771 1370 m 1,0,-1
 771 0 l 1,1,-1
 1145 0 l 1,2,-1
 1145 1370 l 1,3,-1
 771 1370 l 1,0,-1
260 1370 m 1,4,-1
 90 774 l 1,5,-1
 387 774 l 1,6,-1
 634 1370 l 1,7,-1
 260 1370 l 1,4,-1
EndSplineSet
EndChar

StartChar: glyph255
Encoding: 65587 -1 255
Width: 1235
Flags: W
LayerCount: 2
Fore
SplineSet
771 1370 m 1,0,-1
 771 0 l 1,1,-1
 1145 0 l 1,2,-1
 1145 1370 l 1,3,-1
 771 1370 l 1,0,-1
464 1370 m 1,4,-1
 634 774 l 1,5,-1
 337 774 l 1,6,-1
 90 1370 l 1,7,-1
 464 1370 l 1,4,-1
EndSplineSet
EndChar

StartChar: glyph256
Encoding: 65588 -1 256
Width: 2113
Flags: W
LayerCount: 2
Fore
SplineSet
1649 1370 m 1,0,-1
 1649 0 l 1,1,-1
 2023 0 l 1,2,-1
 2023 1370 l 1,3,-1
 1649 1370 l 1,0,-1
260 493 m 1,4,-1
 90 -103 l 1,5,-1
 387 -103 l 1,6,-1
 634 493 l 1,7,-1
 260 493 l 1,4,-1
700 1098 m 1,8,-1
 1232 438 l 1,9,-1
 992 266 l 1,10,-1
 400 884 l 1,11,-1
 700 1098 l 1,8,-1
EndSplineSet
EndChar

StartChar: glyph257
Encoding: 65589 -1 257
Width: 2113
Flags: W
LayerCount: 2
Fore
SplineSet
1649 1370 m 1,0,-1
 1649 0 l 1,1,-1
 2023 0 l 1,2,-1
 2023 1370 l 1,3,-1
 1649 1370 l 1,0,-1
464 493 m 1,4,-1
 634 -103 l 1,5,-1
 337 -103 l 1,6,-1
 90 493 l 1,7,-1
 464 493 l 1,4,-1
684 998 m 1,8,-1
 1216 338 l 1,9,-1
 976 166 l 1,10,-1
 384 784 l 1,11,-1
 684 998 l 1,8,-1
EndSplineSet
EndChar

StartChar: glyph258
Encoding: 65590 -1 258
Width: 2113
Flags: W
LayerCount: 2
Fore
SplineSet
1649 1370 m 1,0,-1
 1649 0 l 1,1,-1
 2023 0 l 1,2,-1
 2023 1370 l 1,3,-1
 1649 1370 l 1,0,-1
260 493 m 1,4,-1
 90 -103 l 1,5,-1
 387 -103 l 1,6,-1
 634 493 l 1,7,-1
 260 493 l 1,4,-1
1212 1370 m 1,8,-1
 680 710 l 1,9,-1
 920 538 l 1,10,-1
 1512 1156 l 1,11,-1
 1212 1370 l 1,8,-1
EndSplineSet
EndChar

StartChar: glyph259
Encoding: 65591 -1 259
Width: 2113
Flags: W
LayerCount: 2
Fore
SplineSet
1649 1370 m 1,0,-1
 1649 0 l 1,1,-1
 2023 0 l 1,2,-1
 2023 1370 l 1,3,-1
 1649 1370 l 1,0,-1
464 493 m 1,4,-1
 634 -103 l 1,5,-1
 337 -103 l 1,6,-1
 90 493 l 1,7,-1
 464 493 l 1,4,-1
1148 998 m 1,8,-1
 616 338 l 1,9,-1
 856 166 l 1,10,-1
 1448 784 l 1,11,-1
 1148 998 l 1,8,-1
EndSplineSet
EndChar

StartChar: glyph260
Encoding: 65592 -1 260
Width: 1703
Flags: W
LayerCount: 2
Fore
SplineSet
1239 1370 m 1,0,-1
 1239 0 l 1,1,-1
 1613 0 l 1,2,-1
 1613 1370 l 1,3,-1
 1239 1370 l 1,0,-1
424 895 m 1,4,-1
 254 299 l 1,5,-1
 551 299 l 1,6,-1
 798 895 l 1,7,-1
 424 895 l 1,4,-1
90 1054 m 1,8,-1
 109 1140 l 2,9,10
 140 1284 140 1284 248 1359 c 1,11,12
 358 1434 358 1434 480 1398 c 2,13,-1
 796 1305 l 2,14,15
 847 1290 847 1290 889 1319 c 1,16,17
 934 1352 934 1352 945 1407 c 1,18,-1
 1170 1340 l 1,19,-1
 1152 1253 l 2,20,21
 1122 1112 1122 1112 1013 1035 c 1,22,23
 904 960 904 960 781 995 c 1,24,-1
 464 1090 l 1,25,26
 416 1106 416 1106 372 1074 c 1,27,28
 328 1044 328 1044 316 987 c 1,29,-1
 90 1054 l 1,8,-1
EndSplineSet
EndChar

StartChar: glyph261
Encoding: 65593 -1 261
Width: 1703
Flags: W
LayerCount: 2
Fore
SplineSet
1239 1370 m 1,0,-1
 1239 0 l 1,1,-1
 1613 0 l 1,2,-1
 1613 1370 l 1,3,-1
 1239 1370 l 1,0,-1
732 895 m 1,4,-1
 902 299 l 1,5,-1
 605 299 l 1,6,-1
 358 895 l 1,7,-1
 732 895 l 1,4,-1
90 1054 m 1,8,-1
 109 1140 l 2,9,10
 140 1284 140 1284 248 1359 c 1,11,12
 358 1434 358 1434 480 1398 c 2,13,-1
 796 1305 l 2,14,15
 847 1290 847 1290 889 1319 c 1,16,17
 934 1352 934 1352 945 1407 c 1,18,-1
 1170 1340 l 1,19,-1
 1152 1253 l 2,20,21
 1122 1112 1122 1112 1013 1035 c 1,22,23
 904 960 904 960 781 995 c 1,24,-1
 464 1090 l 1,25,26
 416 1106 416 1106 372 1074 c 1,27,28
 328 1044 328 1044 316 987 c 1,29,-1
 90 1054 l 1,8,-1
EndSplineSet
EndChar

StartChar: glyph262
Encoding: 65594 -1 262
Width: 2814
Flags: W
LayerCount: 2
Fore
SplineSet
1211 1370 m 2,0,1
 1029 1370 1029 1370 900 1253 c 256,2,3
 771 1136 771 1136 771 970 c 2,4,-1
 771 400 l 2,5,6
 771 234 771 234 899 117 c 0,7,8
 1028 0 1028 0 1211 0 c 2,9,-1
 2283 0 l 2,10,11
 2466 0 2466 0 2594 117 c 0,12,13
 2723 234 2723 234 2723 400 c 2,14,-1
 2723 970 l 1,15,16
 2724 1136 2724 1136 2595 1253 c 256,17,18
 2466 1370 2466 1370 2283 1370 c 2,19,-1
 1211 1370 l 2,0,1
1321 1065 m 1,20,-1
 2173 1065 l 1,21,22
 2248 1068 2248 1068 2297 1019 c 1,23,24
 2349 974 2349 974 2349 905 c 2,25,-1
 2349 465 l 2,26,27
 2349 400 2349 400 2298 352 c 1,28,29
 2248 308 2248 308 2173 305 c 1,30,-1
 1321 305 l 1,31,32
 1249 306 1249 306 1197 351 c 1,33,34
 1146 399 1146 399 1145 465 c 1,35,-1
 1145 905 l 2,36,37
 1145 974 1145 974 1196 1018 c 0,38,39
 1250 1066 1250 1066 1321 1065 c 1,20,-1
260 1370 m 1,40,-1
 90 774 l 1,41,-1
 387 774 l 1,42,-1
 634 1370 l 1,43,-1
 260 1370 l 1,40,-1
EndSplineSet
EndChar

StartChar: glyph263
Encoding: 65595 -1 263
Width: 2814
Flags: W
LayerCount: 2
Fore
SplineSet
1211 1370 m 2,0,1
 1029 1370 1029 1370 900 1253 c 256,2,3
 771 1136 771 1136 771 970 c 2,4,-1
 771 400 l 2,5,6
 771 234 771 234 899 117 c 0,7,8
 1028 0 1028 0 1211 0 c 2,9,-1
 2283 0 l 2,10,11
 2466 0 2466 0 2594 117 c 0,12,13
 2723 234 2723 234 2723 400 c 2,14,-1
 2723 970 l 1,15,16
 2724 1136 2724 1136 2595 1253 c 256,17,18
 2466 1370 2466 1370 2283 1370 c 2,19,-1
 1211 1370 l 2,0,1
1321 1065 m 1,20,-1
 2173 1065 l 1,21,22
 2248 1068 2248 1068 2297 1019 c 1,23,24
 2349 974 2349 974 2349 905 c 2,25,-1
 2349 465 l 2,26,27
 2349 400 2349 400 2298 352 c 1,28,29
 2248 308 2248 308 2173 305 c 1,30,-1
 1321 305 l 1,31,32
 1249 306 1249 306 1197 351 c 1,33,34
 1146 399 1146 399 1145 465 c 1,35,-1
 1145 905 l 2,36,37
 1145 974 1145 974 1196 1018 c 0,38,39
 1250 1066 1250 1066 1321 1065 c 1,20,-1
464 1370 m 1,40,-1
 634 774 l 1,41,-1
 337 774 l 1,42,-1
 90 1370 l 1,43,-1
 464 1370 l 1,40,-1
EndSplineSet
EndChar

StartChar: glyph264
Encoding: 65596 -1 264
Width: 3692
Flags: W
LayerCount: 2
Fore
SplineSet
2089 1370 m 2,0,1
 1907 1370 1907 1370 1778 1253 c 256,2,3
 1649 1136 1649 1136 1649 970 c 2,4,-1
 1649 400 l 2,5,6
 1649 234 1649 234 1777 117 c 0,7,8
 1906 0 1906 0 2089 0 c 2,9,-1
 3161 0 l 2,10,11
 3344 0 3344 0 3472 117 c 0,12,13
 3601 234 3601 234 3601 400 c 2,14,-1
 3601 970 l 1,15,16
 3602 1136 3602 1136 3473 1253 c 256,17,18
 3344 1370 3344 1370 3161 1370 c 2,19,-1
 2089 1370 l 2,0,1
2199 1065 m 1,20,-1
 3051 1065 l 1,21,22
 3126 1068 3126 1068 3175 1019 c 1,23,24
 3227 974 3227 974 3227 905 c 2,25,-1
 3227 465 l 2,26,27
 3227 400 3227 400 3176 352 c 1,28,29
 3126 308 3126 308 3051 305 c 1,30,-1
 2199 305 l 1,31,32
 2127 306 2127 306 2075 351 c 1,33,34
 2024 399 2024 399 2023 465 c 1,35,-1
 2023 905 l 2,36,37
 2023 974 2023 974 2074 1018 c 0,38,39
 2128 1066 2128 1066 2199 1065 c 1,20,-1
260 493 m 1,40,-1
 90 -103 l 1,41,-1
 387 -103 l 1,42,-1
 634 493 l 1,43,-1
 260 493 l 1,40,-1
700 1098 m 1,44,-1
 1232 438 l 1,45,-1
 992 266 l 1,46,-1
 400 884 l 1,47,-1
 700 1098 l 1,44,-1
EndSplineSet
EndChar

StartChar: glyph265
Encoding: 65597 -1 265
Width: 3692
Flags: W
LayerCount: 2
Fore
SplineSet
2089 1370 m 2,0,1
 1907 1370 1907 1370 1778 1253 c 256,2,3
 1649 1136 1649 1136 1649 970 c 2,4,-1
 1649 400 l 2,5,6
 1649 234 1649 234 1777 117 c 0,7,8
 1906 0 1906 0 2089 0 c 2,9,-1
 3161 0 l 2,10,11
 3344 0 3344 0 3472 117 c 0,12,13
 3601 234 3601 234 3601 400 c 2,14,-1
 3601 970 l 1,15,16
 3602 1136 3602 1136 3473 1253 c 256,17,18
 3344 1370 3344 1370 3161 1370 c 2,19,-1
 2089 1370 l 2,0,1
2199 1065 m 1,20,-1
 3051 1065 l 1,21,22
 3126 1068 3126 1068 3175 1019 c 1,23,24
 3227 974 3227 974 3227 905 c 2,25,-1
 3227 465 l 2,26,27
 3227 400 3227 400 3176 352 c 1,28,29
 3126 308 3126 308 3051 305 c 1,30,-1
 2199 305 l 1,31,32
 2127 306 2127 306 2075 351 c 1,33,34
 2024 399 2024 399 2023 465 c 1,35,-1
 2023 905 l 2,36,37
 2023 974 2023 974 2074 1018 c 0,38,39
 2128 1066 2128 1066 2199 1065 c 1,20,-1
464 493 m 1,40,-1
 634 -103 l 1,41,-1
 337 -103 l 1,42,-1
 90 493 l 1,43,-1
 464 493 l 1,40,-1
684 998 m 1,44,-1
 1216 338 l 1,45,-1
 976 166 l 1,46,-1
 384 784 l 1,47,-1
 684 998 l 1,44,-1
EndSplineSet
EndChar

StartChar: glyph266
Encoding: 65598 -1 266
Width: 3692
Flags: W
LayerCount: 2
Fore
SplineSet
2089 1370 m 2,0,1
 1907 1370 1907 1370 1778 1253 c 256,2,3
 1649 1136 1649 1136 1649 970 c 2,4,-1
 1649 400 l 2,5,6
 1649 234 1649 234 1777 117 c 0,7,8
 1906 0 1906 0 2089 0 c 2,9,-1
 3161 0 l 2,10,11
 3344 0 3344 0 3472 117 c 0,12,13
 3601 234 3601 234 3601 400 c 2,14,-1
 3601 970 l 1,15,16
 3602 1136 3602 1136 3473 1253 c 256,17,18
 3344 1370 3344 1370 3161 1370 c 2,19,-1
 2089 1370 l 2,0,1
2199 1065 m 1,20,-1
 3051 1065 l 1,21,22
 3126 1068 3126 1068 3175 1019 c 1,23,24
 3227 974 3227 974 3227 905 c 2,25,-1
 3227 465 l 2,26,27
 3227 400 3227 400 3176 352 c 1,28,29
 3126 308 3126 308 3051 305 c 1,30,-1
 2199 305 l 1,31,32
 2127 306 2127 306 2075 351 c 1,33,34
 2024 399 2024 399 2023 465 c 1,35,-1
 2023 905 l 2,36,37
 2023 974 2023 974 2074 1018 c 0,38,39
 2128 1066 2128 1066 2199 1065 c 1,20,-1
260 493 m 1,40,-1
 90 -103 l 1,41,-1
 387 -103 l 1,42,-1
 634 493 l 1,43,-1
 260 493 l 1,40,-1
1212 1370 m 1,44,-1
 680 710 l 1,45,-1
 920 538 l 1,46,-1
 1512 1156 l 1,47,-1
 1212 1370 l 1,44,-1
EndSplineSet
EndChar

StartChar: glyph267
Encoding: 65599 -1 267
Width: 3692
Flags: W
LayerCount: 2
Fore
SplineSet
2089 1370 m 2,0,1
 1907 1370 1907 1370 1778 1253 c 256,2,3
 1649 1136 1649 1136 1649 970 c 2,4,-1
 1649 400 l 2,5,6
 1649 234 1649 234 1777 117 c 0,7,8
 1906 0 1906 0 2089 0 c 2,9,-1
 3161 0 l 2,10,11
 3344 0 3344 0 3472 117 c 0,12,13
 3601 234 3601 234 3601 400 c 2,14,-1
 3601 970 l 1,15,16
 3602 1136 3602 1136 3473 1253 c 256,17,18
 3344 1370 3344 1370 3161 1370 c 2,19,-1
 2089 1370 l 2,0,1
2199 1065 m 1,20,-1
 3051 1065 l 1,21,22
 3126 1068 3126 1068 3175 1019 c 1,23,24
 3227 974 3227 974 3227 905 c 2,25,-1
 3227 465 l 2,26,27
 3227 400 3227 400 3176 352 c 1,28,29
 3126 308 3126 308 3051 305 c 1,30,-1
 2199 305 l 1,31,32
 2127 306 2127 306 2075 351 c 1,33,34
 2024 399 2024 399 2023 465 c 1,35,-1
 2023 905 l 2,36,37
 2023 974 2023 974 2074 1018 c 0,38,39
 2128 1066 2128 1066 2199 1065 c 1,20,-1
464 493 m 1,40,-1
 634 -103 l 1,41,-1
 337 -103 l 1,42,-1
 90 493 l 1,43,-1
 464 493 l 1,40,-1
1148 998 m 1,44,-1
 616 338 l 1,45,-1
 856 166 l 1,46,-1
 1448 784 l 1,47,-1
 1148 998 l 1,44,-1
EndSplineSet
EndChar

StartChar: glyph268
Encoding: 65600 -1 268
Width: 3127
Flags: W
LayerCount: 2
Fore
SplineSet
771 1370 m 1,0,-1
 1717 496 l 1,1,-1
 1717 0 l 1,2,-1
 2091 0 l 1,3,-1
 2091 496 l 1,4,-1
 3037 1370 l 1,5,-1
 2485 1370 l 1,6,-1
 1904 793 l 1,7,-1
 1323 1370 l 1,8,-1
 771 1370 l 1,0,-1
464 1370 m 1,9,-1
 634 774 l 1,10,-1
 337 774 l 1,11,-1
 90 1370 l 1,12,-1
 464 1370 l 1,9,-1
EndSplineSet
EndChar

StartChar: glyph269
Encoding: 65601 -1 269
Width: 4005
Flags: W
LayerCount: 2
Fore
SplineSet
1649 1370 m 1,0,-1
 2595 496 l 1,1,-1
 2595 0 l 1,2,-1
 2969 0 l 1,3,-1
 2969 496 l 1,4,-1
 3915 1370 l 1,5,-1
 3363 1370 l 1,6,-1
 2782 793 l 1,7,-1
 2201 1370 l 1,8,-1
 1649 1370 l 1,0,-1
464 493 m 1,9,-1
 634 -103 l 1,10,-1
 337 -103 l 1,11,-1
 90 493 l 1,12,-1
 464 493 l 1,9,-1
684 998 m 1,13,-1
 1216 338 l 1,14,-1
 976 166 l 1,15,-1
 384 784 l 1,16,-1
 684 998 l 1,13,-1
EndSplineSet
EndChar

StartChar: glyph270
Encoding: 65602 -1 270
Width: 4005
Flags: W
LayerCount: 2
Fore
SplineSet
1649 1370 m 1,0,-1
 2595 496 l 1,1,-1
 2595 0 l 1,2,-1
 2969 0 l 1,3,-1
 2969 496 l 1,4,-1
 3915 1370 l 1,5,-1
 3363 1370 l 1,6,-1
 2782 793 l 1,7,-1
 2201 1370 l 1,8,-1
 1649 1370 l 1,0,-1
464 493 m 1,9,-1
 634 -103 l 1,10,-1
 337 -103 l 1,11,-1
 90 493 l 1,12,-1
 464 493 l 1,9,-1
1148 998 m 1,13,-1
 616 338 l 1,14,-1
 856 166 l 1,15,-1
 1448 784 l 1,16,-1
 1148 998 l 1,13,-1
EndSplineSet
EndChar

StartChar: glyph271
Encoding: 65603 -1 271
Width: 3495
Flags: W
LayerCount: 2
Fore
SplineSet
1139 1370 m 1,0,-1
 2085 496 l 1,1,-1
 2085 0 l 1,2,-1
 2459 0 l 1,3,-1
 2459 496 l 1,4,-1
 3405 1370 l 1,5,-1
 2853 1370 l 1,6,-1
 2272 793 l 1,7,-1
 1691 1370 l 1,8,-1
 1139 1370 l 1,0,-1
732 895 m 1,9,-1
 902 299 l 1,10,-1
 605 299 l 1,11,-1
 358 895 l 1,12,-1
 732 895 l 1,9,-1
90 1054 m 1,13,-1
 109 1140 l 2,14,15
 140 1284 140 1284 248 1359 c 1,16,17
 358 1434 358 1434 480 1398 c 2,18,-1
 796 1305 l 2,19,20
 847 1290 847 1290 889 1319 c 1,21,22
 934 1352 934 1352 945 1407 c 1,23,-1
 1170 1340 l 1,24,-1
 1152 1253 l 2,25,26
 1122 1112 1122 1112 1013 1035 c 1,27,28
 904 960 904 960 781 995 c 1,29,-1
 464 1090 l 1,30,31
 416 1106 416 1106 372 1074 c 1,32,33
 328 1044 328 1044 316 987 c 1,34,-1
 90 1054 l 1,13,-1
EndSplineSet
EndChar

StartChar: glyph272
Encoding: 65604 -1 272
Width: 3032
Flags: W
LayerCount: 2
Fore
SplineSet
1376 1370 m 2,0,1
 1193 1370 1193 1370 1064 1253 c 0,2,3
 936 1136 936 1136 936 970 c 2,4,-1
 936 485 l 2,5,6
 936 365 936 365 1016 305 c 1,7,-1
 771 305 l 1,8,-1
 771 0 l 1,9,-1
 1669 0 l 1,10,-1
 1669 305 l 1,11,-1
 1486 305 l 1,12,13
 1412 306 1412 306 1361 351 c 1,14,15
 1310 399 1310 399 1310 465 c 2,16,-1
 1310 905 l 2,17,18
 1310 974 1310 974 1361 1018 c 1,19,20
 1412 1066 1412 1066 1486 1065 c 1,21,-1
 2227 1065 l 1,22,23
 2302 1068 2302 1068 2352 1019 c 1,24,25
 2403 974 2403 974 2403 905 c 2,26,-1
 2403 465 l 2,27,28
 2403 400 2403 400 2352 352 c 1,29,30
 2302 308 2302 308 2227 305 c 1,31,-1
 2043 305 l 1,32,-1
 2043 0 l 1,33,-1
 2942 0 l 1,34,-1
 2942 305 l 1,35,-1
 2700 305 l 1,36,37
 2778 368 2778 368 2777 485 c 1,38,-1
 2777 970 l 1,39,40
 2778 1136 2778 1136 2649 1253 c 0,41,42
 2521 1370 2521 1370 2337 1370 c 2,43,-1
 1857 1370 l 1,44,-1
 1376 1370 l 2,0,1
260 1370 m 1,45,-1
 90 774 l 1,46,-1
 387 774 l 1,47,-1
 634 1370 l 1,48,-1
 260 1370 l 1,45,-1
EndSplineSet
EndChar

StartChar: glyph273
Encoding: 65605 -1 273
Width: 3032
Flags: W
LayerCount: 2
Fore
SplineSet
1376 1370 m 2,0,1
 1193 1370 1193 1370 1064 1253 c 0,2,3
 936 1136 936 1136 936 970 c 2,4,-1
 936 485 l 2,5,6
 936 365 936 365 1016 305 c 1,7,-1
 771 305 l 1,8,-1
 771 0 l 1,9,-1
 1669 0 l 1,10,-1
 1669 305 l 1,11,-1
 1486 305 l 1,12,13
 1412 306 1412 306 1361 351 c 1,14,15
 1310 399 1310 399 1310 465 c 2,16,-1
 1310 905 l 2,17,18
 1310 974 1310 974 1361 1018 c 1,19,20
 1412 1066 1412 1066 1486 1065 c 1,21,-1
 2227 1065 l 1,22,23
 2302 1068 2302 1068 2352 1019 c 1,24,25
 2403 974 2403 974 2403 905 c 2,26,-1
 2403 465 l 2,27,28
 2403 400 2403 400 2352 352 c 1,29,30
 2302 308 2302 308 2227 305 c 1,31,-1
 2043 305 l 1,32,-1
 2043 0 l 1,33,-1
 2942 0 l 1,34,-1
 2942 305 l 1,35,-1
 2700 305 l 1,36,37
 2778 368 2778 368 2777 485 c 1,38,-1
 2777 970 l 1,39,40
 2778 1136 2778 1136 2649 1253 c 0,41,42
 2521 1370 2521 1370 2337 1370 c 2,43,-1
 1857 1370 l 1,44,-1
 1376 1370 l 2,0,1
464 1370 m 1,45,-1
 634 774 l 1,46,-1
 337 774 l 1,47,-1
 90 1370 l 1,48,-1
 464 1370 l 1,45,-1
EndSplineSet
EndChar

StartChar: glyph274
Encoding: 65606 -1 274
Width: 3910
Flags: W
LayerCount: 2
Fore
SplineSet
2254 1370 m 2,0,1
 2071 1370 2071 1370 1942 1253 c 0,2,3
 1814 1136 1814 1136 1814 970 c 2,4,-1
 1814 485 l 2,5,6
 1814 365 1814 365 1894 305 c 1,7,-1
 1649 305 l 1,8,-1
 1649 0 l 1,9,-1
 2547 0 l 1,10,-1
 2547 305 l 1,11,-1
 2364 305 l 1,12,13
 2290 306 2290 306 2239 351 c 1,14,15
 2188 399 2188 399 2188 465 c 2,16,-1
 2188 905 l 2,17,18
 2188 974 2188 974 2239 1018 c 1,19,20
 2290 1066 2290 1066 2364 1065 c 1,21,-1
 3105 1065 l 1,22,23
 3180 1068 3180 1068 3230 1019 c 1,24,25
 3281 974 3281 974 3281 905 c 2,26,-1
 3281 465 l 2,27,28
 3281 400 3281 400 3230 352 c 1,29,30
 3180 308 3180 308 3105 305 c 1,31,-1
 2921 305 l 1,32,-1
 2921 0 l 1,33,-1
 3820 0 l 1,34,-1
 3820 305 l 1,35,-1
 3578 305 l 1,36,37
 3656 368 3656 368 3655 485 c 1,38,-1
 3655 970 l 1,39,40
 3656 1136 3656 1136 3527 1253 c 0,41,42
 3399 1370 3399 1370 3215 1370 c 2,43,-1
 2735 1370 l 1,44,-1
 2254 1370 l 2,0,1
260 493 m 1,45,-1
 90 -103 l 1,46,-1
 387 -103 l 1,47,-1
 634 493 l 1,48,-1
 260 493 l 1,45,-1
700 1098 m 1,49,-1
 1232 438 l 1,50,-1
 992 266 l 1,51,-1
 400 884 l 1,52,-1
 700 1098 l 1,49,-1
EndSplineSet
EndChar

StartChar: glyph275
Encoding: 65607 -1 275
Width: 3910
Flags: W
LayerCount: 2
Fore
SplineSet
2254 1370 m 2,0,1
 2071 1370 2071 1370 1942 1253 c 0,2,3
 1814 1136 1814 1136 1814 970 c 2,4,-1
 1814 485 l 2,5,6
 1814 365 1814 365 1894 305 c 1,7,-1
 1649 305 l 1,8,-1
 1649 0 l 1,9,-1
 2547 0 l 1,10,-1
 2547 305 l 1,11,-1
 2364 305 l 1,12,13
 2290 306 2290 306 2239 351 c 1,14,15
 2188 399 2188 399 2188 465 c 2,16,-1
 2188 905 l 2,17,18
 2188 974 2188 974 2239 1018 c 1,19,20
 2290 1066 2290 1066 2364 1065 c 1,21,-1
 3105 1065 l 1,22,23
 3180 1068 3180 1068 3230 1019 c 1,24,25
 3281 974 3281 974 3281 905 c 2,26,-1
 3281 465 l 2,27,28
 3281 400 3281 400 3230 352 c 1,29,30
 3180 308 3180 308 3105 305 c 1,31,-1
 2921 305 l 1,32,-1
 2921 0 l 1,33,-1
 3820 0 l 1,34,-1
 3820 305 l 1,35,-1
 3578 305 l 1,36,37
 3656 368 3656 368 3655 485 c 1,38,-1
 3655 970 l 1,39,40
 3656 1136 3656 1136 3527 1253 c 0,41,42
 3399 1370 3399 1370 3215 1370 c 2,43,-1
 2735 1370 l 1,44,-1
 2254 1370 l 2,0,1
464 493 m 1,45,-1
 634 -103 l 1,46,-1
 337 -103 l 1,47,-1
 90 493 l 1,48,-1
 464 493 l 1,45,-1
684 998 m 1,49,-1
 1216 338 l 1,50,-1
 976 166 l 1,51,-1
 384 784 l 1,52,-1
 684 998 l 1,49,-1
EndSplineSet
EndChar

StartChar: glyph276
Encoding: 65608 -1 276
Width: 3910
Flags: W
LayerCount: 2
Fore
SplineSet
2254 1370 m 2,0,1
 2071 1370 2071 1370 1942 1253 c 0,2,3
 1814 1136 1814 1136 1814 970 c 2,4,-1
 1814 485 l 2,5,6
 1814 365 1814 365 1894 305 c 1,7,-1
 1649 305 l 1,8,-1
 1649 0 l 1,9,-1
 2547 0 l 1,10,-1
 2547 305 l 1,11,-1
 2364 305 l 1,12,13
 2290 306 2290 306 2239 351 c 1,14,15
 2188 399 2188 399 2188 465 c 2,16,-1
 2188 905 l 2,17,18
 2188 974 2188 974 2239 1018 c 1,19,20
 2290 1066 2290 1066 2364 1065 c 1,21,-1
 3105 1065 l 1,22,23
 3180 1068 3180 1068 3230 1019 c 1,24,25
 3281 974 3281 974 3281 905 c 2,26,-1
 3281 465 l 2,27,28
 3281 400 3281 400 3230 352 c 1,29,30
 3180 308 3180 308 3105 305 c 1,31,-1
 2921 305 l 1,32,-1
 2921 0 l 1,33,-1
 3820 0 l 1,34,-1
 3820 305 l 1,35,-1
 3578 305 l 1,36,37
 3656 368 3656 368 3655 485 c 1,38,-1
 3655 970 l 1,39,40
 3656 1136 3656 1136 3527 1253 c 0,41,42
 3399 1370 3399 1370 3215 1370 c 2,43,-1
 2735 1370 l 1,44,-1
 2254 1370 l 2,0,1
260 493 m 1,45,-1
 90 -103 l 1,46,-1
 387 -103 l 1,47,-1
 634 493 l 1,48,-1
 260 493 l 1,45,-1
1212 1370 m 1,49,-1
 680 710 l 1,50,-1
 920 538 l 1,51,-1
 1512 1156 l 1,52,-1
 1212 1370 l 1,49,-1
EndSplineSet
EndChar

StartChar: glyph277
Encoding: 65609 -1 277
Width: 3910
Flags: W
LayerCount: 2
Fore
SplineSet
2254 1370 m 2,0,1
 2071 1370 2071 1370 1942 1253 c 0,2,3
 1814 1136 1814 1136 1814 970 c 2,4,-1
 1814 485 l 2,5,6
 1814 365 1814 365 1894 305 c 1,7,-1
 1649 305 l 1,8,-1
 1649 0 l 1,9,-1
 2547 0 l 1,10,-1
 2547 305 l 1,11,-1
 2364 305 l 1,12,13
 2290 306 2290 306 2239 351 c 1,14,15
 2188 399 2188 399 2188 465 c 2,16,-1
 2188 905 l 2,17,18
 2188 974 2188 974 2239 1018 c 1,19,20
 2290 1066 2290 1066 2364 1065 c 1,21,-1
 3105 1065 l 1,22,23
 3180 1068 3180 1068 3230 1019 c 1,24,25
 3281 974 3281 974 3281 905 c 2,26,-1
 3281 465 l 2,27,28
 3281 400 3281 400 3230 352 c 1,29,30
 3180 308 3180 308 3105 305 c 1,31,-1
 2921 305 l 1,32,-1
 2921 0 l 1,33,-1
 3820 0 l 1,34,-1
 3820 305 l 1,35,-1
 3578 305 l 1,36,37
 3656 368 3656 368 3655 485 c 1,38,-1
 3655 970 l 1,39,40
 3656 1136 3656 1136 3527 1253 c 0,41,42
 3399 1370 3399 1370 3215 1370 c 2,43,-1
 2735 1370 l 1,44,-1
 2254 1370 l 2,0,1
464 493 m 1,45,-1
 634 -103 l 1,46,-1
 337 -103 l 1,47,-1
 90 493 l 1,48,-1
 464 493 l 1,45,-1
1148 998 m 1,49,-1
 616 338 l 1,50,-1
 856 166 l 1,51,-1
 1448 784 l 1,52,-1
 1148 998 l 1,49,-1
EndSplineSet
EndChar

StartChar: glyph278
Encoding: 65610 -1 278
Width: 3300
Flags: W
LayerCount: 2
Fore
SplineSet
1644 1370 m 2,0,1
 1461 1370 1461 1370 1332 1253 c 0,2,3
 1204 1136 1204 1136 1204 970 c 2,4,-1
 1204 485 l 2,5,6
 1204 365 1204 365 1284 305 c 1,7,-1
 1039 305 l 1,8,-1
 1039 0 l 1,9,-1
 1937 0 l 1,10,-1
 1937 305 l 1,11,-1
 1754 305 l 1,12,13
 1680 306 1680 306 1629 351 c 1,14,15
 1578 399 1578 399 1578 465 c 2,16,-1
 1578 905 l 2,17,18
 1578 974 1578 974 1629 1018 c 1,19,20
 1680 1066 1680 1066 1754 1065 c 1,21,-1
 2495 1065 l 1,22,23
 2570 1068 2570 1068 2620 1019 c 1,24,25
 2671 974 2671 974 2671 905 c 2,26,-1
 2671 465 l 2,27,28
 2671 400 2671 400 2620 352 c 1,29,30
 2570 308 2570 308 2495 305 c 1,31,-1
 2311 305 l 1,32,-1
 2311 0 l 1,33,-1
 3210 0 l 1,34,-1
 3210 305 l 1,35,-1
 2968 305 l 1,36,37
 3046 368 3046 368 3045 485 c 1,38,-1
 3045 970 l 1,39,40
 3046 1136 3046 1136 2917 1253 c 0,41,42
 2789 1370 2789 1370 2605 1370 c 2,43,-1
 2125 1370 l 1,44,-1
 1644 1370 l 2,0,1
424 895 m 1,45,-1
 254 299 l 1,46,-1
 551 299 l 1,47,-1
 798 895 l 1,48,-1
 424 895 l 1,45,-1
90 1054 m 1,49,-1
 109 1140 l 2,50,51
 140 1284 140 1284 248 1359 c 1,52,53
 358 1434 358 1434 480 1398 c 2,54,-1
 796 1305 l 2,55,56
 847 1290 847 1290 889 1319 c 1,57,58
 934 1352 934 1352 945 1407 c 1,59,-1
 1170 1340 l 1,60,-1
 1152 1253 l 2,61,62
 1122 1112 1122 1112 1013 1035 c 1,63,64
 904 960 904 960 781 995 c 1,65,-1
 464 1090 l 1,66,67
 416 1106 416 1106 372 1074 c 1,68,69
 328 1044 328 1044 316 987 c 1,70,-1
 90 1054 l 1,49,-1
EndSplineSet
EndChar

StartChar: glyph279
Encoding: 65611 -1 279
Width: 3300
Flags: W
LayerCount: 2
Fore
SplineSet
1644 1370 m 2,0,1
 1461 1370 1461 1370 1332 1253 c 0,2,3
 1204 1136 1204 1136 1204 970 c 2,4,-1
 1204 485 l 2,5,6
 1204 365 1204 365 1284 305 c 1,7,-1
 1039 305 l 1,8,-1
 1039 0 l 1,9,-1
 1937 0 l 1,10,-1
 1937 305 l 1,11,-1
 1754 305 l 1,12,13
 1680 306 1680 306 1629 351 c 1,14,15
 1578 399 1578 399 1578 465 c 2,16,-1
 1578 905 l 2,17,18
 1578 974 1578 974 1629 1018 c 1,19,20
 1680 1066 1680 1066 1754 1065 c 1,21,-1
 2495 1065 l 1,22,23
 2570 1068 2570 1068 2620 1019 c 1,24,25
 2671 974 2671 974 2671 905 c 2,26,-1
 2671 465 l 2,27,28
 2671 400 2671 400 2620 352 c 1,29,30
 2570 308 2570 308 2495 305 c 1,31,-1
 2311 305 l 1,32,-1
 2311 0 l 1,33,-1
 3210 0 l 1,34,-1
 3210 305 l 1,35,-1
 2968 305 l 1,36,37
 3046 368 3046 368 3045 485 c 1,38,-1
 3045 970 l 1,39,40
 3046 1136 3046 1136 2917 1253 c 0,41,42
 2789 1370 2789 1370 2605 1370 c 2,43,-1
 2125 1370 l 1,44,-1
 1644 1370 l 2,0,1
732 895 m 1,45,-1
 902 299 l 1,46,-1
 605 299 l 1,47,-1
 358 895 l 1,48,-1
 732 895 l 1,45,-1
90 1054 m 1,49,-1
 109 1140 l 2,50,51
 140 1284 140 1284 248 1359 c 1,52,53
 358 1434 358 1434 480 1398 c 2,54,-1
 796 1305 l 2,55,56
 847 1290 847 1290 889 1319 c 1,57,58
 934 1352 934 1352 945 1407 c 1,59,-1
 1170 1340 l 1,60,-1
 1152 1253 l 2,61,62
 1122 1112 1122 1112 1013 1035 c 1,63,64
 904 960 904 960 781 995 c 1,65,-1
 464 1090 l 1,66,67
 416 1106 416 1106 372 1074 c 1,68,69
 328 1044 328 1044 316 987 c 1,70,-1
 90 1054 l 1,49,-1
EndSplineSet
EndChar

StartChar: glyph280
Encoding: 65612 -1 280
Width: 3173
Flags: W
LayerCount: 2
Fore
SplineSet
960 1370 m 1,0,-1
 90 0 l 1,1,-1
 492 0 l 1,2,-1
 683 300 l 1,3,-1
 1610 300 l 1,4,-1
 1799 0 l 1,5,-1
 2202 0 l 1,6,-1
 1332 1370 l 1,7,-1
 960 1370 l 1,0,-1
1147 1030 m 1,8,-1
 1425 590 l 1,9,-1
 867 590 l 1,10,-1
 1147 1030 l 1,8,-1
2339 685 m 1,11,-1
 2339 400 l 2,12,13
 2339 235 2339 235 2467 117 c 1,14,15
 2596 0 2596 0 2779 0 c 2,16,-1
 3083 0 l 1,17,-1
 3083 234 l 1,18,-1
 2889 234 l 2,19,20
 2817 234 2817 234 2765 280 c 1,21,22
 2714 328 2714 328 2713 394 c 1,23,-1
 2713 685 l 1,24,-1
 2339 685 l 1,11,-1
EndSplineSet
EndChar

StartChar: glyph281
Encoding: 65613 -1 281
Width: 2916
Flags: W
LayerCount: 2
Fore
SplineSet
90 1370 m 1,0,-1
 90 0 l 1,1,-1
 464 0 l 1,2,-1
 464 552 l 1,3,-1
 1571 552 l 1,4,-1
 1571 0 l 1,5,-1
 1945 0 l 1,6,-1
 1945 1370 l 1,7,-1
 1571 1370 l 1,8,-1
 1571 857 l 1,9,-1
 464 857 l 1,10,-1
 464 1370 l 1,11,-1
 90 1370 l 1,0,-1
90 1370 m 1,12,-1
 90 0 l 1,13,-1
 464 0 l 1,14,-1
 464 552 l 1,15,-1
 1571 552 l 1,16,-1
 1571 0 l 1,17,-1
 1945 0 l 1,18,-1
 1945 1370 l 1,19,-1
 1571 1370 l 1,20,-1
 1571 857 l 1,21,-1
 464 857 l 1,22,-1
 464 1370 l 1,23,-1
 90 1370 l 1,12,-1
2082 685 m 1,24,-1
 2082 400 l 2,25,26
 2082 235 2082 235 2210 117 c 1,27,28
 2339 0 2339 0 2522 0 c 2,29,-1
 2826 0 l 1,30,-1
 2826 234 l 1,31,-1
 2632 234 l 2,32,33
 2560 234 2560 234 2508 280 c 1,34,35
 2456 328 2456 328 2456 394 c 2,36,-1
 2456 685 l 1,37,-1
 2082 685 l 1,24,-1
EndSplineSet
EndChar

StartChar: glyph282
Encoding: 65614 -1 282
Width: 2731
Flags: W
LayerCount: 2
Fore
SplineSet
771 1370 m 1,0,-1
 771 0 l 1,1,-1
 1145 0 l 1,2,-1
 1145 428 l 1,3,-1
 2123 428 l 2,4,5
 2264 428 2264 428 2383 490 c 0,6,7
 2503 553 2503 553 2572 661 c 0,8,9
 2641 770 2641 770 2641 898 c 0,10,11
 2641 1027 2641 1027 2572 1135 c 1,12,13
 2504 1244 2504 1244 2384 1307 c 256,14,15
 2264 1370 2264 1370 2123 1370 c 2,16,-1
 771 1370 l 1,0,-1
1145 1065 m 1,17,-1
 2088 1065 l 1,18,19
 2169 1066 2169 1066 2220 1018 c 1,20,21
 2274 973 2274 973 2273 898 c 1,22,23
 2276 826 2276 826 2221 778 c 0,24,25
 2170 734 2170 734 2088 731 c 1,26,-1
 1145 731 l 1,27,-1
 1145 1065 l 1,17,-1
464 1370 m 1,28,-1
 634 774 l 1,29,-1
 337 774 l 1,30,-1
 90 1370 l 1,31,-1
 464 1370 l 1,28,-1
EndSplineSet
EndChar

StartChar: glyph283
Encoding: 65615 -1 283
Width: 3232
Flags: W
LayerCount: 2
Fore
SplineSet
695 1370 m 2,0,1
 512 1370 512 1370 383 1253 c 0,2,3
 255 1136 255 1136 255 970 c 2,4,-1
 255 485 l 2,5,6
 255 365 255 365 335 305 c 1,7,-1
 90 305 l 1,8,-1
 90 0 l 1,9,-1
 988 0 l 1,10,-1
 988 305 l 1,11,-1
 805 305 l 1,12,13
 731 306 731 306 680 351 c 1,14,15
 629 399 629 399 629 465 c 2,16,-1
 629 905 l 2,17,18
 629 974 629 974 680 1018 c 1,19,20
 731 1066 731 1066 805 1065 c 1,21,-1
 1546 1065 l 1,22,23
 1620 1068 1620 1068 1671 1019 c 1,24,25
 1722 974 1722 974 1722 905 c 2,26,-1
 1722 465 l 2,27,28
 1722 400 1722 400 1671 352 c 1,29,30
 1620 308 1620 308 1546 305 c 1,31,-1
 1362 305 l 1,32,-1
 1362 0 l 1,33,-1
 2261 0 l 1,34,-1
 2261 305 l 1,35,-1
 2019 305 l 1,36,37
 2096 368 2096 368 2096 485 c 2,38,-1
 2096 970 l 2,39,40
 2096 1136 2096 1136 1968 1253 c 256,41,42
 1840 1370 1840 1370 1656 1370 c 2,43,-1
 1176 1370 l 1,44,-1
 695 1370 l 2,0,1
2398 685 m 1,45,-1
 2398 400 l 2,46,47
 2398 235 2398 235 2526 117 c 1,48,49
 2655 0 2655 0 2838 0 c 2,50,-1
 3142 0 l 1,51,-1
 3142 234 l 1,52,-1
 2948 234 l 2,53,54
 2876 234 2876 234 2824 280 c 1,55,56
 2772 328 2772 328 2772 394 c 2,57,-1
 2772 685 l 1,58,-1
 2398 685 l 1,45,-1
EndSplineSet
EndChar

StartChar: glyph284
Encoding: 65616 -1 284
Width: 3443
Flags: W
LayerCount: 2
Fore
SplineSet
1230 1370 m 1,0,-1
 360 0 l 1,1,-1
 762 0 l 1,2,-1
 953 300 l 1,3,-1
 1880 300 l 1,4,-1
 2069 0 l 1,5,-1
 2472 0 l 1,6,-1
 1602 1370 l 1,7,-1
 1230 1370 l 1,0,-1
1417 1030 m 1,8,-1
 1695 590 l 1,9,-1
 1137 590 l 1,10,-1
 1417 1030 l 1,8,-1
260 1370 m 1,11,-1
 90 774 l 1,12,-1
 387 774 l 1,13,-1
 634 1370 l 1,14,-1
 260 1370 l 1,11,-1
2609 685 m 1,15,-1
 2609 400 l 2,16,17
 2609 235 2609 235 2737 117 c 1,18,19
 2866 0 2866 0 3049 0 c 2,20,-1
 3353 0 l 1,21,-1
 3353 234 l 1,22,-1
 3159 234 l 2,23,24
 3087 234 3087 234 3035 280 c 1,25,26
 2984 328 2984 328 2983 394 c 1,27,-1
 2983 685 l 1,28,-1
 2609 685 l 1,15,-1
EndSplineSet
EndChar

StartChar: glyph285
Encoding: 65617 -1 285
Width: 3443
Flags: W
LayerCount: 2
Fore
SplineSet
1230 1370 m 1,0,-1
 360 0 l 1,1,-1
 762 0 l 1,2,-1
 953 300 l 1,3,-1
 1880 300 l 1,4,-1
 2069 0 l 1,5,-1
 2472 0 l 1,6,-1
 1602 1370 l 1,7,-1
 1230 1370 l 1,0,-1
1417 1030 m 1,8,-1
 1695 590 l 1,9,-1
 1137 590 l 1,10,-1
 1417 1030 l 1,8,-1
464 1370 m 1,11,-1
 634 774 l 1,12,-1
 337 774 l 1,13,-1
 90 1370 l 1,14,-1
 464 1370 l 1,11,-1
2609 685 m 1,15,-1
 2609 400 l 2,16,17
 2609 235 2609 235 2737 117 c 1,18,19
 2866 0 2866 0 3049 0 c 2,20,-1
 3353 0 l 1,21,-1
 3353 234 l 1,22,-1
 3159 234 l 2,23,24
 3087 234 3087 234 3035 280 c 1,25,26
 2984 328 2984 328 2983 394 c 1,27,-1
 2983 685 l 1,28,-1
 2609 685 l 1,15,-1
EndSplineSet
EndChar

StartChar: glyph286
Encoding: 65618 -1 286
Width: 4321
Flags: W
LayerCount: 2
Fore
SplineSet
2108 1370 m 1,0,-1
 1238 0 l 1,1,-1
 1640 0 l 1,2,-1
 1831 300 l 1,3,-1
 2758 300 l 1,4,-1
 2947 0 l 1,5,-1
 3350 0 l 1,6,-1
 2480 1370 l 1,7,-1
 2108 1370 l 1,0,-1
2295 1030 m 1,8,-1
 2573 590 l 1,9,-1
 2015 590 l 1,10,-1
 2295 1030 l 1,8,-1
464 493 m 1,11,-1
 634 -103 l 1,12,-1
 337 -103 l 1,13,-1
 90 493 l 1,14,-1
 464 493 l 1,11,-1
1148 998 m 1,15,-1
 616 338 l 1,16,-1
 856 166 l 1,17,-1
 1448 784 l 1,18,-1
 1148 998 l 1,15,-1
3487 582 m 1,19,-1
 3487 297 l 2,20,21
 3487 132 3487 132 3615 14 c 1,22,23
 3744 -103 3744 -103 3927 -103 c 2,24,-1
 4231 -103 l 1,25,-1
 4231 131 l 1,26,-1
 4037 131 l 1,27,28
 3965 132 3965 132 3913 177 c 1,29,30
 3862 225 3862 225 3861 291 c 1,31,-1
 3861 582 l 1,32,-1
 3487 582 l 1,19,-1
EndSplineSet
EndChar

StartChar: glyph287
Encoding: 65619 -1 287
Width: 3911
Flags: W
LayerCount: 2
Fore
SplineSet
1698 1370 m 1,0,-1
 828 0 l 1,1,-1
 1230 0 l 1,2,-1
 1421 300 l 1,3,-1
 2348 300 l 1,4,-1
 2537 0 l 1,5,-1
 2940 0 l 1,6,-1
 2070 1370 l 1,7,-1
 1698 1370 l 1,0,-1
1885 1030 m 1,8,-1
 2163 590 l 1,9,-1
 1605 590 l 1,10,-1
 1885 1030 l 1,8,-1
732 895 m 1,11,-1
 902 299 l 1,12,-1
 605 299 l 1,13,-1
 358 895 l 1,14,-1
 732 895 l 1,11,-1
90 1054 m 1,15,-1
 109 1140 l 2,16,17
 140 1284 140 1284 248 1359 c 1,18,19
 358 1434 358 1434 480 1398 c 2,20,-1
 796 1305 l 2,21,22
 847 1290 847 1290 889 1319 c 1,23,24
 934 1352 934 1352 945 1407 c 1,25,-1
 1170 1340 l 1,26,-1
 1152 1253 l 2,27,28
 1122 1112 1122 1112 1013 1035 c 1,29,30
 904 960 904 960 781 995 c 1,31,-1
 464 1090 l 1,32,33
 416 1106 416 1106 372 1074 c 1,34,35
 328 1044 328 1044 316 987 c 1,36,-1
 90 1054 l 1,15,-1
3077 685 m 1,37,-1
 3077 400 l 2,38,39
 3077 235 3077 235 3205 117 c 1,40,41
 3334 0 3334 0 3517 0 c 2,42,-1
 3821 0 l 1,43,-1
 3821 234 l 1,44,-1
 3627 234 l 2,45,46
 3555 234 3555 234 3503 280 c 1,47,48
 3452 328 3452 328 3451 394 c 1,49,-1
 3451 685 l 1,50,-1
 3077 685 l 1,37,-1
EndSplineSet
EndChar

StartChar: glyph288
Encoding: 65620 -1 288
Width: 4321
Flags: W
LayerCount: 2
Fore
SplineSet
2108 1370 m 1,0,-1
 1238 0 l 1,1,-1
 1640 0 l 1,2,-1
 1831 300 l 1,3,-1
 2758 300 l 1,4,-1
 2947 0 l 1,5,-1
 3350 0 l 1,6,-1
 2480 1370 l 1,7,-1
 2108 1370 l 1,0,-1
2295 1030 m 1,8,-1
 2573 590 l 1,9,-1
 2015 590 l 1,10,-1
 2295 1030 l 1,8,-1
464 493 m 1,11,-1
 634 -103 l 1,12,-1
 337 -103 l 1,13,-1
 90 493 l 1,14,-1
 464 493 l 1,11,-1
684 998 m 1,15,-1
 1216 338 l 1,16,-1
 976 166 l 1,17,-1
 384 784 l 1,18,-1
 684 998 l 1,15,-1
3487 582 m 1,19,-1
 3487 297 l 2,20,21
 3487 132 3487 132 3615 14 c 1,22,23
 3744 -103 3744 -103 3927 -103 c 2,24,-1
 4231 -103 l 1,25,-1
 4231 131 l 1,26,-1
 4037 131 l 1,27,28
 3965 132 3965 132 3913 177 c 1,29,30
 3862 225 3862 225 3861 291 c 1,31,-1
 3861 582 l 1,32,-1
 3487 582 l 1,19,-1
EndSplineSet
EndChar

StartChar: glyph289
Encoding: 65621 -1 289
Width: 4321
Flags: W
LayerCount: 2
Fore
SplineSet
2108 1370 m 1,0,-1
 1238 0 l 1,1,-1
 1640 0 l 1,2,-1
 1831 300 l 1,3,-1
 2758 300 l 1,4,-1
 2947 0 l 1,5,-1
 3350 0 l 1,6,-1
 2480 1370 l 1,7,-1
 2108 1370 l 1,0,-1
2295 1030 m 1,8,-1
 2573 590 l 1,9,-1
 2015 590 l 1,10,-1
 2295 1030 l 1,8,-1
260 493 m 1,11,-1
 90 -103 l 1,12,-1
 387 -103 l 1,13,-1
 634 493 l 1,14,-1
 260 493 l 1,11,-1
1212 1370 m 1,15,-1
 680 710 l 1,16,-1
 920 538 l 1,17,-1
 1512 1156 l 1,18,-1
 1212 1370 l 1,15,-1
3487 582 m 1,19,-1
 3487 297 l 2,20,21
 3487 132 3487 132 3615 14 c 1,22,23
 3744 -103 3744 -103 3927 -103 c 2,24,-1
 4231 -103 l 1,25,-1
 4231 131 l 1,26,-1
 4037 131 l 1,27,28
 3965 132 3965 132 3913 177 c 1,29,30
 3862 225 3862 225 3861 291 c 1,31,-1
 3861 582 l 1,32,-1
 3487 582 l 1,19,-1
EndSplineSet
EndChar

StartChar: glyph290
Encoding: 65622 -1 290
Width: 3711
Flags: W
LayerCount: 2
Fore
SplineSet
1498 1370 m 1,0,-1
 628 0 l 1,1,-1
 1030 0 l 1,2,-1
 1221 300 l 1,3,-1
 2148 300 l 1,4,-1
 2337 0 l 1,5,-1
 2740 0 l 1,6,-1
 1870 1370 l 1,7,-1
 1498 1370 l 1,0,-1
1685 1030 m 1,8,-1
 1963 590 l 1,9,-1
 1405 590 l 1,10,-1
 1685 1030 l 1,8,-1
424 895 m 1,11,-1
 254 299 l 1,12,-1
 551 299 l 1,13,-1
 798 895 l 1,14,-1
 424 895 l 1,11,-1
90 1054 m 1,15,-1
 109 1140 l 2,16,17
 140 1284 140 1284 248 1359 c 1,18,19
 358 1434 358 1434 480 1398 c 2,20,-1
 796 1305 l 2,21,22
 847 1290 847 1290 889 1319 c 1,23,24
 934 1352 934 1352 945 1407 c 1,25,-1
 1170 1340 l 1,26,-1
 1152 1253 l 2,27,28
 1122 1112 1122 1112 1013 1035 c 1,29,30
 904 960 904 960 781 995 c 1,31,-1
 464 1090 l 1,32,33
 416 1106 416 1106 372 1074 c 1,34,35
 328 1044 328 1044 316 987 c 1,36,-1
 90 1054 l 1,15,-1
2877 685 m 1,37,-1
 2877 400 l 2,38,39
 2877 235 2877 235 3005 117 c 1,40,41
 3134 0 3134 0 3317 0 c 2,42,-1
 3621 0 l 1,43,-1
 3621 234 l 1,44,-1
 3427 234 l 2,45,46
 3355 234 3355 234 3303 280 c 1,47,48
 3252 328 3252 328 3251 394 c 1,49,-1
 3251 685 l 1,50,-1
 2877 685 l 1,37,-1
EndSplineSet
EndChar

StartChar: glyph291
Encoding: 65623 -1 291
Width: 4321
Flags: W
LayerCount: 2
Fore
SplineSet
2108 1370 m 1,0,-1
 1238 0 l 1,1,-1
 1640 0 l 1,2,-1
 1831 300 l 1,3,-1
 2758 300 l 1,4,-1
 2947 0 l 1,5,-1
 3350 0 l 1,6,-1
 2480 1370 l 1,7,-1
 2108 1370 l 1,0,-1
2295 1030 m 1,8,-1
 2573 590 l 1,9,-1
 2015 590 l 1,10,-1
 2295 1030 l 1,8,-1
260 493 m 1,11,-1
 90 -103 l 1,12,-1
 387 -103 l 1,13,-1
 634 493 l 1,14,-1
 260 493 l 1,11,-1
700 1098 m 1,15,-1
 1232 438 l 1,16,-1
 992 266 l 1,17,-1
 400 884 l 1,18,-1
 700 1098 l 1,15,-1
3487 582 m 1,19,-1
 3487 297 l 2,20,21
 3487 132 3487 132 3615 14 c 1,22,23
 3744 -103 3744 -103 3927 -103 c 2,24,-1
 4231 -103 l 1,25,-1
 4231 131 l 1,26,-1
 4037 131 l 1,27,28
 3965 132 3965 132 3913 177 c 1,29,30
 3862 225 3862 225 3861 291 c 1,31,-1
 3861 582 l 1,32,-1
 3487 582 l 1,19,-1
EndSplineSet
EndChar

StartChar: glyph292
Encoding: 65624 -1 292
Width: 3597
Flags: W
LayerCount: 2
Fore
SplineSet
771 1370 m 1,0,-1
 771 0 l 1,1,-1
 1145 0 l 1,2,-1
 1145 552 l 1,3,-1
 2252 552 l 1,4,-1
 2252 0 l 1,5,-1
 2626 0 l 1,6,-1
 2626 1370 l 1,7,-1
 2252 1370 l 1,8,-1
 2252 857 l 1,9,-1
 1145 857 l 1,10,-1
 1145 1370 l 1,11,-1
 771 1370 l 1,0,-1
771 1370 m 1,12,-1
 771 0 l 1,13,-1
 1145 0 l 1,14,-1
 1145 552 l 1,15,-1
 2252 552 l 1,16,-1
 2252 0 l 1,17,-1
 2626 0 l 1,18,-1
 2626 1370 l 1,19,-1
 2252 1370 l 1,20,-1
 2252 857 l 1,21,-1
 1145 857 l 1,22,-1
 1145 1370 l 1,23,-1
 771 1370 l 1,12,-1
260 1370 m 1,24,-1
 90 774 l 1,25,-1
 387 774 l 1,26,-1
 634 1370 l 1,27,-1
 260 1370 l 1,24,-1
2763 685 m 1,28,-1
 2763 400 l 2,29,30
 2763 235 2763 235 2891 117 c 1,31,32
 3020 0 3020 0 3203 0 c 2,33,-1
 3507 0 l 1,34,-1
 3507 234 l 1,35,-1
 3313 234 l 2,36,37
 3241 234 3241 234 3189 280 c 1,38,39
 3138 328 3138 328 3137 394 c 1,40,-1
 3137 685 l 1,41,-1
 2763 685 l 1,28,-1
EndSplineSet
EndChar

StartChar: glyph293
Encoding: 65625 -1 293
Width: 3597
Flags: W
LayerCount: 2
Fore
SplineSet
771 1370 m 1,0,-1
 771 0 l 1,1,-1
 1145 0 l 1,2,-1
 1145 552 l 1,3,-1
 2252 552 l 1,4,-1
 2252 0 l 1,5,-1
 2626 0 l 1,6,-1
 2626 1370 l 1,7,-1
 2252 1370 l 1,8,-1
 2252 857 l 1,9,-1
 1145 857 l 1,10,-1
 1145 1370 l 1,11,-1
 771 1370 l 1,0,-1
771 1370 m 1,12,-1
 771 0 l 1,13,-1
 1145 0 l 1,14,-1
 1145 552 l 1,15,-1
 2252 552 l 1,16,-1
 2252 0 l 1,17,-1
 2626 0 l 1,18,-1
 2626 1370 l 1,19,-1
 2252 1370 l 1,20,-1
 2252 857 l 1,21,-1
 1145 857 l 1,22,-1
 1145 1370 l 1,23,-1
 771 1370 l 1,12,-1
464 1370 m 1,24,-1
 634 774 l 1,25,-1
 337 774 l 1,26,-1
 90 1370 l 1,27,-1
 464 1370 l 1,24,-1
2763 685 m 1,28,-1
 2763 400 l 2,29,30
 2763 235 2763 235 2891 117 c 1,31,32
 3020 0 3020 0 3203 0 c 2,33,-1
 3507 0 l 1,34,-1
 3507 234 l 1,35,-1
 3313 234 l 2,36,37
 3241 234 3241 234 3189 280 c 1,38,39
 3138 328 3138 328 3137 394 c 1,40,-1
 3137 685 l 1,41,-1
 2763 685 l 1,28,-1
EndSplineSet
EndChar

StartChar: glyph294
Encoding: 65626 -1 294
Width: 4475
Flags: W
LayerCount: 2
Fore
SplineSet
1649 1370 m 1,0,-1
 1649 0 l 1,1,-1
 2023 0 l 1,2,-1
 2023 552 l 1,3,-1
 3130 552 l 1,4,-1
 3130 0 l 1,5,-1
 3504 0 l 1,6,-1
 3504 1370 l 1,7,-1
 3130 1370 l 1,8,-1
 3130 857 l 1,9,-1
 2023 857 l 1,10,-1
 2023 1370 l 1,11,-1
 1649 1370 l 1,0,-1
1649 1370 m 1,12,-1
 1649 0 l 1,13,-1
 2023 0 l 1,14,-1
 2023 552 l 1,15,-1
 3130 552 l 1,16,-1
 3130 0 l 1,17,-1
 3504 0 l 1,18,-1
 3504 1370 l 1,19,-1
 3130 1370 l 1,20,-1
 3130 857 l 1,21,-1
 2023 857 l 1,22,-1
 2023 1370 l 1,23,-1
 1649 1370 l 1,12,-1
464 493 m 1,24,-1
 634 -103 l 1,25,-1
 337 -103 l 1,26,-1
 90 493 l 1,27,-1
 464 493 l 1,24,-1
1148 998 m 1,28,-1
 616 338 l 1,29,-1
 856 166 l 1,30,-1
 1448 784 l 1,31,-1
 1148 998 l 1,28,-1
3641 582 m 1,32,-1
 3641 297 l 2,33,34
 3641 132 3641 132 3769 14 c 1,35,36
 3898 -103 3898 -103 4081 -103 c 2,37,-1
 4385 -103 l 1,38,-1
 4385 131 l 1,39,-1
 4191 131 l 1,40,41
 4119 132 4119 132 4067 177 c 1,42,43
 4016 225 4016 225 4015 291 c 1,44,-1
 4015 582 l 1,45,-1
 3641 582 l 1,32,-1
EndSplineSet
EndChar

StartChar: glyph295
Encoding: 65627 -1 295
Width: 3865
Flags: W
LayerCount: 2
Fore
SplineSet
1039 1370 m 1,0,-1
 1039 0 l 1,1,-1
 1413 0 l 1,2,-1
 1413 552 l 1,3,-1
 2520 552 l 1,4,-1
 2520 0 l 1,5,-1
 2894 0 l 1,6,-1
 2894 1370 l 1,7,-1
 2520 1370 l 1,8,-1
 2520 857 l 1,9,-1
 1413 857 l 1,10,-1
 1413 1370 l 1,11,-1
 1039 1370 l 1,0,-1
1039 1370 m 1,12,-1
 1039 0 l 1,13,-1
 1413 0 l 1,14,-1
 1413 552 l 1,15,-1
 2520 552 l 1,16,-1
 2520 0 l 1,17,-1
 2894 0 l 1,18,-1
 2894 1370 l 1,19,-1
 2520 1370 l 1,20,-1
 2520 857 l 1,21,-1
 1413 857 l 1,22,-1
 1413 1370 l 1,23,-1
 1039 1370 l 1,12,-1
732 895 m 1,24,-1
 902 299 l 1,25,-1
 605 299 l 1,26,-1
 358 895 l 1,27,-1
 732 895 l 1,24,-1
90 1054 m 1,28,-1
 109 1140 l 2,29,30
 140 1284 140 1284 248 1359 c 1,31,32
 358 1434 358 1434 480 1398 c 2,33,-1
 796 1305 l 2,34,35
 847 1290 847 1290 889 1319 c 1,36,37
 934 1352 934 1352 945 1407 c 1,38,-1
 1170 1340 l 1,39,-1
 1152 1253 l 2,40,41
 1122 1112 1122 1112 1013 1035 c 1,42,43
 904 960 904 960 781 995 c 1,44,-1
 464 1090 l 1,45,46
 416 1106 416 1106 372 1074 c 1,47,48
 328 1044 328 1044 316 987 c 1,49,-1
 90 1054 l 1,28,-1
3031 685 m 1,50,-1
 3031 400 l 2,51,52
 3031 235 3031 235 3159 117 c 1,53,54
 3288 0 3288 0 3471 0 c 2,55,-1
 3775 0 l 1,56,-1
 3775 234 l 1,57,-1
 3581 234 l 2,58,59
 3509 234 3509 234 3457 280 c 1,60,61
 3406 328 3406 328 3405 394 c 1,62,-1
 3405 685 l 1,63,-1
 3031 685 l 1,50,-1
EndSplineSet
EndChar

StartChar: glyph296
Encoding: 65628 -1 296
Width: 4475
Flags: W
LayerCount: 2
Fore
SplineSet
1649 1370 m 1,0,-1
 1649 0 l 1,1,-1
 2023 0 l 1,2,-1
 2023 552 l 1,3,-1
 3130 552 l 1,4,-1
 3130 0 l 1,5,-1
 3504 0 l 1,6,-1
 3504 1370 l 1,7,-1
 3130 1370 l 1,8,-1
 3130 857 l 1,9,-1
 2023 857 l 1,10,-1
 2023 1370 l 1,11,-1
 1649 1370 l 1,0,-1
1649 1370 m 1,12,-1
 1649 0 l 1,13,-1
 2023 0 l 1,14,-1
 2023 552 l 1,15,-1
 3130 552 l 1,16,-1
 3130 0 l 1,17,-1
 3504 0 l 1,18,-1
 3504 1370 l 1,19,-1
 3130 1370 l 1,20,-1
 3130 857 l 1,21,-1
 2023 857 l 1,22,-1
 2023 1370 l 1,23,-1
 1649 1370 l 1,12,-1
464 493 m 1,24,-1
 634 -103 l 1,25,-1
 337 -103 l 1,26,-1
 90 493 l 1,27,-1
 464 493 l 1,24,-1
684 998 m 1,28,-1
 1216 338 l 1,29,-1
 976 166 l 1,30,-1
 384 784 l 1,31,-1
 684 998 l 1,28,-1
3641 582 m 1,32,-1
 3641 297 l 2,33,34
 3641 132 3641 132 3769 14 c 1,35,36
 3898 -103 3898 -103 4081 -103 c 2,37,-1
 4385 -103 l 1,38,-1
 4385 131 l 1,39,-1
 4191 131 l 1,40,41
 4119 132 4119 132 4067 177 c 1,42,43
 4016 225 4016 225 4015 291 c 1,44,-1
 4015 582 l 1,45,-1
 3641 582 l 1,32,-1
EndSplineSet
EndChar

StartChar: glyph297
Encoding: 65629 -1 297
Width: 4475
Flags: W
LayerCount: 2
Fore
SplineSet
1649 1370 m 1,0,-1
 1649 0 l 1,1,-1
 2023 0 l 1,2,-1
 2023 552 l 1,3,-1
 3130 552 l 1,4,-1
 3130 0 l 1,5,-1
 3504 0 l 1,6,-1
 3504 1370 l 1,7,-1
 3130 1370 l 1,8,-1
 3130 857 l 1,9,-1
 2023 857 l 1,10,-1
 2023 1370 l 1,11,-1
 1649 1370 l 1,0,-1
1649 1370 m 1,12,-1
 1649 0 l 1,13,-1
 2023 0 l 1,14,-1
 2023 552 l 1,15,-1
 3130 552 l 1,16,-1
 3130 0 l 1,17,-1
 3504 0 l 1,18,-1
 3504 1370 l 1,19,-1
 3130 1370 l 1,20,-1
 3130 857 l 1,21,-1
 2023 857 l 1,22,-1
 2023 1370 l 1,23,-1
 1649 1370 l 1,12,-1
260 493 m 1,24,-1
 90 -103 l 1,25,-1
 387 -103 l 1,26,-1
 634 493 l 1,27,-1
 260 493 l 1,24,-1
1212 1370 m 1,28,-1
 680 710 l 1,29,-1
 920 538 l 1,30,-1
 1512 1156 l 1,31,-1
 1212 1370 l 1,28,-1
3641 582 m 1,32,-1
 3641 297 l 2,33,34
 3641 132 3641 132 3769 14 c 1,35,36
 3898 -103 3898 -103 4081 -103 c 2,37,-1
 4385 -103 l 1,38,-1
 4385 131 l 1,39,-1
 4191 131 l 1,40,41
 4119 132 4119 132 4067 177 c 1,42,43
 4016 225 4016 225 4015 291 c 1,44,-1
 4015 582 l 1,45,-1
 3641 582 l 1,32,-1
EndSplineSet
EndChar

StartChar: glyph298
Encoding: 65630 -1 298
Width: 3865
Flags: W
LayerCount: 2
Fore
SplineSet
1039 1370 m 1,0,-1
 1039 0 l 1,1,-1
 1413 0 l 1,2,-1
 1413 552 l 1,3,-1
 2520 552 l 1,4,-1
 2520 0 l 1,5,-1
 2894 0 l 1,6,-1
 2894 1370 l 1,7,-1
 2520 1370 l 1,8,-1
 2520 857 l 1,9,-1
 1413 857 l 1,10,-1
 1413 1370 l 1,11,-1
 1039 1370 l 1,0,-1
1039 1370 m 1,12,-1
 1039 0 l 1,13,-1
 1413 0 l 1,14,-1
 1413 552 l 1,15,-1
 2520 552 l 1,16,-1
 2520 0 l 1,17,-1
 2894 0 l 1,18,-1
 2894 1370 l 1,19,-1
 2520 1370 l 1,20,-1
 2520 857 l 1,21,-1
 1413 857 l 1,22,-1
 1413 1370 l 1,23,-1
 1039 1370 l 1,12,-1
424 895 m 1,24,-1
 254 299 l 1,25,-1
 551 299 l 1,26,-1
 798 895 l 1,27,-1
 424 895 l 1,24,-1
90 1054 m 1,28,-1
 109 1140 l 2,29,30
 140 1284 140 1284 248 1359 c 1,31,32
 358 1434 358 1434 480 1398 c 2,33,-1
 796 1305 l 2,34,35
 847 1290 847 1290 889 1319 c 1,36,37
 934 1352 934 1352 945 1407 c 1,38,-1
 1170 1340 l 1,39,-1
 1152 1253 l 2,40,41
 1122 1112 1122 1112 1013 1035 c 1,42,43
 904 960 904 960 781 995 c 1,44,-1
 464 1090 l 1,45,46
 416 1106 416 1106 372 1074 c 1,47,48
 328 1044 328 1044 316 987 c 1,49,-1
 90 1054 l 1,28,-1
3031 685 m 1,50,-1
 3031 400 l 2,51,52
 3031 235 3031 235 3159 117 c 1,53,54
 3288 0 3288 0 3471 0 c 2,55,-1
 3775 0 l 1,56,-1
 3775 234 l 1,57,-1
 3581 234 l 2,58,59
 3509 234 3509 234 3457 280 c 1,60,61
 3406 328 3406 328 3405 394 c 1,62,-1
 3405 685 l 1,63,-1
 3031 685 l 1,50,-1
EndSplineSet
EndChar

StartChar: glyph299
Encoding: 65631 -1 299
Width: 4475
Flags: W
LayerCount: 2
Fore
SplineSet
1649 1370 m 1,0,-1
 1649 0 l 1,1,-1
 2023 0 l 1,2,-1
 2023 552 l 1,3,-1
 3130 552 l 1,4,-1
 3130 0 l 1,5,-1
 3504 0 l 1,6,-1
 3504 1370 l 1,7,-1
 3130 1370 l 1,8,-1
 3130 857 l 1,9,-1
 2023 857 l 1,10,-1
 2023 1370 l 1,11,-1
 1649 1370 l 1,0,-1
1649 1370 m 1,12,-1
 1649 0 l 1,13,-1
 2023 0 l 1,14,-1
 2023 552 l 1,15,-1
 3130 552 l 1,16,-1
 3130 0 l 1,17,-1
 3504 0 l 1,18,-1
 3504 1370 l 1,19,-1
 3130 1370 l 1,20,-1
 3130 857 l 1,21,-1
 2023 857 l 1,22,-1
 2023 1370 l 1,23,-1
 1649 1370 l 1,12,-1
260 493 m 1,24,-1
 90 -103 l 1,25,-1
 387 -103 l 1,26,-1
 634 493 l 1,27,-1
 260 493 l 1,24,-1
700 1098 m 1,28,-1
 1232 438 l 1,29,-1
 992 266 l 1,30,-1
 400 884 l 1,31,-1
 700 1098 l 1,28,-1
3641 582 m 1,32,-1
 3641 297 l 2,33,34
 3641 132 3641 132 3769 14 c 1,35,36
 3898 -103 3898 -103 4081 -103 c 2,37,-1
 4385 -103 l 1,38,-1
 4385 131 l 1,39,-1
 4191 131 l 1,40,41
 4119 132 4119 132 4067 177 c 1,42,43
 4016 225 4016 225 4015 291 c 1,44,-1
 4015 582 l 1,45,-1
 3641 582 l 1,32,-1
EndSplineSet
EndChar

StartChar: glyph300
Encoding: 65632 -1 300
Width: 3913
Flags: W
LayerCount: 2
Fore
SplineSet
1376 1370 m 2,0,1
 1193 1370 1193 1370 1064 1253 c 0,2,3
 936 1136 936 1136 936 970 c 2,4,-1
 936 485 l 2,5,6
 936 365 936 365 1016 305 c 1,7,-1
 771 305 l 1,8,-1
 771 0 l 1,9,-1
 1669 0 l 1,10,-1
 1669 305 l 1,11,-1
 1486 305 l 1,12,13
 1412 306 1412 306 1361 351 c 1,14,15
 1310 399 1310 399 1310 465 c 2,16,-1
 1310 905 l 2,17,18
 1310 974 1310 974 1361 1018 c 1,19,20
 1412 1066 1412 1066 1486 1065 c 1,21,-1
 2227 1065 l 1,22,23
 2302 1068 2302 1068 2352 1019 c 1,24,25
 2403 974 2403 974 2403 905 c 2,26,-1
 2403 465 l 2,27,28
 2403 400 2403 400 2352 352 c 1,29,30
 2302 308 2302 308 2227 305 c 1,31,-1
 2043 305 l 1,32,-1
 2043 0 l 1,33,-1
 2942 0 l 1,34,-1
 2942 305 l 1,35,-1
 2700 305 l 1,36,37
 2778 368 2778 368 2777 485 c 1,38,-1
 2777 970 l 1,39,40
 2778 1136 2778 1136 2649 1253 c 0,41,42
 2521 1370 2521 1370 2337 1370 c 2,43,-1
 1857 1370 l 1,44,-1
 1376 1370 l 2,0,1
260 1370 m 1,45,-1
 90 774 l 1,46,-1
 387 774 l 1,47,-1
 634 1370 l 1,48,-1
 260 1370 l 1,45,-1
3079 685 m 1,49,-1
 3079 400 l 2,50,51
 3079 235 3079 235 3207 117 c 1,52,53
 3336 0 3336 0 3519 0 c 2,54,-1
 3823 0 l 1,55,-1
 3823 234 l 1,56,-1
 3629 234 l 2,57,58
 3557 234 3557 234 3505 280 c 1,59,60
 3454 328 3454 328 3453 394 c 1,61,-1
 3453 685 l 1,62,-1
 3079 685 l 1,49,-1
EndSplineSet
EndChar

StartChar: glyph301
Encoding: 65633 -1 301
Width: 3913
Flags: W
LayerCount: 2
Fore
SplineSet
1376 1370 m 2,0,1
 1193 1370 1193 1370 1064 1253 c 0,2,3
 936 1136 936 1136 936 970 c 2,4,-1
 936 485 l 2,5,6
 936 365 936 365 1016 305 c 1,7,-1
 771 305 l 1,8,-1
 771 0 l 1,9,-1
 1669 0 l 1,10,-1
 1669 305 l 1,11,-1
 1486 305 l 1,12,13
 1412 306 1412 306 1361 351 c 1,14,15
 1310 399 1310 399 1310 465 c 2,16,-1
 1310 905 l 2,17,18
 1310 974 1310 974 1361 1018 c 1,19,20
 1412 1066 1412 1066 1486 1065 c 1,21,-1
 2227 1065 l 1,22,23
 2302 1068 2302 1068 2352 1019 c 1,24,25
 2403 974 2403 974 2403 905 c 2,26,-1
 2403 465 l 2,27,28
 2403 400 2403 400 2352 352 c 1,29,30
 2302 308 2302 308 2227 305 c 1,31,-1
 2043 305 l 1,32,-1
 2043 0 l 1,33,-1
 2942 0 l 1,34,-1
 2942 305 l 1,35,-1
 2700 305 l 1,36,37
 2778 368 2778 368 2777 485 c 1,38,-1
 2777 970 l 1,39,40
 2778 1136 2778 1136 2649 1253 c 0,41,42
 2521 1370 2521 1370 2337 1370 c 2,43,-1
 1857 1370 l 1,44,-1
 1376 1370 l 2,0,1
464 1370 m 1,45,-1
 634 774 l 1,46,-1
 337 774 l 1,47,-1
 90 1370 l 1,48,-1
 464 1370 l 1,45,-1
3079 685 m 1,49,-1
 3079 400 l 2,50,51
 3079 235 3079 235 3207 117 c 1,52,53
 3336 0 3336 0 3519 0 c 2,54,-1
 3823 0 l 1,55,-1
 3823 234 l 1,56,-1
 3629 234 l 2,57,58
 3557 234 3557 234 3505 280 c 1,59,60
 3454 328 3454 328 3453 394 c 1,61,-1
 3453 685 l 1,62,-1
 3079 685 l 1,49,-1
EndSplineSet
EndChar

StartChar: glyph302
Encoding: 65634 -1 302
Width: 4791
Flags: W
LayerCount: 2
Fore
SplineSet
2254 1370 m 2,0,1
 2071 1370 2071 1370 1942 1253 c 0,2,3
 1814 1136 1814 1136 1814 970 c 2,4,-1
 1814 485 l 2,5,6
 1814 365 1814 365 1894 305 c 1,7,-1
 1649 305 l 1,8,-1
 1649 0 l 1,9,-1
 2547 0 l 1,10,-1
 2547 305 l 1,11,-1
 2364 305 l 1,12,13
 2290 306 2290 306 2239 351 c 1,14,15
 2188 399 2188 399 2188 465 c 2,16,-1
 2188 905 l 2,17,18
 2188 974 2188 974 2239 1018 c 1,19,20
 2290 1066 2290 1066 2364 1065 c 1,21,-1
 3105 1065 l 1,22,23
 3180 1068 3180 1068 3230 1019 c 1,24,25
 3281 974 3281 974 3281 905 c 2,26,-1
 3281 465 l 2,27,28
 3281 400 3281 400 3230 352 c 1,29,30
 3180 308 3180 308 3105 305 c 1,31,-1
 2921 305 l 1,32,-1
 2921 0 l 1,33,-1
 3820 0 l 1,34,-1
 3820 305 l 1,35,-1
 3578 305 l 1,36,37
 3656 368 3656 368 3655 485 c 1,38,-1
 3655 970 l 1,39,40
 3656 1136 3656 1136 3527 1253 c 0,41,42
 3399 1370 3399 1370 3215 1370 c 2,43,-1
 2735 1370 l 1,44,-1
 2254 1370 l 2,0,1
464 493 m 1,45,-1
 634 -103 l 1,46,-1
 337 -103 l 1,47,-1
 90 493 l 1,48,-1
 464 493 l 1,45,-1
1148 998 m 1,49,-1
 616 338 l 1,50,-1
 856 166 l 1,51,-1
 1448 784 l 1,52,-1
 1148 998 l 1,49,-1
3957 582 m 1,53,-1
 3957 297 l 2,54,55
 3957 132 3957 132 4085 14 c 1,56,57
 4214 -103 4214 -103 4397 -103 c 2,58,-1
 4701 -103 l 1,59,-1
 4701 131 l 1,60,-1
 4507 131 l 1,61,62
 4435 132 4435 132 4383 177 c 1,63,64
 4332 225 4332 225 4331 291 c 1,65,-1
 4331 582 l 1,66,-1
 3957 582 l 1,53,-1
EndSplineSet
EndChar

